SplineFontDB: 3.2
FontName: Paribartan
FullName: Paribartan
FamilyName: Paribartan
Weight: Regular
Copyright: Copyright 2024 The Paribartan Project Authors (github.com/mitradranirban/paribartan)
Version: 0.100
ItalicAngle: 0
UnderlinePosition: 0
UnderlineWidth: 0
Ascent: 800
Descent: 200
InvalidEm: 1
UFOAscent: 1200
UFODescent: -400
LayerCount: 2
Layer: 0 0 "Back" 1
Layer: 1 1 "public.default" 0 "glyphs"
StyleMap: 0x0040
FSType: 0
OS2Version: 0
OS2_WeightWidthSlopeOnly: 0
OS2_UseTypoMetrics: 0
CreationTime: 1734514292
ModificationTime: 1734688793
PfmFamily: 16
TTFWeight: 400
TTFWidth: 5
LineGap: 0
VLineGap: 0
Panose: 2 0 5 3 0 0 0 0 0 0
OS2TypoAscent: 1200
OS2TypoAOffset: 0
OS2TypoDescent: -400
OS2TypoDOffset: 0
OS2TypoLinegap: 0
OS2WinAscent: 1160
OS2WinAOffset: 0
OS2WinDescent: 348
OS2WinDOffset: 0
HheadAscent: 1200
HheadAOffset: 0
HheadDescent: -400
HheadDOffset: 0
OS2SubXSize: 650
OS2SubYSize: 700
OS2SubXOff: 0
OS2SubYOff: 140
OS2SupXSize: 650
OS2SupYSize: 700
OS2SupXOff: 0
OS2SupYOff: 480
OS2StrikeYSize: 49
OS2StrikeYPos: 258
OS2Vendor: 'anir'
OS2CodePages: 00000093.00000000
OS2UnicodeRanges: 2003806f.00002002.00000000.00000000
MarkAttachClasses: 1
DEI: 91125
LangName: 1033 "" "" "" "FontForge 2.0 : Paribartan : 18-12-2024" "" "Version 0.100" "" "" "Dr Anirban Mitra" "Dr Anirban Mitra" "Variable Color Bengali Font" "https://fonts.atipra.in" "https://github.com/mitradranirban" "This Font Software is licensed under the SIL Open Font License, Version 1.1. This license is available with a FAQ at: https://openfontlicense.org+ACIA" "https://openfontlicense.org"
PickledDataWithLists: "(dp0
Vpublic.openTypeHeadModified
p1
V2024/12/18 07:18:57
p2
sVpublic.openTypePostUnderlinePosition
p3
I0
s."
Encoding: UnicodeBmp
UnicodeInterp: none
NameList: AGL For New Fonts
DisplaySize: -128
AntiAlias: 1
FitToEm: 1
WinInfo: 66870 10 4
BeginPrivate: 0
EndPrivate
BeginChars: 66908 1830

StartChar: .notdef
Encoding: 65536 -1 0
GlifName: _notdef
Width: 1000
VWidth: 0
Flags: W
LayerCount: 2
Fore
SplineSet
208 794 m 257,0,-1
 668 794 l 257,1,2
 674 794 674 794 678.5 789.5 c 128,-1,3
 683 785 683 785 683 779 c 257,4,-1
 683 15 l 257,5,6
 683 9 683 9 678.5 4.5 c 128,-1,7
 674 0 674 0 668 0 c 257,8,-1
 208 0 l 257,9,10
 202 0 202 0 197.5 4.5 c 128,-1,11
 193 9 193 9 193 15 c 257,12,-1
 193 779 l 257,13,14
 193 785 193 785 197.5 789.5 c 128,-1,15
 202 794 202 794 208 794 c 257,0,-1
258 732 m 257,16,17
 252 732 252 732 247.5 727.5 c 128,-1,18
 243 723 243 723 243 717 c 257,19,-1
 243 81 l 257,20,21
 243 75 243 75 247.5 70.5 c 128,-1,22
 252 66 252 66 258 66 c 257,23,-1
 620 66 l 257,24,25
 626 66 626 66 630.5 70.5 c 128,-1,26
 635 75 635 75 635 81 c 257,27,-1
 635 717 l 257,28,29
 635 723 635 723 630.5 727.5 c 128,-1,30
 626 732 626 732 620 732 c 257,31,-1
 258 732 l 257,16,17
371 621 m 257,32,33
 375 621 375 621 384 621 c 257,34,35
 438 621 438 621 475.5 583.5 c 128,-1,36
 513 546 513 546 513 493 c 257,37,38
 513 457 513 457 495 427 c 128,-1,39
 477 397 477 397 447 380 c 257,40,-1
 447 322 l 257,41,-1
 371 322 l 257,42,-1
 371 364 l 257,43,-1
 371 427 l 257,44,-1
 371 441 l 257,45,46
 377 439 377 439 384 439 c 257,47,48
 406 439 406 439 422 454.5 c 128,-1,49
 438 470 438 470 438 493 c 257,50,51
 438 515 438 515 422 530.5 c 128,-1,52
 406 546 406 546 384 546 c 257,53,54
 377 546 377 546 371 544 c 257,55,-1
 371 621 l 257,32,33
371 206 m 257,56,-1
 371 277 l 257,57,-1
 447 277 l 257,58,-1
 447 206 l 257,59,-1
 371 206 l 257,56,-1
EndSplineSet
EndChar

StartChar: A
Encoding: 65 65 1
GlifName: A_
Width: 752
VWidth: 0
Flags: W
LayerCount: 2
Fore
SplineSet
407 367 m 257,0,-1
 357 535 l 257,1,-1
 297 367 l 257,2,-1
 407 367 l 257,0,-1
550 0 m 257,3,-1
 461 228 l 257,4,-1
 461 227 l 257,5,-1
 261 227 l 257,6,-1
 202 0 l 257,7,-1
 50 0 l 257,8,-1
 266 769 l 257,9,-1
 418 769 l 257,10,-1
 702 0 l 257,11,-1
 550 0 l 257,3,-1
EndSplineSet
EndChar

StartChar: AE
Encoding: 198 198 5
GlifName: A_E_
Width: 1024
VWidth: 0
Flags: W
LayerCount: 2
Fore
SplineSet
865 485 m 257,0,-1
 866 333 l 257,1,-1
 558 333 l 257,2,-1
 558 149 l 257,3,-1
 973 149 l 257,4,-1
 974 -3 l 257,5,-1
 407 -3 l 257,6,-1
 407 -2 l 257,7,-1
 406 -2 l 257,8,-1
 406 227 l 257,9,-1
 261 227 l 257,10,-1
 202 0 l 257,11,-1
 50 0 l 257,12,-1
 250 778 l 257,13,-1
 973 778 l 257,14,-1
 974 626 l 257,15,-1
 558 626 l 257,16,-1
 558 485 l 257,17,-1
 865 485 l 257,0,-1
407 367 m 257,18,-1
 341 535 l 257,19,-1
 297 367 l 257,20,-1
 407 367 l 257,18,-1
EndSplineSet
EndChar

StartChar: B
Encoding: 66 66 45
GlifName: B_
Width: 534
VWidth: 0
Flags: W
LayerCount: 2
Fore
SplineSet
202 454 m 257,0,1
 214 451 214 451 226 451 c 257,2,3
 271 451 271 451 302 482 c 128,-1,4
 333 513 333 513 333 557 c 257,5,6
 333 602 333 602 302 633 c 128,-1,7
 271 664 271 664 226 664 c 257,8,9
 214 664 214 664 202 661 c 257,10,-1
 202 454 l 257,0,1
202 136 m 257,11,12
 214 133 214 133 226 133 c 257,13,14
 271 133 271 133 302 164 c 128,-1,15
 333 195 333 195 333 239 c 257,16,17
 333 284 333 284 302 315 c 128,-1,18
 271 346 271 346 226 346 c 257,19,20
 214 346 214 346 202 343 c 257,21,-1
 202 136 l 257,11,12
202 780 m 257,22,23
 208 780 208 780 220 780 c 257,24,25
 327 780 327 780 402.5 704.5 c 128,-1,26
 478 629 478 629 478 522 c 257,27,28
 478 499 478 499 464 477 c 128,-1,29
 450 455 450 455 425.5 429 c 128,-1,30
 401 403 401 403 395 396 c 257,31,32
 397 394 397 394 427.5 362 c 128,-1,33
 458 330 458 330 471 307.5 c 128,-1,34
 484 285 484 285 484 260 c 257,35,36
 484 153 484 153 408.5 78 c 128,-1,37
 333 3 333 3 226 3 c 257,38,39
 210 3 210 3 202 4 c 257,40,-1
 50 4 l 257,41,-1
 50 780 l 257,42,-1
 202 780 l 257,22,23
EndSplineSet
EndChar

StartChar: C
Encoding: 67 67 49
GlifName: C_
Width: 555
VWidth: 0
Flags: W
LayerCount: 2
Fore
SplineSet
432 612 m 257,0,1
 337 612 337 612 270 543.5 c 128,-1,2
 203 475 203 475 203 378 c 257,3,4
 203 280 203 280 270 211.5 c 128,-1,5
 337 143 337 143 432 143 c 257,6,7
 470 143 470 143 505 155 c 257,8,-1
 505 -7 l 257,9,10
 469 -14 469 -14 432 -14 c 257,11,12
 274 -14 274 -14 162 101.5 c 128,-1,13
 50 217 50 217 50 380 c 128,-1,14
 50 543 50 543 162 658 c 128,-1,15
 274 773 274 773 432 773 c 257,16,17
 469 773 469 773 505 766 c 257,18,-1
 505 600 l 257,19,20
 470 612 470 612 432 612 c 257,0,1
EndSplineSet
EndChar

StartChar: D
Encoding: 68 68 73
GlifName: D_
Width: 630
VWidth: 0
Flags: W
LayerCount: 2
Fore
SplineSet
202 143 m 257,0,1
 296 145 296 145 361.5 213.5 c 128,-1,2
 427 282 427 282 427 378 c 257,3,4
 427 474 427 474 361.5 542 c 128,-1,5
 296 610 296 610 202 612 c 257,6,-1
 202 143 l 257,0,1
50 768 m 257,7,8
 65 763 65 763 124 768 c 128,-1,9
 183 773 183 773 198 773 c 257,10,11
 356 773 356 773 468 658 c 128,-1,12
 580 543 580 543 580 380 c 257,13,14
 580 273 580 273 529.5 183 c 128,-1,15
 479 93 479 93 392 40 c 128,-1,16
 305 -13 305 -13 202 -14 c 257,17,-1
 50 -14 l 257,18,-1
 50 768 l 257,7,8
EndSplineSet
EndChar

StartChar: E
Encoding: 69 69 84
GlifName: E_
Width: 668
VWidth: 0
Flags: W
LayerCount: 2
Fore
SplineSet
509 485 m 257,0,-1
 510 333 l 257,1,-1
 202 333 l 257,2,-1
 202 149 l 257,3,-1
 617 149 l 257,4,-1
 618 -3 l 257,5,-1
 51 -3 l 257,6,-1
 51 -2 l 257,7,-1
 50 -2 l 257,8,-1
 50 774 l 257,9,-1
 50 778 l 257,10,-1
 617 778 l 257,11,-1
 618 626 l 257,12,-1
 202 626 l 257,13,-1
 202 485 l 257,14,-1
 509 485 l 257,0,-1
EndSplineSet
EndChar

StartChar: Eth
Encoding: 208 208 124
GlifName: E_th
Width: 690
VWidth: 0
Flags: W
LayerCount: 2
Fore
SplineSet
110 768 m 257,0,1
 125 763 125 763 184 768 c 128,-1,2
 243 773 243 773 258 773 c 257,3,4
 416 773 416 773 528 658 c 128,-1,5
 640 543 640 543 640 380 c 257,6,7
 640 273 640 273 589.5 183 c 128,-1,8
 539 93 539 93 452 40 c 128,-1,9
 365 -13 365 -13 262 -14 c 257,10,-1
 110 -14 l 257,11,-1
 110 344 l 257,12,-1
 50 344 l 257,13,-1
 50 496 l 257,14,-1
 110 496 l 257,15,-1
 110 768 l 257,0,1
262 143 m 257,16,17
 356 145 356 145 421.5 213.5 c 128,-1,18
 487 282 487 282 487 378 c 257,19,20
 487 474 487 474 421.5 542 c 128,-1,21
 356 610 356 610 262 612 c 257,22,-1
 262 496 l 257,23,-1
 321 496 l 257,24,-1
 321 344 l 257,25,-1
 262 344 l 257,26,-1
 262 143 l 257,16,17
EndSplineSet
EndChar

StartChar: Euro
Encoding: 8364 8364 128
GlifName: E_uro
Width: 605
VWidth: 0
Flags: W
LayerCount: 2
Fore
SplineSet
65 358 m 257,0,-1
 473 358 l 257,1,2
 479 358 479 358 483.5 353.5 c 128,-1,3
 488 349 488 349 488 343 c 257,4,-1
 488 287 l 257,5,6
 488 281 488 281 483.5 276.5 c 128,-1,7
 479 272 479 272 473 272 c 257,8,-1
 65 272 l 257,9,10
 59 272 59 272 54.5 276.5 c 128,-1,11
 50 281 50 281 50 287 c 257,12,-1
 50 343 l 257,13,14
 50 349 50 349 54.5 353.5 c 128,-1,15
 59 358 59 358 65 358 c 257,0,-1
65 533 m 257,16,-1
 473 533 l 257,17,18
 479 533 479 533 483.5 528.5 c 128,-1,19
 488 524 488 524 488 518 c 257,20,-1
 488 462 l 257,21,22
 488 456 488 456 483.5 451.5 c 128,-1,23
 479 447 479 447 473 447 c 257,24,-1
 65 447 l 257,25,26
 59 447 59 447 54.5 451.5 c 128,-1,27
 50 456 50 456 50 462 c 257,28,-1
 50 518 l 257,29,30
 50 524 50 524 54.5 528.5 c 128,-1,31
 59 533 59 533 65 533 c 257,16,-1
482 612 m 257,32,33
 387 612 387 612 320 543.5 c 128,-1,34
 253 475 253 475 253 378 c 257,35,36
 253 280 253 280 320 211.5 c 128,-1,37
 387 143 387 143 482 143 c 257,38,39
 520 143 520 143 555 155 c 257,40,-1
 555 -7 l 257,41,42
 519 -14 519 -14 482 -14 c 257,43,44
 324 -14 324 -14 212 101.5 c 128,-1,45
 100 217 100 217 100 380 c 128,-1,46
 100 543 100 543 212 658 c 128,-1,47
 324 773 324 773 482 773 c 257,48,49
 519 773 519 773 555 766 c 257,50,-1
 555 600 l 257,51,52
 520 612 520 612 482 612 c 257,32,33
EndSplineSet
EndChar

StartChar: F
Encoding: 70 70 132
GlifName: F_
Width: 668
VWidth: 0
Flags: W
LayerCount: 2
Fore
SplineSet
509 485 m 257,0,-1
 510 333 l 257,1,-1
 202 333 l 257,2,-1
 202 -2 l 257,3,-1
 50 -2 l 257,4,-1
 50 774 l 257,5,-1
 50 778 l 257,6,-1
 617 778 l 257,7,-1
 618 626 l 257,8,-1
 202 626 l 257,9,-1
 202 485 l 257,10,-1
 509 485 l 257,0,-1
EndSplineSet
EndChar

StartChar: G
Encoding: 71 71 136
GlifName: G_
Width: 651
VWidth: 0
Flags: W
LayerCount: 2
Fore
SplineSet
432 612 m 257,0,1
 337 612 337 612 270 543.5 c 128,-1,2
 203 475 203 475 203 378 c 257,3,4
 203 280 203 280 270 211.5 c 128,-1,5
 337 143 337 143 432 143 c 257,6,7
 441 143 441 143 449 144 c 257,8,-1
 449 313 l 257,9,-1
 601 313 l 257,10,-1
 601 -14 l 257,11,-1
 449 -14 l 257,12,13
 441 -14 441 -14 432 -14 c 257,14,15
 274 -14 274 -14 162 101.5 c 128,-1,16
 50 217 50 217 50 380 c 128,-1,17
 50 543 50 543 162 658 c 128,-1,18
 274 773 274 773 432 773 c 257,19,20
 469 773 469 773 505 766 c 257,21,-1
 505 600 l 257,22,23
 470 612 470 612 432 612 c 257,0,1
EndSplineSet
EndChar

StartChar: H
Encoding: 72 72 152
GlifName: H_
Width: 652
VWidth: 0
Flags: W
LayerCount: 2
Fore
SplineSet
450 774 m 257,0,-1
 602 774 l 257,1,-1
 602 -2 l 257,2,-1
 450 -2 l 257,3,-1
 450 333 l 257,4,-1
 202 333 l 257,5,-1
 202 -2 l 257,6,-1
 50 -2 l 257,7,-1
 50 774 l 257,8,-1
 202 774 l 257,9,-1
 202 485 l 257,10,-1
 450 485 l 257,11,-1
 450 774 l 257,0,-1
EndSplineSet
EndChar

StartChar: Hbar
Encoding: 294 294 156
GlifName: H_bar
Width: 747
VWidth: 0
Flags: W
LayerCount: 2
Fore
SplineSet
252 561 m 257,0,-1
 252 485 l 257,1,-1
 500 485 l 257,2,-1
 500 561 l 257,3,-1
 252 561 l 257,0,-1
500 774 m 257,4,-1
 652 774 l 257,5,-1
 652 713 l 257,6,-1
 697 713 l 257,7,-1
 697 561 l 257,8,-1
 652 561 l 257,9,-1
 652 -2 l 257,10,-1
 500 -2 l 257,11,-1
 500 333 l 257,12,-1
 252 333 l 257,13,-1
 252 -2 l 257,14,-1
 100 -2 l 257,15,-1
 100 561 l 257,16,-1
 50 561 l 257,17,-1
 50 713 l 257,18,-1
 100 713 l 257,19,-1
 100 774 l 257,20,-1
 252 774 l 257,21,-1
 252 713 l 257,22,-1
 500 713 l 257,23,-1
 500 774 l 257,4,-1
EndSplineSet
EndChar

StartChar: I
Encoding: 73 73 164
GlifName: I_
Width: 252
VWidth: 0
Flags: W
LayerCount: 2
Fore
SplineSet
50 774 m 257,0,-1
 202 774 l 257,1,-1
 202 -2 l 257,2,-1
 50 -2 l 257,3,-1
 50 774 l 257,0,-1
EndSplineSet
EndChar

StartChar: J
Encoding: 74 74 204
GlifName: J_
Width: 419
VWidth: 0
Flags: W
LayerCount: 2
Fore
SplineSet
50 6 m 257,0,-1
 50 174 l 257,1,2
 81 148 81 148 121 148 c 257,3,4
 170 148 170 148 202 185 c 257,5,-1
 202 761 l 257,6,-1
 369 761 l 257,7,-1
 366 184 l 257,8,9
 342 101 342 101 275 49 c 128,-1,10
 208 -3 208 -3 121 -3 c 257,11,12
 84 -3 84 -3 50 6 c 257,0,-1
EndSplineSet
EndChar

StartChar: K
Encoding: 75 75 212
GlifName: K_
Width: 753
VWidth: 0
Flags: W
LayerCount: 2
Fore
SplineSet
50 774 m 257,0,-1
 202 774 l 257,1,-1
 202 433 l 257,2,-1
 447 770 l 257,3,-1
 633 768 l 257,4,-1
 372 387 l 257,5,-1
 703 -3 l 257,6,-1
 511 -2 l 257,7,-1
 259 302 l 257,8,-1
 202 219 l 257,9,-1
 202 -2 l 257,10,-1
 50 -2 l 257,11,-1
 50 774 l 257,0,-1
EndSplineSet
EndChar

StartChar: L
Encoding: 76 76 216
GlifName: L_
Width: 718
VWidth: 0
Flags: W
LayerCount: 2
Fore
SplineSet
50 774 m 257,0,-1
 202 774 l 257,1,-1
 202 149 l 257,2,-1
 667 149 l 257,3,-1
 668 -3 l 257,4,-1
 51 -3 l 257,5,-1
 51 -2 l 257,6,-1
 50 -2 l 257,7,-1
 50 774 l 257,0,-1
EndSplineSet
EndChar

StartChar: Lcaron
Encoding: 317 317 224
GlifName: L_caron
Width: 718
VWidth: 0
Flags: W
LayerCount: 2
Fore
SplineSet
50 774 m 257,0,-1
 202 774 l 257,1,-1
 202 149 l 257,2,-1
 667 149 l 257,3,-1
 668 -3 l 257,4,-1
 51 -3 l 257,5,-1
 51 -2 l 257,6,-1
 50 -2 l 257,7,-1
 50 774 l 257,0,-1
252 520 m 257,8,-1
 252 777 l 257,9,-1
 404 777 l 257,10,-1
 359 520 l 257,11,-1
 252 520 l 257,8,-1
EndSplineSet
EndChar

StartChar: Lslash
Encoding: 321 321 232
GlifName: L_slash
Width: 869
VWidth: 0
Flags: W
LayerCount: 2
Fore
SplineSet
50 494 m 261,0,-1
 507 630 l 261,1,-1
 508 478 l 261,2,-1
 50 342 l 5,3,-1
 50 494 l 261,0,-1
201 774 m 257,4,-1
 353 774 l 257,5,-1
 353 149 l 257,6,-1
 818 149 l 257,7,-1
 819 -3 l 257,8,-1
 202 -3 l 257,9,-1
 202 -2 l 257,10,-1
 201 -2 l 257,11,-1
 201 774 l 257,4,-1
EndSplineSet
EndChar

StartChar: M
Encoding: 77 77 235
GlifName: M_
Width: 1052
VWidth: 0
Flags: W
LayerCount: 2
Fore
SplineSet
50 768 m 257,0,-1
 202 768 l 257,1,-1
 526 146 l 257,2,-1
 850 768 l 257,3,-1
 1002 768 l 257,4,-1
 1002 -2 l 257,5,-1
 850 -2 l 257,6,-1
 850 476 l 257,7,-1
 602 0 l 257,8,-1
 450 0 l 257,9,-1
 202 476 l 257,10,-1
 202 -2 l 257,11,-1
 50 -2 l 257,12,-1
 50 768 l 257,0,-1
EndSplineSet
EndChar

StartChar: N
Encoding: 78 78 239
GlifName: N_
Width: 852
VWidth: 0
Flags: W
LayerCount: 2
Fore
SplineSet
50 774 m 257,0,-1
 202 774 l 257,1,-1
 650 251 l 257,2,-1
 650 774 l 257,3,-1
 802 774 l 257,4,-1
 802 -2 l 257,5,-1
 650 -2 l 257,6,-1
 202 523 l 257,7,-1
 202 -2 l 257,8,-1
 50 -2 l 257,9,-1
 50 774 l 257,0,-1
EndSplineSet
EndChar

StartChar: O
Encoding: 79 79 255
GlifName: O_
Width: 864
VWidth: 0
Flags: W
LayerCount: 2
Fore
SplineSet
661 378 m 257,0,1
 661 475 661 475 594 543.5 c 128,-1,2
 527 612 527 612 432 612 c 128,-1,3
 337 612 337 612 270 543.5 c 128,-1,4
 203 475 203 475 203 378 c 257,5,6
 203 280 203 280 270 211.5 c 128,-1,7
 337 143 337 143 432 143 c 128,-1,8
 527 143 527 143 594 211.5 c 128,-1,9
 661 280 661 280 661 378 c 257,0,1
814 380 m 128,-1,11
 814 217 814 217 702 101.5 c 128,-1,12
 590 -14 590 -14 432 -14 c 128,-1,13
 274 -14 274 -14 162 101.5 c 128,-1,14
 50 217 50 217 50 380 c 128,-1,15
 50 543 50 543 162 658 c 128,-1,16
 274 773 274 773 432 773 c 128,-1,17
 590 773 590 773 702 658 c 128,-1,10
 814 543 814 543 814 380 c 128,-1,11
  PathStart: -1
EndSplineSet
EndChar

StartChar: OE
Encoding: 338 338 259
GlifName: O_E_
Width: 1068
VWidth: 0
Flags: W
LayerCount: 2
Fore
SplineSet
432 612 m 257,0,1
 337 612 337 612 270 543.5 c 128,-1,2
 203 475 203 475 203 378 c 257,3,4
 203 280 203 280 270 211.5 c 128,-1,5
 337 143 337 143 432 143 c 257,6,7
 441 143 441 143 450 144 c 257,8,-1
 450 611 l 257,9,10
 441 612 441 612 432 612 c 257,0,1
909 485 m 257,11,-1
 910 333 l 257,12,-1
 602 333 l 257,13,-1
 602 149 l 257,14,-1
 1017 149 l 257,15,-1
 1018 -3 l 257,16,-1
 505 -3 l 257,17,-1
 505 -7 l 257,18,19
 469 -14 469 -14 432 -14 c 257,20,21
 274 -14 274 -14 162 101.5 c 128,-1,22
 50 217 50 217 50 380 c 128,-1,23
 50 543 50 543 162 658 c 128,-1,24
 274 773 274 773 432 773 c 257,25,26
 441 773 441 773 450 773 c 257,27,-1
 450 774 l 257,28,-1
 450 778 l 257,29,-1
 1017 778 l 257,30,-1
 1018 626 l 257,31,-1
 602 626 l 257,32,-1
 602 485 l 257,33,-1
 909 485 l 257,11,-1
EndSplineSet
EndChar

StartChar: Oslash
Encoding: 216 216 291
GlifName: O_slash
Width: 864
VWidth: 0
Flags: W
LayerCount: 2
Fore
SplineSet
599 538 m 257,0,-1
 375 150 l 257,1,2
 403 143 403 143 432 143 c 257,3,4
 527 143 527 143 594 211.5 c 128,-1,5
 661 280 661 280 661 378 c 257,6,7
 661 471 661 471 599 538 c 257,0,-1
495 603 m 257,8,9
 464 612 464 612 432 612 c 257,10,11
 337 612 337 612 270 543.5 c 128,-1,12
 203 475 203 475 203 378 c 128,-1,13
 203 281 203 281 269 212 c 257,14,-1
 495 603 l 257,8,9
814 380 m 257,15,16
 814 217 814 217 702 101.5 c 128,-1,17
 590 -14 590 -14 432 -14 c 257,18,19
 361 -14 361 -14 295 12 c 257,20,-1
 240 -83 l 257,21,-1
 134 -22 l 257,22,-1
 190 75 l 257,23,24
 125 130 125 130 87.5 209.5 c 128,-1,25
 50 289 50 289 50 380 c 257,26,27
 50 543 50 543 162 658 c 128,-1,28
 274 773 274 773 432 773 c 257,29,30
 507 773 507 773 576 744 c 257,31,-1
 619 818 l 257,32,-1
 725 757 l 257,33,-1
 680 679 l 257,34,35
 743 624 743 624 778.5 546 c 128,-1,36
 814 468 814 468 814 380 c 257,15,16
EndSplineSet
EndChar

StartChar: P
Encoding: 80 80 299
GlifName: P_
Width: 534
VWidth: 0
Flags: W
LayerCount: 2
Fore
SplineSet
202 626 m 257,0,-1
 202 419 l 257,1,2
 214 416 214 416 226 416 c 257,3,4
 271 416 271 416 302 447 c 128,-1,5
 333 478 333 478 333 523 c 257,6,7
 333 567 333 567 302 598 c 128,-1,8
 271 629 271 629 226 629 c 257,9,10
 214 629 214 629 202 626 c 257,0,-1
202 3 m 257,11,-1
 50 3 l 257,12,-1
 50 779 l 257,13,-1
 202 779 l 257,14,15
 210 780 210 780 226 780 c 257,16,17
 333 780 333 780 408.5 705 c 128,-1,18
 484 630 484 630 484 523 c 128,-1,19
 484 416 484 416 408.5 340.5 c 128,-1,20
 333 265 333 265 226 265 c 257,21,22
 210 265 210 265 202 266 c 257,23,-1
 202 3 l 257,11,-1
EndSplineSet
EndChar

StartChar: Q
Encoding: 81 81 303
GlifName: Q_
Width: 872
VWidth: 0
Flags: W
LayerCount: 2
Fore
SplineSet
814 380 m 257,0,1
 814 293 814 293 780 216.5 c 128,-1,2
 746 140 746 140 685 85 c 257,3,-1
 822 -52 l 257,4,-1
 684 -191 l 257,5,-1
 501 -8 l 257,6,7
 467 -14 467 -14 432 -14 c 257,8,9
 274 -14 274 -14 162 101.5 c 128,-1,10
 50 217 50 217 50 380 c 128,-1,11
 50 543 50 543 162 658 c 128,-1,12
 274 773 274 773 432 773 c 128,-1,13
 590 773 590 773 702 658 c 128,-1,14
 814 543 814 543 814 380 c 257,0,1
661 378 m 257,15,16
 661 475 661 475 594 543.5 c 128,-1,17
 527 612 527 612 432 612 c 128,-1,18
 337 612 337 612 270 543.5 c 128,-1,19
 203 475 203 475 203 378 c 257,20,21
 203 280 203 280 270 211.5 c 128,-1,22
 337 143 337 143 432 143 c 128,-1,23
 527 143 527 143 594 211.5 c 128,-1,24
 661 280 661 280 661 378 c 257,15,16
EndSplineSet
EndChar

StartChar: R
Encoding: 82 82 307
GlifName: R_
Width: 562
VWidth: 0
Flags: W
LayerCount: 2
Fore
SplineSet
202 3 m 257,0,-1
 50 3 l 257,1,-1
 50 779 l 257,2,-1
 202 779 l 257,3,4
 210 780 210 780 226 780 c 257,5,6
 333 780 333 780 408.5 705 c 128,-1,7
 484 630 484 630 484 523 c 257,8,9
 484 440 484 440 436.5 373.5 c 128,-1,10
 389 307 389 307 313 280 c 257,11,-1
 512 -3 l 257,12,-1
 372 -3 l 257,13,-1
 207 266 l 257,14,15
 204 266 204 266 202 266 c 257,16,-1
 202 3 l 257,0,-1
202 626 m 257,17,-1
 202 419 l 257,18,19
 214 416 214 416 226 416 c 257,20,21
 271 416 271 416 302 447 c 128,-1,22
 333 478 333 478 333 523 c 257,23,24
 333 567 333 567 302 598 c 128,-1,25
 271 629 271 629 226 629 c 257,26,27
 214 629 214 629 202 626 c 257,17,-1
EndSplineSet
EndChar

StartChar: S
Encoding: 83 83 319
GlifName: S_
Width: 519
VWidth: 0
Flags: W
LayerCount: 2
Fore
SplineSet
50 57 m 257,0,-1
 125 182 l 257,1,2
 137 172 137 172 147 167 c 257,3,4
 185 145 185 145 227 155.5 c 128,-1,5
 269 166 269 166 292 202 c 257,6,7
 314 241 314 241 289.5 274.5 c 128,-1,8
 265 308 265 308 222 315 c 257,9,10
 155 351 155 351 114.5 398 c 128,-1,11
 74 445 74 445 63.5 507.5 c 128,-1,12
 53 570 53 570 96 639 c 257,13,14
 148 726 148 726 251 751.5 c 128,-1,15
 354 777 354 777 448 727 c 257,16,17
 451 724 451 724 458.5 719.5 c 128,-1,18
 466 715 466 715 469 712 c 257,19,-1
 394 587 l 257,20,21
 382 597 382 597 372 602 c 257,22,23
 334 623 334 623 291.5 612.5 c 128,-1,24
 249 602 249 602 227 565 c 257,25,26
 202 524 202 524 222.5 475 c 128,-1,27
 243 426 243 426 291 418 c 257,28,29
 340 392 340 392 373.5 365.5 c 128,-1,30
 407 339 407 339 431.5 303.5 c 128,-1,31
 456 268 456 268 454.5 224 c 128,-1,32
 453 180 453 180 422 130 c 257,33,34
 370 42 370 42 267.5 16.5 c 128,-1,35
 165 -9 165 -9 71 42 c 257,36,37
 68 45 68 45 60.5 49.5 c 128,-1,38
 53 54 53 54 50 57 c 257,0,-1
EndSplineSet
EndChar

StartChar: T
Encoding: 84 84 339
GlifName: T_
Width: 676
VWidth: 0
Flags: W
LayerCount: 2
Fore
SplineSet
50 614 m 257,0,-1
 50 766 l 257,1,-1
 626 766 l 257,2,-1
 626 614 l 257,3,-1
 414 614 l 257,4,-1
 414 -2 l 257,5,-1
 262 -2 l 257,6,-1
 262 614 l 257,7,-1
 50 614 l 257,0,-1
EndSplineSet
EndChar

StartChar: Thorn
Encoding: 222 222 347
GlifName: T_horn
Width: 534
VWidth: 0
Flags: W
LayerCount: 2
Fore
SplineSet
202 561 m 257,0,-1
 202 354 l 257,1,2
 214 351 214 351 226 351 c 257,3,4
 271 351 271 351 302 382 c 128,-1,5
 333 413 333 413 333 458 c 257,6,7
 333 502 333 502 302 533 c 128,-1,8
 271 564 271 564 226 564 c 257,9,10
 214 564 214 564 202 561 c 257,0,-1
202 3 m 257,11,-1
 50 3 l 257,12,-1
 50 903 l 257,13,-1
 197 903 l 257,14,-1
 202 714 l 257,15,16
 210 715 210 715 226 715 c 257,17,18
 333 715 333 715 408.5 640 c 128,-1,19
 484 565 484 565 484 458 c 128,-1,20
 484 351 484 351 408.5 275.5 c 128,-1,21
 333 200 333 200 226 200 c 257,22,23
 210 200 210 200 202 201 c 257,24,-1
 202 3 l 257,11,-1
EndSplineSet
EndChar

StartChar: U
Encoding: 85 85 351
GlifName: U_
Width: 669
VWidth: 0
Flags: W
LayerCount: 2
Fore
SplineSet
616 184 m 257,0,1
 600 126 600 126 555.5 84.5 c 128,-1,2
 511 43 511 43 455 23.5 c 128,-1,3
 399 4 399 4 335 3.5 c 128,-1,4
 271 3 271 3 214.5 22 c 128,-1,5
 158 41 158 41 114 83 c 128,-1,6
 70 125 70 125 53 184 c 257,7,-1
 50 761 l 257,8,-1
 217 761 l 257,9,-1
 217 185 l 257,10,11
 246 152 246 152 335 151.5 c 128,-1,12
 424 151 424 151 452 185 c 257,13,-1
 452 761 l 257,14,-1
 619 761 l 257,15,-1
 616 184 l 257,0,1
EndSplineSet
EndChar

StartChar: V
Encoding: 86 86 395
GlifName: V_
Width: 652
VWidth: 0
Flags: W
LayerCount: 2
Fore
SplineSet
50 769 m 257,0,-1
 202 769 l 257,1,-1
 326 292 l 257,2,-1
 450 769 l 257,3,-1
 602 769 l 257,4,-1
 402 0 l 257,5,-1
 250 0 l 257,6,-1
 50 769 l 257,0,-1
EndSplineSet
EndChar

StartChar: W
Encoding: 87 87 399
GlifName: W_
Width: 1053
VWidth: 0
Flags: W
LayerCount: 2
Fore
SplineSet
50 769 m 257,0,-1
 202 769 l 257,1,-1
 326 292 l 257,2,-1
 450 769 l 257,3,-1
 451 769 l 257,4,-1
 602 769 l 257,5,-1
 603 769 l 257,6,-1
 727 292 l 257,7,-1
 851 769 l 257,8,-1
 1003 769 l 257,9,-1
 803 0 l 257,10,-1
 651 0 l 257,11,-1
 526 479 l 257,12,-1
 402 0 l 257,13,-1
 250 0 l 257,14,-1
 50 769 l 257,0,-1
EndSplineSet
EndChar

StartChar: X
Encoding: 88 88 419
GlifName: X_
Width: 724
VWidth: 0
Flags: W
LayerCount: 2
Fore
SplineSet
50 770 m 257,0,-1
 236 768 l 257,1,-1
 366 541 l 257,2,-1
 498 769 l 257,3,-1
 673 768 l 257,4,-1
 453 388 l 257,5,-1
 674 0 l 257,6,-1
 499 -2 l 257,7,-1
 363 233 l 257,8,-1
 229 2 l 257,9,-1
 51 -1 l 257,10,-1
 274 384 l 257,11,-1
 50 770 l 257,0,-1
EndSplineSet
EndChar

StartChar: Y
Encoding: 89 89 423
GlifName: Y_
Width: 652
VWidth: 0
Flags: W
LayerCount: 2
Fore
SplineSet
249 451 m 257,0,-1
 50 765 l 257,1,-1
 202 765 l 257,2,-1
 326 594 l 257,3,-1
 450 765 l 257,4,-1
 602 765 l 257,5,-1
 402 450 l 257,6,-1
 401 450 l 257,7,-1
 401 1 l 257,8,-1
 249 1 l 257,9,-1
 249 451 l 257,0,-1
EndSplineSet
EndChar

StartChar: Z
Encoding: 90 90 443
GlifName: Z_
Width: 783
VWidth: 0
Flags: W
LayerCount: 2
Fore
SplineSet
50 10 m 257,0,-1
 50 162 l 257,1,-1
 480 610 l 257,2,-1
 50 610 l 257,3,-1
 50 762 l 257,4,-1
 733 762 l 257,5,-1
 733 610 l 257,6,-1
 301 162 l 257,7,-1
 733 162 l 257,8,-1
 733 10 l 257,9,-1
 50 10 l 257,0,-1
EndSplineSet
EndChar

StartChar: a
Encoding: 97 97 459
GlifName: a
Width: 534
VWidth: 0
Flags: W
LayerCount: 2
Fore
SplineSet
332 369 m 257,0,1
 320 372 320 372 308 372 c 257,2,3
 263 372 263 372 232 341 c 128,-1,4
 201 310 201 310 201 266 c 257,5,6
 201 221 201 221 232 190 c 128,-1,7
 263 159 263 159 308 159 c 257,8,9
 320 159 320 159 332 162 c 257,10,-1
 332 369 l 257,0,1
332 1 m 257,11,-1
 332 9 l 257,12,13
 324 8 324 8 308 8 c 257,14,15
 201 8 201 8 125.5 83.5 c 128,-1,16
 50 159 50 159 50 266 c 257,17,18
 50 372 50 372 125 443.5 c 128,-1,19
 200 515 200 515 308 515 c 257,20,21
 324 515 324 515 332 514 c 257,22,-1
 484 514 l 257,23,-1
 484 1 l 257,24,-1
 332 1 l 257,11,-1
EndSplineSet
EndChar

StartChar: acutecomb
Encoding: 769 769 479
GlifName: acutecomb
Width: 0
VWidth: 0
Flags: W
LayerCount: 2
Fore
SplineSet
-37 516 m 257,0,-1
 -145 623 l 257,1,-1
 37 805 l 257,2,-1
 145 698 l 257,3,-1
 -37 516 l 257,0,-1
EndSplineSet
EndChar

StartChar: ae
Encoding: 230 230 487
GlifName: ae
Width: 905
VWidth: 0
Flags: W
LayerCount: 2
Fore
SplineSet
854 260 m 257,0,1
 854 250 854 250 854.5 232.5 c 128,-1,2
 855 215 855 215 855 208 c 257,3,-1
 508 205 l 257,4,5
 539 154 539 154 596 154 c 257,6,7
 630 154 630 154 733.5 156.5 c 128,-1,8
 837 159 837 159 845 162 c 257,9,-1
 845 6 l 257,10,11
 826 3 826 3 596 3 c 257,12,13
 549 3 549 3 505 19 c 257,14,-1
 332 1 l 257,15,-1
 332 9 l 257,16,17
 324 8 324 8 308 8 c 257,18,19
 201 8 201 8 125.5 83.5 c 128,-1,20
 50 159 50 159 50 266 c 257,21,22
 50 372 50 372 125 443.5 c 128,-1,23
 200 515 200 515 308 515 c 257,24,25
 324 515 324 515 332 514 c 257,26,-1
 505 514 l 257,27,-1
 596 518 l 257,28,29
 703 518 703 518 778.5 442.5 c 128,-1,30
 854 367 854 367 854 260 c 257,0,1
332 369 m 257,31,32
 320 372 320 372 308 372 c 257,33,34
 263 372 263 372 232 341 c 128,-1,35
 201 310 201 310 201 266 c 257,36,37
 201 221 201 221 232 190 c 128,-1,38
 263 159 263 159 308 159 c 257,39,40
 320 159 320 159 332 162 c 257,41,-1
 332 369 l 257,31,32
503 297 m 257,42,-1
 695 294 l 257,43,44
 691 298 691 298 675 317 c 128,-1,45
 659 336 659 336 650 345.5 c 128,-1,46
 641 355 641 355 625.5 365 c 128,-1,47
 610 375 610 375 596 375 c 257,48,49
 578 375 578 375 562.5 363 c 128,-1,50
 547 351 547 351 526.5 325.5 c 128,-1,51
 506 300 506 300 503 297 c 257,42,-1
EndSplineSet
EndChar

StartChar: ampersand
Encoding: 38 38 499
GlifName: ampersand
Width: 650
VWidth: 0
Flags: W
LayerCount: 2
Fore
SplineSet
322.666992188 158 m 257,0,-1
 209.666992188 272 l 257,1,2
 208.666992188 266 208.666992188 266 208.666992188 260 c 257,3,4
 208.666992188 216 208.666992188 216 239.666992188 185 c 128,-1,5
 270.666992188 154 270.666992188 154 315.666992188 154 c 257,6,7
 316.666992188 154 316.666992188 154 322.666992188 158 c 257,0,-1
389.666992188 810 m 257,8,-1
 386.666992188 691 l 257,9,10
 368.666992188 690 368.666992188 690 304.166992188 655 c 128,-1,11
 239.666992188 620 239.666992188 620 224.666992188 605 c 257,12,13
 190.666992188 571 190.666992188 571 193.666992188 521 c 257,14,-1
 216.666992188 498 l 257,15,16
 263.666992188 518 263.666992188 518 315.666992188 518 c 257,17,18
 328.666992188 518 328.666992188 518 341.666992188 517 c 257,19,-1
 341.666992188 373 l 257,20,-1
 452.666992188 262 l 257,21,22
 565.666992188 354 565.666992188 354 569.666992188 355 c 257,23,-1
 569.666992188 202 l 257,24,25
 566.666992188 202 566.666992188 202 536.666992188 178 c 257,26,-1
 600.666992188 114 l 257,27,-1
 482.666992188 -4 l 257,28,-1
 406.666992188 73 l 257,29,30
 319.666992188 3 319.666992188 3 315.666992188 3 c 257,31,32
 208.666992188 3 208.666992188 3 133.166992188 78 c 128,-1,33
 57.6669921875 153 57.6669921875 153 57.6669921875 260 c 257,34,35
 57.6669921875 330 57.6669921875 330 92.6669921875 390 c 257,36,-1
 76.6669921875 406 l 257,37,38
 56.6669921875 442 56.6669921875 442 51.6669921875 480 c 128,-1,39
 46.6669921875 518 46.6669921875 518 56.6669921875 558.5 c 128,-1,40
 66.6669921875 599 66.6669921875 599 80.1669921875 633 c 128,-1,41
 93.6669921875 667 93.6669921875 667 117.666992188 712 c 257,42,43
 130.666992188 736 130.666992188 736 191.166992188 764 c 128,-1,44
 251.666992188 792 251.666992188 792 312.666992188 806 c 128,-1,45
 373.666992188 820 373.666992188 820 389.666992188 810 c 257,8,-1
EndSplineSet
EndChar

StartChar: asciicircum
Encoding: 94 94 511
GlifName: asciicircum
Width: 502
VWidth: 0
Flags: W
LayerCount: 2
Fore
SplineSet
50 283 m 257,0,-1
 193 617 l 257,1,-1
 194 617 l 257,2,-1
 345 617 l 257,3,-1
 346 617 l 257,4,-1
 452 283 l 257,5,-1
 300 283 l 257,6,-1
 258 497 l 257,7,-1
 202 283 l 257,8,-1
 50 283 l 257,0,-1
EndSplineSet
EndChar

StartChar: asciitilde
Encoding: 126 126 515
GlifName: asciitilde
Width: 599
VWidth: 0
Flags: W
LayerCount: 2
Fore
SplineSet
549 577 m 257,0,-1
 549 425 l 257,1,2
 548 421 548 421 532.5 403 c 128,-1,3
 517 385 517 385 485 364.5 c 128,-1,4
 453 344 453 344 421 344 c 257,5,-1
 321 344 l 257,6,7
 289 344 289 344 244.5 372 c 128,-1,8
 200 400 200 400 168 400 c 257,9,10
 145 400 145 400 115.5 386 c 128,-1,11
 86 372 86 372 68 358 c 257,12,-1
 50 344 l 257,13,-1
 50 496 l 257,14,15
 114 552 114 552 164 552 c 257,16,17
 197 552 197 552 244 524.5 c 128,-1,18
 291 497 291 497 324 497 c 257,19,20
 369 497 369 497 413 497 c 257,21,22
 444 497 444 497 478 517 c 128,-1,23
 512 537 512 537 530 557 c 257,24,-1
 549 577 l 257,0,-1
EndSplineSet
EndChar

StartChar: asterisk
Encoding: 42 42 519
GlifName: asterisk
Width: 644
VWidth: 0
Flags: W
LayerCount: 2
Fore
SplineSet
594 496 m 257,0,-1
 594 344 l 257,1,-1
 505 344 l 257,2,-1
 568 281 l 257,3,-1
 461 174 l 257,4,-1
 398 237 l 257,5,-1
 398 149 l 257,6,-1
 246 149 l 257,7,-1
 246 237 l 257,8,-1
 183 174 l 257,9,-1
 76 281 l 257,10,-1
 139 344 l 257,11,-1
 50 344 l 257,12,-1
 50 496 l 257,13,-1
 139 496 l 257,14,-1
 76 559 l 257,15,-1
 183 666 l 257,16,-1
 246 603 l 257,17,-1
 246 692 l 257,18,-1
 398 692 l 257,19,-1
 398 603 l 257,20,-1
 461 666 l 257,21,-1
 568 559 l 257,22,-1
 505 496 l 257,23,-1
 594 496 l 257,0,-1
EndSplineSet
EndChar

StartChar: at
Encoding: 64 64 523
GlifName: at
Width: 876
VWidth: 0
Flags: W
LayerCount: 2
Fore
SplineSet
567.5546875 236 m 257,0,-1
 567.5546875 236 l 257,0,-1
530.5546875 166 m 257,1,-1
 530.5546875 166 l 257,1,-1
493.5546875 228 m 257,2,-1
 479.5546875 239 l 257,3,4
 425.5546875 239 425.5546875 239 387.5546875 276.5 c 128,-1,5
 349.5546875 314 349.5546875 314 349.5546875 368 c 257,6,7
 349.5546875 421 349.5546875 421 387.5546875 456.5 c 128,-1,8
 425.5546875 492 425.5546875 492 479.5546875 492 c 257,9,-1
 491.5546875 492 l 257,10,-1
 567.5546875 492 l 257,11,-1
 574.5546875 318 l 257,12,13
 576.5546875 306 576.5546875 306 590.0546875 292 c 128,-1,14
 603.5546875 278 603.5546875 278 620.0546875 270.5 c 128,-1,15
 636.5546875 263 636.5546875 263 651.0546875 276 c 128,-1,16
 665.5546875 289 665.5546875 289 668.5546875 326 c 257,17,18
 668.5546875 327 668.5546875 327 666.5546875 334 c 128,-1,19
 664.5546875 341 664.5546875 341 664.5546875 342 c 257,20,21
 673.5546875 396 673.5546875 396 657.5546875 448.5 c 128,-1,22
 641.5546875 501 641.5546875 501 601.5546875 541 c 257,23,24
 533.5546875 608 533.5546875 608 438.0546875 606.5 c 128,-1,25
 342.5546875 605 342.5546875 605 274.5546875 537 c 257,26,27
 205.5546875 468 205.5546875 468 204.5546875 372.5 c 128,-1,28
 203.5546875 277 203.5546875 277 270.5546875 209 c 257,29,30
 322.5546875 157 322.5546875 157 394.5546875 146 c 128,-1,31
 466.5546875 135 466.5546875 135 530.5546875 166 c 257,32,33
 541.5546875 171 541.5546875 171 569.5546875 143 c 128,-1,34
 597.5546875 115 597.5546875 115 620.5546875 84 c 257,35,-1
 643.5546875 54 l 257,36,37
 530.5546875 -22 530.5546875 -22 393.5546875 -10.5 c 128,-1,38
 256.5546875 1 256.5546875 1 159.5546875 98 c 257,39,40
 47.5546875 210 47.5546875 210 50.0546875 371 c 128,-1,41
 52.5546875 532 52.5546875 532 167.5546875 647 c 128,-1,42
 282.5546875 762 282.5546875 762 443.0546875 764.5 c 128,-1,43
 603.5546875 767 603.5546875 767 715.5546875 655 c 257,44,45
 799.5546875 571 799.5546875 571 820.5546875 448 c 128,-1,46
 841.5546875 325 841.5546875 325 793.5546875 220 c 257,47,48
 771.5546875 207 771.5546875 207 749.5546875 199 c 128,-1,49
 727.5546875 191 727.5546875 191 703.0546875 189.5 c 128,-1,50
 678.5546875 188 678.5546875 188 661.5546875 187.5 c 128,-1,51
 644.5546875 187 644.5546875 187 617.5546875 193.5 c 128,-1,52
 590.5546875 200 590.5546875 200 578.0546875 203 c 128,-1,53
 565.5546875 206 565.5546875 206 534.0546875 215.5 c 128,-1,54
 502.5546875 225 502.5546875 225 493.5546875 228 c 257,2,-1
491.5546875 420 m 257,55,56
 487.5546875 421 487.5546875 421 479.5546875 421 c 257,57,58
 456.5546875 421 456.5546875 421 441.0546875 405.5 c 128,-1,59
 425.5546875 390 425.5546875 390 425.5546875 368 c 128,-1,60
 425.5546875 346 425.5546875 346 441.0546875 330 c 128,-1,61
 456.5546875 314 456.5546875 314 479.5546875 314 c 257,62,63
 483.5546875 314 483.5546875 314 491.5546875 316 c 257,64,-1
 491.5546875 420 l 257,55,56
EndSplineSet
EndChar

StartChar: b
Encoding: 98 98 531
GlifName: b
Width: 534
VWidth: 0
Flags: W
LayerCount: 2
Fore
SplineSet
202 157 m 257,0,1
 214 154 214 154 226 154 c 257,2,3
 271 154 271 154 302 185 c 128,-1,4
 333 216 333 216 333 260 c 257,5,6
 333 305 333 305 302 336 c 128,-1,7
 271 367 271 367 226 367 c 257,8,9
 214 367 214 367 202 364 c 257,10,-1
 202 157 l 257,0,1
202 780 m 257,11,-1
 202 517 l 257,12,13
 210 518 210 518 226 518 c 257,14,15
 333 518 333 518 408.5 442.5 c 128,-1,16
 484 367 484 367 484 260 c 128,-1,17
 484 153 484 153 408.5 78 c 128,-1,18
 333 3 333 3 226 3 c 257,19,20
 210 3 210 3 202 4 c 257,21,-1
 50 4 l 257,22,-1
 50 780 l 257,23,-1
 202 780 l 257,11,-1
EndSplineSet
EndChar

StartChar: backslash
Encoding: 92 92 535
GlifName: backslash
Width: 691
VWidth: 0
Flags: W
LayerCount: 2
Fore
SplineSet
156 818 m 257,0,-1
 641 -22 l 257,1,-1
 535 -83 l 257,2,-1
 50 757 l 257,3,-1
 156 818 l 257,0,-1
EndSplineSet
EndChar

StartChar: backslash.0
Encoding: 65937 -1 536
GlifName: backslash.0
Width: 691
VWidth: 0
Flags: W
LayerCount: 2
Fore
SplineSet
156 828 m 257,0,-1
 50 767 l 257,1,-1
 535 -73 l 257,2,-1
 641 -12 l 257,3,-1
 156 828 l 257,0,-1
EndSplineSet
EndChar

StartChar: bar
Encoding: 124 124 539
GlifName: bar
Width: 222
VWidth: 0
Flags: W
LayerCount: 2
Fore
SplineSet
50 871 m 257,0,-1
 172 871 l 257,1,-1
 172 -99 l 257,2,-1
 50 -99 l 257,3,-1
 50 871 l 257,0,-1
EndSplineSet
EndChar

StartChar: braceleft
Encoding: 123 123 543
GlifName: braceleft
Width: 372
VWidth: 0
Flags: W
LayerCount: 2
Fore
SplineSet
322 -85 m 257,0,1
 307 -92 307 -92 285 -92 c 257,2,3
 241 -92 241 -92 206.5 -50 c 128,-1,4
 172 -8 172 -8 160 58 c 257,5,-1
 159 228 l 257,6,-1
 50 358 l 257,7,-1
 159 485 l 257,8,-1
 160 655 l 257,9,10
 172 721 172 721 206.5 763 c 128,-1,11
 241 805 241 805 285 805 c 257,12,13
 307 805 307 805 322 798 c 257,14,-1
 322 663 l 257,15,16
 306 684 306 684 285 684 c 257,17,18
 261 684 261 684 244 654 c 257,19,-1
 245 470 l 257,20,-1
 163 369 l 257,21,-1
 244 228 l 257,22,-1
 244 58 l 257,23,24
 260 29 260 29 285 29 c 257,25,26
 306 29 306 29 322 50 c 257,27,-1
 322 -85 l 257,0,1
EndSplineSet
EndChar

StartChar: braceright
Encoding: 125 125 547
GlifName: braceright
Width: 372
VWidth: 0
Flags: W
LayerCount: 2
Fore
SplineSet
50 -85 m 257,0,-1
 50 50 l 257,1,2
 66 29 66 29 87 29 c 257,3,4
 112 29 112 29 128 58 c 257,5,-1
 128 228 l 257,6,-1
 209 369 l 257,7,-1
 127 470 l 257,8,-1
 128 654 l 257,9,10
 111 684 111 684 87 684 c 257,11,12
 66 684 66 684 50 663 c 257,13,-1
 50 798 l 257,14,15
 65 805 65 805 87 805 c 257,16,17
 131 805 131 805 165.5 763 c 128,-1,18
 200 721 200 721 212 655 c 257,19,-1
 213 485 l 257,20,-1
 322 358 l 257,21,-1
 213 228 l 257,22,-1
 212 58 l 257,23,24
 200 -8 200 -8 165.5 -50 c 128,-1,25
 131 -92 131 -92 87 -92 c 257,26,27
 65 -92 65 -92 50 -85 c 257,0,-1
EndSplineSet
EndChar

StartChar: bracketleft
Encoding: 91 91 551
GlifName: bracketleft
Width: 362
VWidth: 0
Flags: W
LayerCount: 2
Fore
SplineSet
51 -80 m 257,0,-1
 50 -80 l 257,1,-1
 50 -79 l 257,2,-1
 50 773 l 257,3,-1
 50 774 l 257,4,-1
 51 774 l 257,5,-1
 312 774 l 257,6,-1
 311 689 l 257,7,-1
 144 689 l 257,8,-1
 144 5 l 257,9,-1
 311 5 l 257,10,-1
 312 -80 l 257,11,-1
 51 -80 l 257,0,-1
EndSplineSet
EndChar

StartChar: bracketright
Encoding: 93 93 555
GlifName: bracketright
Width: 362
VWidth: 0
Flags: W
LayerCount: 2
Fore
SplineSet
311 -81 m 257,0,-1
 50 -81 l 257,1,-1
 51 4 l 257,2,-1
 218 4 l 257,3,-1
 218 689 l 257,4,-1
 51 689 l 257,5,-1
 50 774 l 257,6,-1
 311 774 l 257,7,-1
 312 774 l 257,8,-1
 312 773 l 257,9,-1
 312 -80 l 257,10,-1
 312 -81 l 257,11,-1
 311 -81 l 257,0,-1
EndSplineSet
EndChar

StartChar: brokenbar
Encoding: 166 166 563
GlifName: brokenbar
Width: 252
VWidth: 0
Flags: W
LayerCount: 2
Fore
SplineSet
202 833 m 257,0,-1
 202 459 l 257,1,-1
 50 459 l 257,2,-1
 50 833 l 257,3,-1
 202 833 l 257,0,-1
202 370 m 257,4,-1
 202 -30 l 257,5,-1
 50 -30 l 257,6,-1
 50 370 l 257,7,-1
 202 370 l 257,4,-1
EndSplineSet
EndChar

StartChar: c
Encoding: 99 99 567
GlifName: c
Width: 384
VWidth: 0
Flags: W
LayerCount: 2
Fore
SplineSet
334 4 m 257,0,1
 321 3 321 3 308 3 c 257,2,3
 201 3 201 3 125.5 78 c 128,-1,4
 50 153 50 153 50 260 c 128,-1,5
 50 367 50 367 125.5 442.5 c 128,-1,6
 201 518 201 518 308 518 c 257,7,8
 321 518 321 518 334 517 c 257,9,-1
 334 364 l 257,10,11
 321 367 321 367 308 367 c 257,12,13
 263 367 263 367 232 336 c 128,-1,14
 201 305 201 305 201 260 c 257,15,16
 201 216 201 216 232 185 c 128,-1,17
 263 154 263 154 308 154 c 257,18,19
 321 154 321 154 334 157 c 257,20,-1
 334 4 l 257,0,1
EndSplineSet
EndChar

StartChar: cent
Encoding: 162 162 599
GlifName: cent
Width: 384
VWidth: 0
Flags: W
LayerCount: 2
Fore
SplineSet
334 4 m 257,0,1
 321 3 321 3 308 3 c 257,2,3
 296 3 296 3 285 4 c 257,4,-1
 285 -99 l 257,5,-1
 238 -99 l 257,6,-1
 238 13 l 257,7,8
 156 35 156 35 103 103.5 c 128,-1,9
 50 172 50 172 50 260 c 257,10,11
 50 348 50 348 103 416.5 c 128,-1,12
 156 485 156 485 238 508 c 257,13,-1
 238 700 l 257,14,-1
 285 700 l 257,15,-1
 285 517 l 257,16,17
 296 518 296 518 308 518 c 257,18,19
 321 518 321 518 334 517 c 257,20,-1
 334 364 l 257,21,22
 321 367 321 367 308 367 c 257,23,24
 296 367 296 367 285 365 c 257,25,-1
 285 156 l 257,26,27
 296 154 296 154 308 154 c 257,28,29
 321 154 321 154 334 157 c 257,30,-1
 334 4 l 257,0,1
238 342 m 257,31,32
 201 310 201 310 201 260 c 257,33,34
 201 211 201 211 238 179 c 257,35,-1
 238 342 l 257,31,32
EndSplineSet
EndChar

StartChar: colon
Encoding: 58 58 607
GlifName: colon
Width: 252
VWidth: 0
Flags: W
LayerCount: 2
Fore
SplineSet
50 -2 m 257,0,-1
 50 140 l 257,1,-1
 202 140 l 257,2,-1
 202 -2 l 257,3,-1
 50 -2 l 257,0,-1
50 398 m 257,4,-1
 50 540 l 257,5,-1
 202 540 l 257,6,-1
 202 398 l 257,7,-1
 50 398 l 257,4,-1
EndSplineSet
EndChar

StartChar: comma
Encoding: 44 44 611
GlifName: comma
Width: 252
VWidth: 0
Flags: W
LayerCount: 2
Fore
SplineSet
50 -2 m 257,0,-1
 50 140 l 257,1,-1
 202 140 l 257,2,-1
 202 -2 l 257,3,-1
 142 -134 l 257,4,-1
 84 -130 l 257,5,-1
 93 -2 l 257,6,-1
 50 -2 l 257,0,-1
EndSplineSet
EndChar

StartChar: copyright
Encoding: 169 169 615
GlifName: copyright
Width: 796
VWidth: 0
Flags: W
LayerCount: 2
Fore
SplineSet
691 378 m 257,0,1
 691 502 691 502 605.5 590 c 128,-1,2
 520 678 520 678 398 678 c 128,-1,3
 276 678 276 678 190.5 590 c 128,-1,4
 105 502 105 502 105 378 c 257,5,6
 105 253 105 253 190.5 165 c 128,-1,7
 276 77 276 77 398 77 c 128,-1,8
 520 77 520 77 605.5 165 c 128,-1,9
 691 253 691 253 691 378 c 257,0,1
746 380 m 257,10,11
 746 282 746 282 699.5 199.5 c 128,-1,12
 653 117 653 117 573 69 c 128,-1,13
 493 21 493 21 398 21 c 128,-1,14
 303 21 303 21 223 69 c 128,-1,15
 143 117 143 117 96.5 199.5 c 128,-1,16
 50 282 50 282 50 380 c 257,17,18
 50 477 50 477 96.5 559.5 c 128,-1,19
 143 642 143 642 223 690 c 128,-1,20
 303 738 303 738 398 738 c 128,-1,21
 493 738 493 738 573 690 c 128,-1,22
 653 642 653 642 699.5 559.5 c 128,-1,23
 746 477 746 477 746 380 c 257,10,11
459 196 m 257,24,25
 451 195 451 195 443 195 c 257,26,27
 376 195 376 195 329 242 c 128,-1,28
 282 289 282 289 282 355 c 257,29,30
 282 422 282 422 329 469.5 c 128,-1,31
 376 517 376 517 443 517 c 257,32,33
 451 517 451 517 459 516 c 257,34,-1
 459 420 l 257,35,36
 451 422 451 422 443 422 c 257,37,38
 415 422 415 422 395.5 403 c 128,-1,39
 376 384 376 384 376 355 c 257,40,41
 376 328 376 328 395.5 308.5 c 128,-1,42
 415 289 415 289 443 289 c 257,43,44
 451 289 451 289 459 291 c 257,45,-1
 459 196 l 257,24,25
EndSplineSet
EndChar

StartChar: d
Encoding: 100 100 619
GlifName: d
Width: 534
VWidth: 0
Flags: W
LayerCount: 2
Fore
SplineSet
332 157 m 257,0,-1
 332 364 l 257,1,2
 320 367 320 367 308 367 c 257,3,4
 263 367 263 367 232 336 c 128,-1,5
 201 305 201 305 201 260 c 257,6,7
 201 216 201 216 232 185 c 128,-1,8
 263 154 263 154 308 154 c 257,9,10
 320 154 320 154 332 157 c 257,0,-1
332 780 m 257,11,-1
 484 780 l 257,12,-1
 484 4 l 257,13,-1
 332 4 l 257,14,15
 320 3 320 3 308 3 c 257,16,17
 201 3 201 3 125.5 78 c 128,-1,18
 50 153 50 153 50 260 c 128,-1,19
 50 367 50 367 125.5 442.5 c 128,-1,20
 201 518 201 518 308 518 c 257,21,22
 320 518 320 518 332 517 c 257,23,-1
 332 780 l 257,11,-1
EndSplineSet
EndChar

StartChar: dcaron
Encoding: 271 271 623
GlifName: dcaron
Width: 718
VWidth: 0
Flags: W
LayerCount: 2
Fore
SplineSet
332 157 m 257,0,-1
 332 364 l 257,1,2
 320 367 320 367 308 367 c 257,3,4
 263 367 263 367 232 336 c 128,-1,5
 201 305 201 305 201 260 c 257,6,7
 201 216 201 216 232 185 c 128,-1,8
 263 154 263 154 308 154 c 257,9,10
 320 154 320 154 332 157 c 257,0,-1
332 780 m 257,11,-1
 484 780 l 257,12,-1
 484 4 l 257,13,-1
 332 4 l 257,14,15
 320 3 320 3 308 3 c 257,16,17
 201 3 201 3 125.5 78 c 128,-1,18
 50 153 50 153 50 260 c 128,-1,19
 50 367 50 367 125.5 442.5 c 128,-1,20
 201 518 201 518 308 518 c 257,21,22
 320 518 320 518 332 517 c 257,23,-1
 332 780 l 257,11,-1
516 532 m 257,24,-1
 516 789 l 257,25,-1
 668 789 l 257,26,-1
 623 532 l 257,27,-1
 516 532 l 257,24,-1
EndSplineSet
EndChar

StartChar: dcroat
Encoding: 273 273 627
GlifName: dcroat
Width: 585
VWidth: 0
Flags: W
LayerCount: 2
Fore
SplineSet
332 157 m 257,0,-1
 332 364 l 257,1,2
 320 367 320 367 308 367 c 257,3,4
 263 367 263 367 232 336 c 128,-1,5
 201 305 201 305 201 260 c 257,6,7
 201 216 201 216 232 185 c 128,-1,8
 263 154 263 154 308 154 c 257,9,10
 320 154 320 154 332 157 c 257,0,-1
332 780 m 257,11,-1
 484 780 l 257,12,-1
 484 739 l 257,13,-1
 535 739 l 257,14,-1
 535 587 l 257,15,-1
 484 587 l 257,16,-1
 484 4 l 257,17,-1
 332 4 l 257,18,19
 320 3 320 3 308 3 c 257,20,21
 201 3 201 3 125.5 78 c 128,-1,22
 50 153 50 153 50 260 c 128,-1,23
 50 367 50 367 125.5 442.5 c 128,-1,24
 201 518 201 518 308 518 c 257,25,26
 320 518 320 518 332 517 c 257,27,-1
 332 587 l 257,28,-1
 264 587 l 257,29,-1
 264 739 l 257,30,-1
 332 739 l 257,31,-1
 332 780 l 257,11,-1
EndSplineSet
EndChar

StartChar: dieresis
Encoding: 168 168 635
GlifName: dieresis
Width: 452
VWidth: 0
Flags: W
LayerCount: 2
Fore
SplineSet
50 -2 m 257,0,-1
 50 140 l 257,1,-1
 202 140 l 257,2,-1
 202 -2 l 257,3,-1
 50 -2 l 257,0,-1
250 -2 m 257,4,-1
 250 140 l 257,5,-1
 402 140 l 257,6,-1
 402 -2 l 257,7,-1
 250 -2 l 257,4,-1
EndSplineSet
EndChar

StartChar: divide
Encoding: 247 247 639
GlifName: divide
Width: 644
VWidth: 0
Flags: W
LayerCount: 2
Fore
SplineSet
250 151 m 257,0,-1
 250 293 l 257,1,-1
 402 293 l 257,2,-1
 402 151 l 257,3,-1
 250 151 l 257,0,-1
250 551 m 257,4,-1
 250 693 l 257,5,-1
 402 693 l 257,6,-1
 402 551 l 257,7,-1
 250 551 l 257,4,-1
594 496 m 257,8,-1
 594 344 l 257,9,-1
 50 344 l 257,10,-1
 50 496 l 257,11,-1
 594 496 l 257,8,-1
EndSplineSet
EndChar

StartChar: dollar
Encoding: 36 36 643
GlifName: dollar
Width: 519
VWidth: 0
Flags: W
LayerCount: 2
Fore
SplineSet
243 586 m 257,0,1
 234 577 234 577 227 565 c 257,2,3
 202 524 202 524 222 475 c 257,4,5
 231 456 231 456 243 443 c 257,6,-1
 243 586 l 257,0,1
50 57 m 257,7,-1
 125 182 l 257,8,9
 133 176 133 176 147 167 c 257,10,11
 185 145 185 145 228 155 c 257,12,13
 236 157 236 157 243 160 c 257,14,-1
 243 310 l 257,15,16
 233 313 233 313 222 315 c 257,17,18
 173 342 173 342 137 375 c 128,-1,19
 101 408 101 408 80 449 c 128,-1,20
 59 490 59 490 62 539 c 128,-1,21
 65 588 65 588 96 639 c 257,22,23
 147 723 147 723 243 758 c 257,24,-1
 243 1030 l 257,25,-1
 322 1030 l 257,26,-1
 322 774 l 257,27,28
 393 777 393 777 448 727 c 257,29,30
 451 724 451 724 458.5 719.5 c 128,-1,31
 466 715 466 715 469 712 c 257,32,-1
 394 587 l 257,33,34
 382 597 382 597 372 602 c 257,35,36
 348 615 348 615 322 616 c 257,37,-1
 322 401 l 257,38,39
 351 383 351 383 373 366 c 257,40,41
 406 339 406 339 430.5 304 c 128,-1,42
 455 269 455 269 453.5 225 c 128,-1,43
 452 181 452 181 422 130 c 257,44,45
 387 71 387 71 322 32 c 257,46,-1
 322 -182 l 257,47,-1
 243 -182 l 257,48,-1
 243 0 l 257,49,50
 217 -6 217 -6 192 -6 c 257,51,52
 125 -7 125 -7 71 42 c 257,53,54
 68 45 68 45 60.5 49.5 c 128,-1,55
 53 54 53 54 50 57 c 257,7,-1
EndSplineSet
EndChar

StartChar: dotbelowcomb
Encoding: 803 803 651
GlifName: dotbelowcomb
Width: 252
VWidth: 0
Flags: W
LayerCount: 2
Fore
SplineSet
50 -2 m 257,0,-1
 50 140 l 257,1,-1
 202 140 l 257,2,-1
 202 -2 l 257,3,-1
 50 -2 l 257,0,-1
EndSplineSet
EndChar

StartChar: dotlessi
Encoding: 305 305 655
GlifName: dotlessi
Width: 252
VWidth: 0
Flags: W
LayerCount: 2
Fore
SplineSet
50 512 m 257,0,-1
 202 512 l 257,1,-1
 202 -2 l 257,2,-1
 50 -2 l 257,3,-1
 50 512 l 257,0,-1
EndSplineSet
EndChar

StartChar: e
Encoding: 101 101 659
GlifName: e
Width: 617
VWidth: 0
Flags: W
LayerCount: 2
Fore
SplineSet
211 297 m 257,0,-1
 407 294 l 257,1,2
 403 298 403 298 387 317 c 128,-1,3
 371 336 371 336 362 345.5 c 128,-1,4
 353 355 353 355 337.5 365 c 128,-1,5
 322 375 322 375 308 375 c 257,6,7
 294 375 294 375 279 365.5 c 128,-1,8
 264 356 264 356 254.5 346 c 128,-1,9
 245 336 245 336 230 319 c 128,-1,10
 215 302 215 302 211 297 c 257,0,-1
566 260 m 257,11,12
 566 250 566 250 566.5 232.5 c 128,-1,13
 567 215 567 215 567 208 c 257,14,-1
 216 205 l 257,15,16
 230 182 230 182 254.5 168 c 128,-1,17
 279 154 279 154 308 154 c 257,18,19
 342 154 342 154 445.5 156.5 c 128,-1,20
 549 159 549 159 557 162 c 257,21,-1
 557 6 l 257,22,23
 538 3 538 3 308 3 c 257,24,25
 201 3 201 3 125.5 78 c 128,-1,26
 50 153 50 153 50 260 c 128,-1,27
 50 367 50 367 125.5 442.5 c 128,-1,28
 201 518 201 518 308 518 c 128,-1,29
 415 518 415 518 490.5 442.5 c 128,-1,30
 566 367 566 367 566 260 c 257,11,12
EndSplineSet
EndChar

StartChar: eight
Encoding: 56 56 691
GlifName: eight
Width: 558
VWidth: 0
Flags: W
LayerCount: 2
Fore
SplineSet
278 3 m 257,0,-1
 277 3 l 257,1,2
 276 3 276 3 274 3 c 257,3,4
 267 3 267 3 262 4 c 257,5,6
 172 10 172 10 111 75 c 128,-1,7
 50 140 50 140 50 229 c 257,8,9
 50 304 50 304 94 364 c 257,10,11
 50 423 50 423 50 498 c 257,12,13
 50 588 50 588 111 653 c 128,-1,14
 172 718 172 718 262 724 c 257,15,16
 267 725 267 725 274 725 c 257,17,18
 276 725 276 725 277 725 c 257,19,-1
 278 725 l 257,20,21
 279 725 279 725 281 725 c 257,22,23
 375 725 375 725 441.5 658.5 c 128,-1,24
 508 592 508 592 508 498 c 257,25,26
 508 423 508 423 464 364 c 257,27,28
 508 304 508 304 508 229 c 257,29,30
 508 136 508 136 441.5 69.5 c 128,-1,31
 375 3 375 3 281 3 c 257,32,33
 280 3 280 3 279 3 c 2,34,-1
 278 3 l 257,0,-1
279 592 m 257,35,36
 268 592 268 592 258 589 c 257,37,-1
 258 590 l 257,38,39
 225 583 225 583 204 557.5 c 128,-1,40
 183 532 183 532 183 498 c 257,41,42
 183 464 183 464 204 438.5 c 128,-1,43
 225 413 225 413 258 406 c 257,44,-1
 258 407 l 257,45,46
 268 405 268 405 279 404 c 257,47,48
 290 405 290 405 300 407 c 257,49,-1
 300 406 l 257,50,51
 333 413 333 413 354 438.5 c 128,-1,52
 375 464 375 464 375 498 c 257,53,54
 375 532 375 532 354 557.5 c 128,-1,55
 333 583 333 583 300 590 c 257,56,-1
 300 589 l 257,57,58
 290 592 290 592 279 592 c 257,35,36
279 324 m 257,59,60
 268 323 268 323 258 321 c 257,61,-1
 258 322 l 257,62,63
 225 315 225 315 204 289.5 c 128,-1,64
 183 264 183 264 183 229 c 257,65,66
 183 196 183 196 204 170.5 c 128,-1,67
 225 145 225 145 258 138 c 257,68,-1
 258 139 l 257,69,70
 268 136 268 136 279 136 c 257,71,72
 290 136 290 136 300 139 c 257,73,-1
 300 138 l 257,74,75
 333 145 333 145 354 170.5 c 128,-1,76
 375 196 375 196 375 229 c 257,77,78
 375 264 375 264 354 289.5 c 128,-1,79
 333 315 333 315 300 322 c 257,80,-1
 300 321 l 257,81,82
 290 323 290 323 279 324 c 257,59,60
EndSplineSet
EndChar

StartChar: equal
Encoding: 61 61 703
GlifName: equal
Width: 644
VWidth: 0
Flags: W
LayerCount: 2
Fore
SplineSet
594 546 m 257,0,-1
 594 394 l 257,1,-1
 50 394 l 257,2,-1
 50 546 l 257,3,-1
 594 546 l 257,0,-1
594 296 m 257,4,-1
 594 144 l 257,5,-1
 50 144 l 257,6,-1
 50 296 l 257,7,-1
 594 296 l 257,4,-1
EndSplineSet
EndChar

StartChar: eth
Encoding: 240 240 707
GlifName: eth
Width: 612
VWidth: 0
Flags: W
LayerCount: 2
Fore
SplineSet
135 780 m 257,0,-1
 287 780 l 257,1,2
 295 773 295 773 302 767 c 257,3,-1
 340 805 l 257,4,-1
 427 729 l 257,5,-1
 387 689 l 257,6,7
 434 641 434 641 468 594.5 c 128,-1,8
 502 548 502 548 529 483 c 128,-1,9
 556 418 556 418 561.5 349.5 c 128,-1,10
 567 281 567 281 549 191.5 c 128,-1,11
 531 102 531 102 484 4 c 257,12,-1
 332 4 l 257,13,14
 320 3 320 3 308 3 c 257,15,16
 201 3 201 3 125.5 78 c 128,-1,17
 50 153 50 153 50 260 c 128,-1,18
 50 367 50 367 125.5 442.5 c 128,-1,19
 201 518 201 518 308 518 c 257,20,21
 320 518 320 518 332 517 c 257,22,-1
 282 584 l 257,23,-1
 245 547 l 257,24,-1
 158 623 l 257,25,-1
 212 677 l 257,26,-1
 135 780 l 257,0,-1
310 367 m 257,27,28
 297 367 297 367 286 364 c 257,29,-1
 286 365 l 257,30,31
 249 357 249 357 225 328 c 128,-1,32
 201 299 201 299 201 260 c 257,33,34
 201 222 201 222 225 193 c 128,-1,35
 249 164 249 164 286 156 c 257,36,-1
 286 157 l 257,37,38
 297 154 297 154 310 154 c 257,39,40
 322 154 322 154 334 157 c 257,41,-1
 334 156 l 257,42,43
 371 164 371 164 395 193 c 128,-1,44
 419 222 419 222 419 260 c 257,45,46
 419 299 419 299 395 328 c 128,-1,47
 371 357 371 357 334 365 c 257,48,-1
 334 364 l 257,49,50
 322 367 322 367 310 367 c 257,27,28
EndSplineSet
EndChar

StartChar: exclam
Encoding: 33 33 711
GlifName: exclam
Width: 252
VWidth: 0
Flags: W
LayerCount: 2
Fore
SplineSet
50 -2 m 257,0,-1
 50 140 l 257,1,-1
 202 140 l 257,2,-1
 202 -2 l 257,3,-1
 50 -2 l 257,0,-1
50 258 m 257,4,-1
 50 772 l 257,5,-1
 202 772 l 257,6,-1
 202 258 l 257,7,-1
 50 258 l 257,4,-1
EndSplineSet
EndChar

StartChar: exclamdown
Encoding: 161 161 715
GlifName: exclamdown
Width: 252
VWidth: 0
Flags: W
LayerCount: 2
Fore
SplineSet
202 772 m 257,0,-1
 202 630 l 257,1,-1
 50 630 l 257,2,-1
 50 772 l 257,3,-1
 202 772 l 257,0,-1
202 512 m 257,4,-1
 202 -2 l 257,5,-1
 50 -2 l 257,6,-1
 50 512 l 257,7,-1
 202 512 l 257,4,-1
EndSplineSet
EndChar

StartChar: f
Encoding: 102 102 719
GlifName: f
Width: 514
VWidth: 0
Flags: W
LayerCount: 2
Fore
SplineSet
464 752 m 257,0,-1
 464 584 l 257,1,2
 433 610 433 610 393 610 c 257,3,4
 344 610 344 610 312 573 c 257,5,-1
 312 511 l 257,6,-1
 409 511 l 257,7,-1
 409 359 l 257,8,-1
 312 359 l 257,9,-1
 312 -3 l 257,10,-1
 145 -3 l 257,11,-1
 147 359 l 257,12,-1
 50 359 l 257,13,-1
 50 511 l 257,14,-1
 148 511 l 257,15,-1
 148 574 l 257,16,17
 172 657 172 657 239 709 c 128,-1,18
 306 761 306 761 393 761 c 257,19,20
 430 761 430 761 464 752 c 257,0,-1
EndSplineSet
EndChar

StartChar: five
Encoding: 53 53 723
GlifName: five
Width: 418
VWidth: 0
Flags: W
LayerCount: 2
Fore
SplineSet
50 4 m 257,0,-1
 50 157 l 257,1,2
 62 154 62 154 76 154 c 257,3,4
 121 154 121 154 152 185 c 128,-1,5
 183 216 183 216 183 260 c 257,6,7
 183 305 183 305 152 336 c 128,-1,8
 121 367 121 367 76 367 c 257,9,10
 62 367 62 367 50 364 c 257,11,-1
 50 397 l 257,12,-1
 50 517 l 257,13,-1
 50 773 l 257,14,-1
 51 773 l 257,15,-1
 51 774 l 257,16,-1
 368 774 l 257,17,-1
 367 622 l 257,18,-1
 202 622 l 257,19,-1
 202 485 l 257,20,21
 262 451 262 451 298 391.5 c 128,-1,22
 334 332 334 332 334 260 c 257,23,24
 334 153 334 153 258.5 78 c 128,-1,25
 183 3 183 3 76 3 c 257,26,27
 59 3 59 3 50 4 c 257,0,-1
EndSplineSet
EndChar

StartChar: four
Encoding: 52 52 727
GlifName: four
Width: 565
VWidth: 0
Flags: W
LayerCount: 2
Fore
SplineSet
378 341 m 257,0,-1
 378 521 l 257,1,-1
 280 344 l 257,2,-1
 378 341 l 257,0,-1
386 0 m 257,3,-1
 386 192 l 257,4,-1
 385 191 l 257,5,-1
 50 191 l 257,6,-1
 372 774 l 257,7,-1
 515 774 l 257,8,-1
 515 0 l 257,9,-1
 386 0 l 257,3,-1
EndSplineSet
EndChar

StartChar: g
Encoding: 103 103 731
GlifName: g
Width: 620
VWidth: 0
Flags: W
LayerCount: 2
Fore
SplineSet
309 3 m 257,0,-1
 308 3 l 257,1,2
 306 3 306 3 304 3 c 257,3,-1
 300 3 l 257,4,5
 263 3 263 3 259 4 c 257,6,7
 161 11 161 11 105.5 82.5 c 128,-1,8
 50 154 50 154 50 260 c 257,9,10
 50 362 50 362 119.5 436.5 c 128,-1,11
 189 511 189 511 290 517 c 257,12,13
 296 518 296 518 304 518 c 257,14,15
 306 518 306 518 308 518 c 257,16,-1
 309 518 l 257,17,18
 310 518 310 518 312 518 c 257,19,20
 419 518 419 518 494.5 443 c 128,-1,21
 570 368 570 368 570 261 c 257,22,-1
 570 260 l 257,23,24
 570 257 570 257 570 253 c 257,25,-1
 567 -18 l 257,26,27
 543 -101 543 -101 477.5 -153 c 128,-1,28
 412 -205 412 -205 325 -205 c 257,29,30
 154 -205 154 -205 120 -196 c 257,31,-1
 120 -28 l 257,32,33
 132 -38 132 -38 211 -46 c 128,-1,34
 290 -54 290 -54 325 -54 c 257,35,36
 351 -54 351 -54 377.5 -44 c 128,-1,37
 404 -34 404 -34 419 -17 c 257,38,-1
 419 26 l 257,39,40
 368 3 368 3 312 3 c 257,41,42
 311 3 311 3 310 3 c 2,43,-1
 309 3 l 257,0,-1
310 367 m 257,44,45
 297 367 297 367 286 364 c 257,46,-1
 286 365 l 257,47,48
 249 357 249 357 225 328 c 128,-1,49
 201 299 201 299 201 260 c 257,50,51
 201 222 201 222 225 193 c 128,-1,52
 249 164 249 164 286 156 c 257,53,-1
 286 157 l 257,54,55
 297 154 297 154 310 154 c 257,56,57
 322 154 322 154 334 157 c 257,58,-1
 334 156 l 257,59,60
 371 164 371 164 395 193 c 128,-1,61
 419 222 419 222 419 260 c 257,62,63
 419 299 419 299 395 328 c 128,-1,64
 371 357 371 357 334 365 c 257,65,-1
 334 364 l 257,66,67
 322 367 322 367 310 367 c 257,44,45
EndSplineSet
EndChar

StartChar: germandbls
Encoding: 223 223 747
GlifName: germandbls
Width: 836
VWidth: 0
Flags: W
LayerCount: 2
Fore
SplineSet
283 47 m 257,0,-1
 350 159 l 257,1,2
 357 152 357 152 372 147 c 257,3,4
 412 130 412 130 443.5 134 c 128,-1,5
 475 138 475 138 495 162 c 257,6,7
 518 189 518 189 473 201 c 257,8,9
 461 204 461 204 419 211 c 257,10,11
 353 237 353 237 313 271.5 c 128,-1,12
 273 306 273 306 265 348 c 128,-1,13
 257 390 257 390 295 434 c 257,14,15
 303 444 303 444 320 466 c 128,-1,16
 337 488 337 488 346 498.5 c 128,-1,17
 355 509 355 509 371.5 525.5 c 128,-1,18
 388 542 388 542 402 548.5 c 128,-1,19
 416 555 416 555 435.5 560.5 c 128,-1,20
 455 566 455 566 477.5 562.5 c 128,-1,21
 500 559 500 559 526 549 c 257,22,23
 527 549 527 549 528 549 c 257,24,25
 573 549 573 549 604 580 c 128,-1,26
 635 611 635 611 635 656 c 257,27,28
 635 686 635 686 539.5 702 c 128,-1,29
 444 718 444 718 341 712.5 c 128,-1,30
 238 707 238 707 217 683 c 257,31,-1
 217 2 l 257,32,-1
 50 2 l 257,33,-1
 53 684 l 257,34,35
 77 767 77 767 144 819 c 257,36,37
 185 851 185 851 264 863.5 c 128,-1,38
 343 876 343 876 431 866 c 128,-1,39
 519 856 519 856 599.5 831.5 c 128,-1,40
 680 807 680 807 733 760 c 128,-1,41
 786 713 786 713 786 656 c 257,42,43
 786 579 786 579 774.5 532 c 128,-1,44
 763 485 763 485 743 466 c 128,-1,45
 723 447 723 447 698 442 c 128,-1,46
 673 437 673 437 642.5 440.5 c 128,-1,47
 612 444 612 444 583 446 c 128,-1,48
 554 448 554 448 523 437.5 c 128,-1,49
 492 427 492 427 470 400 c 257,50,51
 454 382 454 382 449.5 355 c 128,-1,52
 445 328 445 328 458 304 c 128,-1,53
 471 280 471 280 501 275 c 257,54,55
 540 258 540 258 569 243.5 c 128,-1,56
 598 229 598 229 624.5 209 c 128,-1,57
 651 189 651 189 662.5 169.5 c 128,-1,58
 674 150 674 150 671.5 125.5 c 128,-1,59
 669 101 669 101 647 75 c 257,60,61
 600 18 600 18 500 5.5 c 128,-1,62
 400 -7 400 -7 305 34 c 257,63,64
 297 36 297 36 283 47 c 257,0,-1
EndSplineSet
EndChar

StartChar: grave
Encoding: 96 96 751
GlifName: grave
Width: 390
VWidth: 0
Flags: W
LayerCount: 2
Fore
SplineSet
232 516 m 257,0,-1
 50 698 l 257,1,-1
 158 805 l 257,2,-1
 340 623 l 257,3,-1
 232 516 l 257,0,-1
EndSplineSet
EndChar

StartChar: gravecomb
Encoding: 768 768 755
GlifName: gravecomb
Width: 0
VWidth: 0
Flags: W
LayerCount: 2
Fore
SplineSet
37 516 m 257,0,-1
 -145 698 l 257,1,-1
 -37 805 l 257,2,-1
 145 623 l 257,3,-1
 37 516 l 257,0,-1
EndSplineSet
EndChar

StartChar: greater
Encoding: 62 62 759
GlifName: greater
Width: 644
VWidth: 0
Flags: W
LayerCount: 2
Fore
SplineSet
50 546 m 257,0,-1
 594 403 l 257,1,-1
 594 402 l 257,2,-1
 594 251 l 257,3,-1
 594 250 l 257,4,-1
 50 144 l 257,5,-1
 50 296 l 257,6,-1
 264 338 l 257,7,-1
 50 394 l 257,8,-1
 50 546 l 257,0,-1
EndSplineSet
EndChar

StartChar: guillemotleft
Encoding: 171 171 763
GlifName: guillemotleft
Width: 1244
VWidth: 0
Flags: W
LayerCount: 2
Fore
SplineSet
594 663 m 257,0,-1
 594 511 l 257,1,-1
 188 338 l 257,2,-1
 594 158 l 257,3,-1
 594 6 l 257,4,-1
 50 250 l 257,5,-1
 50 251 l 257,6,-1
 50 402 l 257,7,-1
 50 403 l 257,8,-1
 594 663 l 257,0,-1
1194 663 m 257,9,-1
 1194 511 l 257,10,-1
 788 338 l 257,11,-1
 1194 158 l 257,12,-1
 1194 6 l 257,13,-1
 650 250 l 257,14,-1
 650 251 l 257,15,-1
 650 402 l 257,16,-1
 650 403 l 257,17,-1
 1194 663 l 257,9,-1
EndSplineSet
EndChar

StartChar: guillemotright
Encoding: 187 187 767
GlifName: guillemotright
Width: 1244
VWidth: 0
Flags: W
LayerCount: 2
Fore
SplineSet
650 663 m 257,0,-1
 1194 403 l 257,1,-1
 1194 402 l 257,2,-1
 1194 251 l 257,3,-1
 1194 250 l 257,4,-1
 650 6 l 257,5,-1
 650 158 l 257,6,-1
 1056 338 l 257,7,-1
 650 511 l 257,8,-1
 650 663 l 257,0,-1
50 663 m 257,9,-1
 594 403 l 257,10,-1
 594 402 l 257,11,-1
 594 251 l 257,12,-1
 594 250 l 257,13,-1
 50 6 l 257,14,-1
 50 158 l 257,15,-1
 456 338 l 257,16,-1
 50 511 l 257,17,-1
 50 663 l 257,9,-1
EndSplineSet
EndChar

StartChar: h
Encoding: 104 104 771
GlifName: h
Width: 597
VWidth: 0
Flags: W
LayerCount: 2
Fore
SplineSet
50 768 m 257,0,-1
 219 768 l 257,1,-1
 219 512 l 257,2,3
 258 524 258 524 299 524 c 257,4,5
 386 524 386 524 453 472 c 128,-1,6
 520 420 520 420 544 337 c 257,7,-1
 547 6 l 257,8,-1
 380 6 l 257,9,-1
 380 336 l 257,10,11
 348 373 348 373 299 373 c 257,12,13
 251 373 251 373 219 338 c 257,14,-1
 219 6 l 257,15,-1
 50 6 l 257,16,-1
 50 768 l 257,0,-1
EndSplineSet
EndChar

StartChar: hbar
Encoding: 295 295 775
GlifName: hbar
Width: 658
VWidth: 0
Flags: W
LayerCount: 2
Fore
SplineSet
338 731 m 257,0,-1
 338 579 l 257,1,-1
 280 579 l 257,2,-1
 280 512 l 257,3,4
 319 524 319 524 360 524 c 257,5,6
 447 524 447 524 514 472 c 128,-1,7
 581 420 581 420 605 337 c 257,8,-1
 608 6 l 257,9,-1
 441 6 l 257,10,-1
 441 336 l 257,11,12
 409 373 409 373 360 373 c 257,13,14
 312 373 312 373 280 338 c 257,15,-1
 280 6 l 257,16,-1
 111 6 l 257,17,-1
 111 579 l 257,18,-1
 50 579 l 257,19,-1
 50 731 l 257,20,-1
 111 731 l 257,21,-1
 111 768 l 257,22,-1
 280 768 l 257,23,-1
 280 731 l 257,24,-1
 338 731 l 257,0,-1
EndSplineSet
EndChar

StartChar: hookabovecomb
Encoding: 777 777 783
GlifName: hookabovecomb
Width: 0
VWidth: 0
Flags: W
LayerCount: 2
Fore
SplineSet
-71 432 m 257,0,-1
 -71 509 l 257,1,2
 -63 507 -63 507 -58 507 c 257,3,4
 -35 507 -35 507 -19.5 522.5 c 128,-1,5
 -4 538 -4 538 -4 560 c 128,-1,6
 -4 582 -4 582 -20 598 c 128,-1,7
 -36 614 -36 614 -58 614 c 257,8,9
 -63 614 -63 614 -71 612 c 257,10,-1
 -71 689 l 257,11,-1
 -58 689 l 257,12,13
 -4 689 -4 689 33.5 651.5 c 128,-1,14
 71 614 71 614 71 560 c 257,15,16
 71 507 71 507 33.5 469.5 c 128,-1,17
 -4 432 -4 432 -58 432 c 257,18,-1
 -71 432 l 257,0,-1
EndSplineSet
EndChar

StartChar: hyphen
Encoding: 45 45 791
GlifName: hyphen
Width: 644
VWidth: 0
Flags: W
LayerCount: 2
Fore
SplineSet
594 496 m 257,0,-1
 594 344 l 257,1,-1
 50 344 l 257,2,-1
 50 496 l 257,3,-1
 594 496 l 257,0,-1
EndSplineSet
EndChar

StartChar: i
Encoding: 105 105 795
GlifName: i
Width: 252
VWidth: 0
Flags: W
LayerCount: 2
Fore
SplineSet
50 772 m 257,0,-1
 202 772 l 257,1,-1
 202 630 l 257,2,-1
 50 630 l 257,3,-1
 50 772 l 257,0,-1
50 512 m 257,4,-1
 202 512 l 257,5,-1
 202 -2 l 257,6,-1
 50 -2 l 257,7,-1
 50 512 l 257,4,-1
EndSplineSet
EndChar

StartChar: j
Encoding: 106 106 831
GlifName: j
Width: 419
VWidth: 0
Flags: W
LayerCount: 2
Fore
SplineSet
214 772 m 257,0,-1
 366 772 l 257,1,-1
 366 630 l 257,2,-1
 214 630 l 257,3,-1
 214 772 l 257,0,-1
50 -195 m 257,4,-1
 50 -27 l 257,5,6
 81 -53 81 -53 121 -53 c 257,7,8
 170 -53 170 -53 202 -16 c 257,9,-1
 202 517 l 257,10,-1
 369 517 l 257,11,-1
 366 -17 l 257,12,13
 342 -100 342 -100 275 -152 c 128,-1,14
 208 -204 208 -204 121 -204 c 257,15,16
 84 -204 84 -204 50 -195 c 257,4,-1
EndSplineSet
EndChar

StartChar: k
Encoding: 107 107 839
GlifName: k
Width: 688
VWidth: 0
Flags: W
LayerCount: 2
Fore
SplineSet
50 752 m 257,0,-1
 191 752 l 257,1,-1
 191 317 l 257,2,-1
 436 514 l 257,3,-1
 629 512 l 257,4,-1
 368 284 l 257,5,-1
 638 -3 l 257,6,-1
 452 -2 l 257,7,-1
 248 226 l 257,8,-1
 191 154 l 257,9,-1
 191 -2 l 257,10,-1
 50 -2 l 257,11,-1
 50 752 l 257,0,-1
EndSplineSet
EndChar

StartChar: l
Encoding: 108 108 843
GlifName: l
Width: 419
VWidth: 0
Flags: W
LayerCount: 2
Fore
SplineSet
369 6 m 257,0,1
 335 -3 335 -3 298 -3 c 257,2,3
 211 -3 211 -3 144 49 c 128,-1,4
 77 101 77 101 53 184 c 257,5,-1
 50 761 l 257,6,-1
 217 761 l 257,7,-1
 217 185 l 257,8,9
 249 148 249 148 298 148 c 257,10,11
 338 148 338 148 369 174 c 257,12,-1
 369 6 l 257,0,1
EndSplineSet
EndChar

StartChar: lcaron
Encoding: 318 318 851
GlifName: lcaron
Width: 462
VWidth: 0
Flags: W
LayerCount: 2
Fore
SplineSet
369 6 m 257,0,1
 335 -3 335 -3 298 -3 c 257,2,3
 211 -3 211 -3 144 49 c 128,-1,4
 77 101 77 101 53 184 c 257,5,-1
 50 761 l 257,6,-1
 217 761 l 257,7,-1
 217 185 l 257,8,9
 249 148 249 148 298 148 c 257,10,11
 338 148 338 148 369 174 c 257,12,-1
 369 6 l 257,0,1
260 504 m 257,13,-1
 260 761 l 257,14,-1
 412 761 l 257,15,-1
 367 504 l 257,16,-1
 260 504 l 257,13,-1
EndSplineSet
EndChar

StartChar: less
Encoding: 60 60 859
GlifName: less
Width: 644
VWidth: 0
Flags: W
LayerCount: 2
Fore
SplineSet
594 546 m 257,0,-1
 594 394 l 257,1,-1
 380 338 l 257,2,-1
 594 296 l 257,3,-1
 594 144 l 257,4,-1
 50 250 l 257,5,-1
 50 251 l 257,6,-1
 50 402 l 257,7,-1
 50 403 l 257,8,-1
 594 546 l 257,0,-1
EndSplineSet
EndChar

StartChar: lslash
Encoding: 322 322 863
GlifName: lslash
Width: 563
VWidth: 0
Flags: W
LayerCount: 2
Fore
SplineSet
78 308 m 29,0,-1
 78 428 l 29,1,-1
 497 616 l 29,2,-1
 497 500 l 29,3,-1
 78 308 l 29,0,-1
513 6 m 257,4,5
 479 -3 479 -3 442 -3 c 257,6,7
 355 -3 355 -3 288 49 c 128,-1,8
 221 101 221 101 197 184 c 257,9,-1
 194 761 l 257,10,-1
 361 761 l 257,11,-1
 361 185 l 257,12,13
 393 148 393 148 442 148 c 257,14,15
 482 148 482 148 513 174 c 257,16,-1
 513 6 l 257,4,5
EndSplineSet
EndChar

StartChar: m
Encoding: 109 109 866
GlifName: m
Width: 924
VWidth: 0
Flags: W
LayerCount: 2
Fore
SplineSet
50 522 m 257,0,-1
 219 522 l 257,1,-1
 219 512 l 257,2,3
 258 524 258 524 299 524 c 257,4,5
 389 524 389 524 458 468 c 257,6,-1
 546 512 l 257,7,8
 585 524 585 524 626 524 c 257,9,10
 713 524 713 524 780 472 c 128,-1,11
 847 420 847 420 871 337 c 257,12,-1
 874 6 l 257,13,-1
 707 6 l 257,14,-1
 707 336 l 257,15,16
 675 373 675 373 626 373 c 257,17,18
 578 373 578 373 546 338 c 257,19,-1
 546 116 l 257,20,-1
 547 6 l 257,21,-1
 546 6 l 257,22,-1
 380 6 l 257,23,-1
 377 6 l 257,24,-1
 380 323 l 257,25,-1
 380 336 l 257,26,27
 348 373 348 373 299 373 c 257,28,29
 251 373 251 373 219 338 c 257,30,-1
 219 6 l 257,31,-1
 50 6 l 257,32,-1
 50 522 l 257,0,-1
EndSplineSet
EndChar

StartChar: mu
Encoding: 181 181 874
GlifName: mu
Width: 597
VWidth: 0
Flags: W
LayerCount: 2
Fore
SplineSet
50 -189 m 257,0,-1
 50 524 l 257,1,-1
 219 524 l 257,2,-1
 219 192 l 257,3,4
 251 157 251 157 299 157 c 257,5,6
 348 157 348 157 380 194 c 257,7,-1
 380 524 l 257,8,-1
 547 524 l 257,9,-1
 544 193 l 257,10,11
 520 110 520 110 453 58 c 128,-1,12
 386 6 386 6 299 6 c 257,13,14
 258 6 258 6 219 18 c 257,15,-1
 219 -189 l 257,16,-1
 50 -189 l 257,0,-1
EndSplineSet
EndChar

StartChar: multiply
Encoding: 215 215 878
GlifName: multiply
Width: 724
VWidth: 0
Flags: W
LayerCount: 2
Fore
SplineSet
50 713 m 257,0,-1
 236 711 l 257,1,-1
 365 560 l 257,2,-1
 498 712 l 257,3,-1
 673 711 l 257,4,-1
 453 458 l 257,5,-1
 674 200 l 257,6,-1
 499 198 l 257,7,-1
 362 355 l 257,8,-1
 229 202 l 257,9,-1
 51 199 l 257,10,-1
 274 456 l 257,11,-1
 50 713 l 257,0,-1
EndSplineSet
EndChar

StartChar: n
Encoding: 110 110 882
GlifName: n
Width: 597
VWidth: 0
Flags: W
LayerCount: 2
Fore
SplineSet
50 522 m 257,0,-1
 219 522 l 257,1,-1
 219 512 l 257,2,3
 258 524 258 524 299 524 c 257,4,5
 386 524 386 524 453 472 c 128,-1,6
 520 420 520 420 544 337 c 257,7,-1
 547 6 l 257,8,-1
 380 6 l 257,9,-1
 380 336 l 257,10,11
 348 373 348 373 299 373 c 257,12,13
 251 373 251 373 219 338 c 257,14,-1
 219 6 l 257,15,-1
 50 6 l 257,16,-1
 50 522 l 257,0,-1
EndSplineSet
EndChar

StartChar: nine
Encoding: 57 57 894
GlifName: nine
Width: 709
VWidth: 0
Flags: W
LayerCount: 2
Fore
SplineSet
326 391 m 257,0,1
 337 391 337 391 350 394 c 257,2,-1
 350 393 l 257,3,4
 387 401 387 401 411 430 c 128,-1,5
 435 459 435 459 435 498 c 257,6,7
 435 552 435 552 391 584 c 257,8,9
 376 593 376 593 359 600 c 257,10,11
 354 601 354 601 350 602 c 257,12,-1
 350 601 l 257,13,14
 339 604 339 604 326 604 c 257,15,16
 314 604 314 604 302 601 c 257,17,-1
 302 602 l 257,18,19
 265 594 265 594 241 565 c 128,-1,20
 217 536 217 536 217 498 c 257,21,22
 217 459 217 459 241 430 c 128,-1,23
 265 401 265 401 302 393 c 257,24,-1
 302 394 l 257,25,26
 314 391 314 391 326 391 c 257,0,1
277 146 m 257,27,28
 362 146 362 146 426 202 c 128,-1,29
 490 258 490 258 503 342 c 257,30,31
 433 266 433 266 330 259 c 257,32,33
 322 258 322 258 316 258 c 257,34,35
 313 258 313 258 312 258 c 257,36,-1
 311 258 l 257,37,38
 310 258 310 258 308 258 c 257,39,40
 217 258 217 258 146.5 314.5 c 128,-1,41
 76 371 76 371 56 458 c 257,42,43
 50 486 50 486 50 516 c 257,44,45
 50 556 50 556 62 594 c 257,46,47
 92 688 92 688 178 738 c 257,48,49
 227 772 227 772 277 772 c 257,50,51
 281 772 281 772 284 772 c 257,52,53
 296 773 296 773 308 773 c 257,54,55
 309 773 309 773 310 773 c 2,56,-1
 311 773 l 257,57,-1
 312 773 l 257,58,59
 314 773 314 773 316 773 c 257,60,61
 324 773 324 773 330 772 c 257,62,63
 410 766 410 766 472 717 c 257,64,65
 557 665 557 665 608 575 c 128,-1,66
 659 485 659 485 659 378 c 257,67,68
 659 215 659 215 547 100 c 128,-1,69
 435 -15 435 -15 277 -15 c 257,70,71
 194 -15 194 -15 158 -8 c 257,72,-1
 158 158 l 257,73,74
 173 153 173 153 213 149.5 c 128,-1,75
 253 146 253 146 277 146 c 257,27,28
EndSplineSet
EndChar

StartChar: numbersign
Encoding: 35 35 903
GlifName: numbersign
Width: 648
VWidth: 0
Flags: W
LayerCount: 2
Fore
SplineSet
406 466 m 257,0,-1
 258 466 l 257,1,-1
 241 368 l 257,2,-1
 389 368 l 257,3,-1
 406 466 l 257,0,-1
146 692 m 257,4,-1
 298 692 l 257,5,-1
 285 618 l 257,6,-1
 433 618 l 257,7,-1
 446 692 l 257,8,-1
 598 692 l 257,9,-1
 585 618 l 257,10,-1
 596 618 l 257,11,-1
 596 466 l 257,12,-1
 558 466 l 257,13,-1
 541 368 l 257,14,-1
 596 368 l 257,15,-1
 596 216 l 257,16,-1
 514 216 l 257,17,-1
 502 149 l 257,18,-1
 350 149 l 257,19,-1
 362 216 l 257,20,-1
 214 216 l 257,21,-1
 202 149 l 257,22,-1
 50 149 l 257,23,-1
 62 216 l 257,24,-1
 52 216 l 257,25,-1
 52 368 l 257,26,-1
 89 368 l 257,27,-1
 106 466 l 257,28,-1
 52 466 l 257,29,-1
 52 618 l 257,30,-1
 133 618 l 257,31,-1
 146 692 l 257,4,-1
EndSplineSet
EndChar

StartChar: o
Encoding: 111 111 907
GlifName: o
Width: 620
VWidth: 0
Flags: W
LayerCount: 2
Fore
SplineSet
310 367 m 257,0,1
 297 367 297 367 286 364 c 257,2,-1
 286 365 l 257,3,4
 249 357 249 357 225 328 c 128,-1,5
 201 299 201 299 201 260 c 257,6,7
 201 222 201 222 225 193 c 128,-1,8
 249 164 249 164 286 156 c 257,9,-1
 286 157 l 257,10,11
 297 154 297 154 310 154 c 257,12,13
 322 154 322 154 334 157 c 257,14,-1
 334 156 l 257,15,16
 371 164 371 164 395 193 c 128,-1,17
 419 222 419 222 419 260 c 257,18,19
 419 299 419 299 395 328 c 128,-1,20
 371 357 371 357 334 365 c 257,21,-1
 334 364 l 257,22,23
 322 367 322 367 310 367 c 257,0,1
309 3 m 257,24,-1
 308 3 l 257,25,26
 306 3 306 3 304 3 c 257,27,28
 296 3 296 3 290 4 c 257,29,30
 189 10 189 10 119.5 84 c 128,-1,31
 50 158 50 158 50 260 c 257,32,33
 50 362 50 362 119.5 436.5 c 128,-1,34
 189 511 189 511 290 517 c 257,35,36
 296 518 296 518 304 518 c 257,37,38
 306 518 306 518 308 518 c 257,39,-1
 309 518 l 257,40,41
 310 518 310 518 312 518 c 257,42,43
 419 518 419 518 494.5 442.5 c 128,-1,44
 570 367 570 367 570 260 c 128,-1,45
 570 153 570 153 494.5 78 c 128,-1,46
 419 3 419 3 312 3 c 257,47,48
 311 3 311 3 310 3 c 2,49,-1
 309 3 l 257,24,-1
EndSplineSet
EndChar

StartChar: oe
Encoding: 339 339 927
GlifName: oe
Width: 999
VWidth: 0
Flags: W
LayerCount: 2
Fore
SplineSet
309 3 m 257,0,-1
 308 3 l 257,1,2
 306 3 306 3 304 3 c 257,3,4
 296 3 296 3 290 4 c 257,5,6
 189 10 189 10 119.5 84 c 128,-1,7
 50 158 50 158 50 260 c 257,8,9
 50 362 50 362 119.5 436.5 c 128,-1,10
 189 511 189 511 290 517 c 257,11,12
 296 518 296 518 304 518 c 257,13,14
 306 518 306 518 308 518 c 257,15,-1
 309 518 l 257,16,17
 310 518 310 518 312 518 c 257,18,19
 425 518 425 518 501 436 c 257,20,21
 577 518 577 518 690 518 c 257,22,23
 797 518 797 518 872.5 442.5 c 128,-1,24
 948 367 948 367 948 260 c 257,25,26
 948 250 948 250 948.5 232.5 c 128,-1,27
 949 215 949 215 949 208 c 257,28,-1
 598 205 l 257,29,30
 612 182 612 182 636.5 168 c 128,-1,31
 661 154 661 154 690 154 c 257,32,33
 724 154 724 154 827.5 156.5 c 128,-1,34
 931 159 931 159 939 162 c 257,35,-1
 939 6 l 257,36,37
 920 3 920 3 690 3 c 257,38,39
 577 3 577 3 501 85 c 257,40,41
 425 3 425 3 312 3 c 257,42,43
 311 3 311 3 310 3 c 2,44,-1
 309 3 l 257,0,-1
593 297 m 257,45,-1
 789 294 l 257,46,47
 785 298 785 298 769 317 c 128,-1,48
 753 336 753 336 744 345.5 c 128,-1,49
 735 355 735 355 719.5 365 c 128,-1,50
 704 375 704 375 690 375 c 257,51,52
 676 375 676 375 661 365.5 c 128,-1,53
 646 356 646 356 636.5 346 c 128,-1,54
 627 336 627 336 612 319 c 128,-1,55
 597 302 597 302 593 297 c 257,45,-1
310 367 m 257,56,57
 297 367 297 367 286 364 c 257,58,-1
 286 365 l 257,59,60
 249 357 249 357 225 328 c 128,-1,61
 201 299 201 299 201 260 c 257,62,63
 201 222 201 222 225 193 c 128,-1,64
 249 164 249 164 286 156 c 257,65,-1
 286 157 l 257,66,67
 297 154 297 154 310 154 c 257,68,69
 322 154 322 154 334 157 c 257,70,-1
 334 156 l 257,71,72
 371 164 371 164 395 193 c 128,-1,73
 419 222 419 222 419 260 c 257,74,75
 419 299 419 299 395 328 c 128,-1,76
 371 357 371 357 334 365 c 257,77,-1
 334 364 l 257,78,79
 322 367 322 367 310 367 c 257,56,57
EndSplineSet
EndChar

StartChar: one
Encoding: 49 49 947
GlifName: one
Width: 436
VWidth: 0
Flags: W
LayerCount: 2
Fore
SplineSet
158 487 m 257,0,-1
 50 594 l 257,1,-1
 232 776 l 257,2,-1
 234 774 l 257,3,-1
 386 774 l 257,4,-1
 386 -2 l 257,5,-1
 234 -2 l 257,6,-1
 234 563 l 257,7,-1
 158 487 l 257,0,-1
EndSplineSet
EndChar

StartChar: oslash
Encoding: 248 248 967
GlifName: oslash
Width: 620
VWidth: 0
Flags: W
LayerCount: 2
Fore
SplineSet
324 155 m 257,0,1
 329 156 329 156 334 157 c 257,2,-1
 334 156 l 257,3,4
 371 164 371 164 395 193 c 128,-1,5
 419 222 419 222 419 260 c 257,6,7
 419 282 419 282 410 303 c 257,8,-1
 324 155 l 257,0,1
306 367 m 257,9,10
 295 366 295 366 286 364 c 257,11,-1
 286 365 l 257,12,13
 249 357 249 357 225 328 c 128,-1,14
 201 299 201 299 201 260 c 257,15,16
 201 233 201 233 214 209 c 257,17,-1
 306 367 l 257,9,10
50 260 m 257,18,19
 50 367 50 367 124.5 442.5 c 128,-1,20
 199 518 199 518 308 518 c 257,21,-1
 309 518 l 257,22,23
 310 518 310 518 312 518 c 257,24,25
 351 518 351 518 388 507 c 257,26,-1
 458 625 l 257,27,-1
 564 564 l 257,28,-1
 493 444 l 257,29,30
 570 368 570 368 570 260 c 257,31,32
 570 153 570 153 494.5 78 c 128,-1,33
 419 3 419 3 312 3 c 257,34,35
 311 3 311 3 310 3 c 2,36,-1
 309 3 l 257,37,-1
 308 3 l 257,38,39
 273 3 273 3 240 12 c 257,40,-1
 184 -83 l 257,41,-1
 78 -22 l 257,42,-1
 133 71 l 257,43,44
 94 107 94 107 72 156 c 128,-1,45
 50 205 50 205 50 260 c 257,18,19
EndSplineSet
EndChar

StartChar: otilde.0
Encoding: 66264 -1 972
GlifName: otilde.0
Width: 620
VWidth: 0
Flags: W
LayerCount: 2
Fore
SplineSet
383 705 m 257,0,-1
 373 695 l 257,1,2
 364 685 364 685 347 675 c 257,3,4
 330 665 330 665 315 665 c 257,5,6
 293 665 293 665 270 665 c 257,7,8
 254 665 254 665 231 679 c 257,9,10
 207 692 207 692 190 692 c 257,11,12
 165 692 165 692 133 664 c 257,13,-1
 133 588 l 257,14,-1
 142 595 l 257,15,16
 151 602 151 602 166 609 c 257,17,18
 181 616 181 616 192 616 c 257,19,20
 208 616 208 616 231 602 c 257,21,22
 253 588 253 588 269 588 c 257,23,-1
 319 588 l 257,24,25
 335 588 335 588 351 599 c 257,26,27
 367 609 367 609 375 618 c 257,28,29
 382 627 382 627 383 629 c 257,30,-1
 383 705 l 257,0,-1
310 377 m 257,31,32
 322 377 322 377 334 374 c 257,33,-1
 334 375 l 257,34,35
 371 367 371 367 395 338 c 257,36,37
 419 309 419 309 419 270 c 257,38,39
 419 232 419 232 395 203 c 257,40,41
 371 174 371 174 334 166 c 257,42,-1
 334 167 l 257,43,44
 322 164 322 164 310 164 c 257,45,46
 297 164 297 164 286 167 c 257,47,-1
 286 166 l 257,48,49
 249 174 249 174 225 203 c 257,50,51
 201 232 201 232 201 270 c 257,52,53
 201 309 201 309 225 338 c 257,54,55
 249 367 249 367 286 375 c 257,56,-1
 286 374 l 257,57,58
 297 377 297 377 310 377 c 257,31,32
309 13 m 257,59,-1
 310 13 l 257,60,61
 311 13 311 13 312 13 c 257,62,63
 419 13 419 13 495 88 c 257,64,65
 570 163 570 163 570 270 c 257,66,67
 570 377 570 377 495 453 c 257,68,69
 419 528 419 528 312 528 c 257,70,71
 310 528 310 528 309 528 c 257,72,-1
 308 528 l 257,73,74
 306 528 306 528 304 528 c 257,75,76
 296 528 296 528 290 527 c 257,77,78
 189 521 189 521 120 447 c 257,79,80
 50 372 50 372 50 270 c 257,81,82
 50 168 50 168 120 94 c 257,83,84
 189 20 189 20 290 14 c 257,85,86
 296 13 296 13 304 13 c 257,87,88
 306 13 306 13 308 13 c 257,89,-1
 309 13 l 257,59,-1
EndSplineSet
EndChar

StartChar: otilde.1
Encoding: 66265 -1 973
GlifName: otilde.1
Width: 620
VWidth: 0
Flags: W
LayerCount: 2
Fore
SplineSet
433 695 m 257,0,-1
 423 685 l 257,1,2
 414 675 414 675 397 665 c 257,3,4
 380 655 380 655 365 655 c 257,5,6
 343 655 343 655 320 655 c 257,7,8
 304 655 304 655 281 669 c 257,9,10
 257 682 257 682 240 682 c 257,11,12
 215 682 215 682 183 654 c 257,13,-1
 183 578 l 257,14,-1
 192 585 l 257,15,16
 201 592 201 592 216 599 c 257,17,18
 231 606 231 606 242 606 c 257,19,20
 258 606 258 606 281 592 c 257,21,22
 303 578 303 578 319 578 c 257,23,-1
 369 578 l 257,24,25
 385 578 385 578 401 589 c 257,26,27
 417 599 417 599 425 608 c 257,28,29
 432 617 432 617 433 619 c 257,30,-1
 433 695 l 257,0,-1
310 367 m 257,31,32
 322 367 322 367 334 364 c 257,33,-1
 334 365 l 257,34,35
 371 357 371 357 395 328 c 257,36,37
 419 299 419 299 419 260 c 257,38,39
 419 222 419 222 395 193 c 257,40,41
 371 164 371 164 334 156 c 257,42,-1
 334 157 l 257,43,44
 322 154 322 154 310 154 c 257,45,46
 297 154 297 154 286 157 c 257,47,-1
 286 156 l 257,48,49
 249 164 249 164 225 193 c 257,50,51
 201 222 201 222 201 260 c 257,52,53
 201 299 201 299 225 328 c 257,54,55
 249 357 249 357 286 365 c 257,56,-1
 286 364 l 257,57,58
 297 367 297 367 310 367 c 257,31,32
309 3 m 257,59,-1
 310 3 l 257,60,61
 311 3 311 3 312 3 c 257,62,63
 419 3 419 3 495 78 c 257,64,65
 570 153 570 153 570 260 c 257,66,67
 570 367 570 367 495 443 c 257,68,69
 419 518 419 518 312 518 c 257,70,71
 310 518 310 518 309 518 c 257,72,-1
 308 518 l 257,73,74
 306 518 306 518 304 518 c 257,75,76
 296 518 296 518 290 517 c 257,77,78
 189 511 189 511 120 437 c 257,79,80
 50 362 50 362 50 260 c 257,81,82
 50 158 50 158 120 84 c 257,83,84
 189 10 189 10 290 4 c 257,85,86
 296 3 296 3 304 3 c 257,87,88
 306 3 306 3 308 3 c 257,89,-1
 309 3 l 257,59,-1
EndSplineSet
EndChar

StartChar: p
Encoding: 112 112 975
GlifName: p
Width: 534
VWidth: 0
Flags: W
LayerCount: 2
Fore
SplineSet
202 356 m 257,0,-1
 202 149 l 257,1,2
 214 146 214 146 226 146 c 257,3,4
 271 146 271 146 302 177 c 128,-1,5
 333 208 333 208 333 253 c 257,6,7
 333 297 333 297 302 328 c 128,-1,8
 271 359 271 359 226 359 c 257,9,10
 214 359 214 359 202 356 c 257,0,-1
202 -202 m 257,11,-1
 50 -202 l 257,12,-1
 50 509 l 257,13,-1
 202 509 l 257,14,15
 210 510 210 510 226 510 c 257,16,17
 333 510 333 510 408.5 435 c 128,-1,18
 484 360 484 360 484 253 c 128,-1,19
 484 146 484 146 408.5 70.5 c 128,-1,20
 333 -5 333 -5 226 -5 c 257,21,22
 210 -5 210 -5 202 -4 c 257,23,-1
 202 -202 l 257,11,-1
EndSplineSet
EndChar

StartChar: paragraph
Encoding: 182 182 979
GlifName: paragraph
Width: 752
VWidth: 0
Flags: W
LayerCount: 2
Fore
SplineSet
332 3 m 257,0,-1
 332 266 l 257,1,2
 324 265 324 265 308 265 c 257,3,4
 201 265 201 265 125.5 340.5 c 128,-1,5
 50 416 50 416 50 523 c 128,-1,6
 50 630 50 630 125.5 705 c 128,-1,7
 201 780 201 780 308 780 c 257,8,9
 324 780 324 780 332 779 c 257,10,-1
 484 779 l 257,11,-1
 484 3 l 257,12,-1
 332 3 l 257,0,-1
550 774 m 257,13,-1
 702 774 l 257,14,-1
 702 -2 l 257,15,-1
 550 -2 l 257,16,-1
 550 774 l 257,13,-1
EndSplineSet
EndChar

StartChar: parenleft
Encoding: 40 40 983
GlifName: parenleft
Width: 555
VWidth: 0
Flags: W
LayerCount: 2
Fore
SplineSet
432 744 m 257,0,1
 332 744 332 744 243 633.5 c 128,-1,2
 154 523 154 523 154 378 c 257,3,4
 154 232 154 232 243 121.5 c 128,-1,5
 332 11 332 11 432 11 c 257,6,-1
 505 -7 l 257,7,8
 471 -14 471 -14 432 -14 c 257,9,10
 274 -14 274 -14 162 101.5 c 128,-1,11
 50 217 50 217 50 380 c 128,-1,12
 50 543 50 543 162 658 c 128,-1,13
 274 773 274 773 432 773 c 257,14,15
 471 773 471 773 505 766 c 257,16,-1
 432 744 l 257,0,1
EndSplineSet
EndChar

StartChar: parenright
Encoding: 41 41 987
GlifName: parenright
Width: 555
VWidth: 0
Flags: W
LayerCount: 2
Fore
SplineSet
123 744 m 257,0,-1
 50 766 l 257,1,2
 84 773 84 773 123 773 c 257,3,4
 281 773 281 773 393 658 c 128,-1,5
 505 543 505 543 505 380 c 128,-1,6
 505 217 505 217 393 101.5 c 128,-1,7
 281 -14 281 -14 123 -14 c 257,8,9
 84 -14 84 -14 50 -7 c 257,10,-1
 123 11 l 257,11,12
 223 11 223 11 312 121.5 c 128,-1,13
 401 232 401 232 401 378 c 257,14,15
 401 523 401 523 312 633.5 c 128,-1,16
 223 744 223 744 123 744 c 257,0,-1
EndSplineSet
EndChar

StartChar: percent
Encoding: 37 37 991
GlifName: percent
Width: 691
VWidth: 0
Flags: W
LayerCount: 2
Fore
SplineSet
535 818 m 257,0,-1
 641 757 l 257,1,-1
 156 -83 l 257,2,-1
 50 -22 l 257,3,-1
 535 818 l 257,0,-1
498 262 m 257,4,-1
 498 263 l 256,5,-1
 498 263 l 257,6,7
 479 259 479 259 467.5 244.5 c 128,-1,8
 456 230 456 230 456 210 c 257,9,10
 456 191 456 191 467.5 176.5 c 128,-1,11
 479 162 479 162 498 158 c 257,12,-1
 498 159 l 257,13,14
 506 157 506 157 510 157 c 128,-1,15
 514 157 514 157 522 159 c 257,16,-1
 522 158 l 257,17,18
 541 162 541 162 552.5 176.5 c 128,-1,19
 564 191 564 191 564 210 c 257,20,21
 564 230 564 230 552.5 244.5 c 128,-1,22
 541 259 541 259 522 263 c 257,23,-1
 522 262 l 257,24,25
 514 264 514 264 510 264 c 128,-1,26
 506 264 506 264 498 262 c 257,4,-1
  PathStart: -2
509 82 m 257,27,-1
 507 82 l 257,28,-1
 500 82 l 257,29,30
 449 86 449 86 414.5 122.5 c 128,-1,31
 380 159 380 159 380 210 c 128,-1,32
 380 261 380 261 415 298 c 128,-1,33
 450 335 450 335 500 339 c 257,34,-1
 507 339 l 257,35,-1
 509 339 l 257,36,-1
 511 339 l 257,37,38
 565 339 565 339 602.5 301.5 c 128,-1,39
 640 264 640 264 640 210 c 257,40,41
 640 157 640 157 602.5 119.5 c 128,-1,42
 565 82 565 82 511 82 c 257,43,-1
 509 82 l 257,27,-1
193 663 m 257,44,-1
 193 664 l 256,45,-1
 193 664 l 257,46,47
 174 660 174 660 162.5 645.5 c 128,-1,48
 151 631 151 631 151 611 c 257,49,50
 151 592 151 592 162.5 577.5 c 128,-1,51
 174 563 174 563 193 559 c 257,52,-1
 193 560 l 257,53,54
 201 558 201 558 205 558 c 128,-1,55
 209 558 209 558 217 560 c 257,56,-1
 217 559 l 257,57,58
 236 563 236 563 247.5 577.5 c 128,-1,59
 259 592 259 592 259 611 c 257,60,61
 259 631 259 631 247.5 645.5 c 128,-1,62
 236 660 236 660 217 664 c 257,63,-1
 217 663 l 257,64,65
 209 665 209 665 205 665 c 128,-1,66
 201 665 201 665 193 663 c 257,44,-1
  PathStart: -2
204 483 m 257,67,-1
 202 483 l 257,68,-1
 195 483 l 257,69,70
 144 487 144 487 109.5 523.5 c 128,-1,71
 75 560 75 560 75 611 c 128,-1,72
 75 662 75 662 110 699 c 128,-1,73
 145 736 145 736 195 740 c 257,74,-1
 202 740 l 257,75,-1
 204 740 l 257,76,-1
 206 740 l 257,77,78
 260 740 260 740 297.5 702.5 c 128,-1,79
 335 665 335 665 335 611 c 257,80,81
 335 558 335 558 297.5 520.5 c 128,-1,82
 260 483 260 483 206 483 c 257,83,-1
 204 483 l 257,67,-1
EndSplineSet
EndChar

StartChar: period
Encoding: 46 46 995
GlifName: period
Width: 252
VWidth: 0
Flags: W
LayerCount: 2
Fore
SplineSet
50 -2 m 257,0,-1
 50 140 l 257,1,-1
 202 140 l 257,2,-1
 202 -2 l 257,3,-1
 50 -2 l 257,0,-1
EndSplineSet
EndChar

StartChar: periodcentered
Encoding: 183 183 999
GlifName: periodcentered
Width: 252
VWidth: 0
Flags: W
LayerCount: 2
Fore
SplineSet
50 398 m 257,0,-1
 50 540 l 257,1,-1
 202 540 l 257,2,-1
 202 398 l 257,3,-1
 50 398 l 257,0,-1
EndSplineSet
EndChar

StartChar: plus
Encoding: 43 43 1003
GlifName: plus
Width: 644
VWidth: 0
Flags: W
LayerCount: 2
Fore
SplineSet
246 692 m 257,0,-1
 398 692 l 257,1,-1
 398 496 l 257,2,-1
 594 496 l 257,3,-1
 594 344 l 257,4,-1
 398 344 l 257,5,-1
 398 149 l 257,6,-1
 246 149 l 257,7,-1
 246 344 l 257,8,-1
 50 344 l 257,9,-1
 50 496 l 257,10,-1
 246 496 l 257,11,-1
 246 692 l 257,0,-1
EndSplineSet
EndChar

StartChar: plusminus
Encoding: 177 177 1007
GlifName: plusminus
Width: 644
VWidth: 0
Flags: W
LayerCount: 2
Fore
SplineSet
246 692 m 257,0,-1
 398 692 l 257,1,-1
 398 496 l 257,2,-1
 594 496 l 257,3,-1
 594 344 l 257,4,-1
 398 344 l 257,5,-1
 398 149 l 257,6,-1
 246 149 l 257,7,-1
 246 344 l 257,8,-1
 50 344 l 257,9,-1
 50 496 l 257,10,-1
 246 496 l 257,11,-1
 246 692 l 257,0,-1
594 122 m 257,12,-1
 594 -30 l 257,13,-1
 50 -30 l 257,14,-1
 50 122 l 257,15,-1
 594 122 l 257,12,-1
EndSplineSet
EndChar

StartChar: q
Encoding: 113 113 1011
GlifName: q
Width: 534
VWidth: 0
Flags: W
LayerCount: 2
Fore
SplineSet
332 356 m 257,0,1
 320 359 320 359 308 359 c 257,2,3
 263 359 263 359 232 328 c 128,-1,4
 201 297 201 297 201 253 c 257,5,6
 201 208 201 208 232 177 c 128,-1,7
 263 146 263 146 308 146 c 257,8,9
 320 146 320 146 332 149 c 257,10,-1
 332 356 l 257,0,1
332 -202 m 257,11,-1
 332 -4 l 257,12,13
 324 -5 324 -5 308 -5 c 257,14,15
 201 -5 201 -5 125.5 70.5 c 128,-1,16
 50 146 50 146 50 253 c 128,-1,17
 50 360 50 360 125.5 435 c 128,-1,18
 201 510 201 510 308 510 c 257,19,20
 324 510 324 510 332 509 c 257,21,-1
 484 509 l 257,22,-1
 484 -202 l 257,23,-1
 332 -202 l 257,11,-1
EndSplineSet
EndChar

StartChar: question
Encoding: 63 63 1015
GlifName: question
Width: 384
VWidth: 0
Flags: W
LayerCount: 2
Fore
SplineSet
50 828 m 257,0,1
 59 829 59 829 76 829 c 257,2,3
 183 829 183 829 258.5 754 c 128,-1,4
 334 679 334 679 334 572 c 257,5,6
 334 500 334 500 298 440 c 128,-1,7
 262 380 262 380 202 347 c 257,8,-1
 202 230 l 257,9,-1
 50 230 l 257,10,-1
 50 315 l 257,11,-1
 50 440 l 257,12,-1
 50 468 l 257,13,14
 62 465 62 465 76 465 c 257,15,16
 121 465 121 465 152 496 c 128,-1,17
 183 527 183 527 183 572 c 257,18,19
 183 616 183 616 152 647 c 128,-1,20
 121 678 121 678 76 678 c 257,21,22
 62 678 62 678 50 675 c 257,23,-1
 50 828 l 257,0,1
50 -2 m 257,24,-1
 50 140 l 257,25,-1
 202 140 l 257,26,-1
 202 -2 l 257,27,-1
 50 -2 l 257,24,-1
EndSplineSet
EndChar

StartChar: questiondown
Encoding: 191 191 1019
GlifName: questiondown
Width: 384
VWidth: 0
Flags: W
LayerCount: 2
Fore
SplineSet
334 -1 m 257,0,1
 325 -2 325 -2 308 -2 c 257,2,3
 201 -2 201 -2 125.5 73 c 128,-1,4
 50 148 50 148 50 255 c 257,5,6
 50 327 50 327 86 387 c 128,-1,7
 122 447 122 447 182 480 c 257,8,-1
 182 597 l 257,9,-1
 334 597 l 257,10,-1
 334 512 l 257,11,-1
 334 387 l 257,12,-1
 334 359 l 257,13,14
 322 362 322 362 308 362 c 257,15,16
 263 362 263 362 232 331 c 128,-1,17
 201 300 201 300 201 255 c 257,18,19
 201 211 201 211 232 180 c 128,-1,20
 263 149 263 149 308 149 c 257,21,22
 322 149 322 149 334 152 c 257,23,-1
 334 -1 l 257,0,1
334 829 m 257,24,-1
 334 687 l 257,25,-1
 182 687 l 257,26,-1
 182 829 l 257,27,-1
 334 829 l 257,24,-1
EndSplineSet
EndChar

StartChar: quotedbl
Encoding: 34 34 1023
GlifName: quotedbl
Width: 452
VWidth: 0
Flags: W
LayerCount: 2
Fore
SplineSet
50 532 m 257,0,-1
 50 789 l 257,1,-1
 202 789 l 257,2,-1
 202 532 l 257,3,-1
 50 532 l 257,0,-1
250 532 m 257,4,-1
 250 789 l 257,5,-1
 402 789 l 257,6,-1
 402 532 l 257,7,-1
 250 532 l 257,4,-1
EndSplineSet
EndChar

StartChar: quotesingle
Encoding: 39 39 1027
GlifName: quotesingle
Width: 252
VWidth: 0
Flags: W
LayerCount: 2
Fore
SplineSet
50 532 m 257,0,-1
 50 789 l 257,1,-1
 202 789 l 257,2,-1
 202 532 l 257,3,-1
 50 532 l 257,0,-1
EndSplineSet
EndChar

StartChar: r
Encoding: 114 114 1031
GlifName: r
Width: 587
VWidth: 0
Flags: W
LayerCount: 2
Fore
SplineSet
50 522 m 257,0,-1
 219 522 l 257,1,-1
 219 512 l 257,2,3
 258 524 258 524 299 524 c 257,4,5
 379 524 379 524 443.5 473 c 128,-1,6
 508 422 508 422 537 345 c 257,7,-1
 372 345 l 257,8,-1
 372 344 l 257,9,10
 341 373 341 373 299 373 c 257,11,12
 251 373 251 373 219 338 c 257,13,-1
 219 6 l 257,14,-1
 50 6 l 257,15,-1
 50 522 l 257,0,-1
EndSplineSet
EndChar

StartChar: registered
Encoding: 174 174 1043
GlifName: registered
Width: 656
VWidth: 0
Flags: W
LayerCount: 2
Fore
SplineSet
563 379 m 257,0,1
 563 478 563 478 494.5 548 c 128,-1,2
 426 618 426 618 328 618 c 128,-1,3
 230 618 230 618 161.5 548 c 128,-1,4
 93 478 93 478 93 379 c 257,5,6
 93 279 93 279 161.5 208.5 c 128,-1,7
 230 138 230 138 328 138 c 128,-1,8
 426 138 426 138 494.5 208.5 c 128,-1,9
 563 279 563 279 563 379 c 257,0,1
606 380 m 257,10,11
 606 261 606 261 524.5 177 c 128,-1,12
 443 93 443 93 328 93 c 128,-1,13
 213 93 213 93 131.5 177 c 128,-1,14
 50 261 50 261 50 380 c 257,15,16
 50 499 50 499 131.5 582.5 c 128,-1,17
 213 666 213 666 328 666 c 128,-1,18
 443 666 443 666 524.5 582.5 c 128,-1,19
 606 499 606 499 606 380 c 257,10,11
291 246 m 257,20,-1
 236 246 l 257,21,-1
 236 528 l 257,22,-1
 291 528 l 257,23,24
 294 529 294 529 300 529 c 257,25,26
 339 529 339 529 366.5 501.5 c 128,-1,27
 394 474 394 474 394 435 c 257,28,29
 394 405 394 405 376.5 380.5 c 128,-1,30
 359 356 359 356 332 347 c 257,31,-1
 404 243 l 257,32,-1
 353 243 l 257,33,-1
 293 341 l 257,34,35
 292 341 292 341 291 341 c 257,36,-1
 291 246 l 257,20,-1
291 473 m 257,37,-1
 291 397 l 257,38,39
 296 396 296 396 300 396 c 257,40,41
 316 396 316 396 327.5 407.5 c 128,-1,42
 339 419 339 419 339 435 c 257,43,44
 339 451 339 451 327.5 462.5 c 128,-1,45
 316 474 316 474 300 474 c 257,46,47
 296 474 296 474 291 473 c 257,37,-1
EndSplineSet
EndChar

StartChar: s
Encoding: 115 115 1051
GlifName: s
Width: 508
VWidth: 0
Flags: W
LayerCount: 2
Fore
SplineSet
69.3916015625 47 m 257,0,-1
 136.391601562 159 l 257,1,2
 143.391601562 152 143.391601562 152 158.391601562 147 c 257,3,4
 198.391601562 130 198.391601562 130 229.891601562 134 c 128,-1,5
 261.391601562 138 261.391601562 138 281.391601562 162 c 257,6,7
 304.391601562 189 304.391601562 189 259.391601562 201 c 257,8,9
 247.391601562 204 247.391601562 204 205.391601562 211 c 257,10,11
 139.391601562 237 139.391601562 237 99.3916015625 271.5 c 128,-1,12
 59.3916015625 306 59.3916015625 306 51.3916015625 348 c 128,-1,13
 43.3916015625 390 43.3916015625 390 81.3916015625 434 c 257,14,15
 128.391601562 491 128.391601562 491 228.391601562 502.5 c 128,-1,16
 328.391601562 514 328.391601562 514 424.391601562 473 c 257,17,18
 442.391601562 465 442.391601562 465 446.391601562 462 c 257,19,-1
 379.391601562 332 l 257,20,21
 365.391601562 341 365.391601562 341 357.391601562 344 c 257,22,23
 316.391601562 360 316.391601562 360 296.391601562 356 c 128,-1,24
 276.391601562 352 276.391601562 352 256.391601562 328 c 257,25,26
 231.391601562 302 231.391601562 302 235.891601562 292.5 c 128,-1,27
 240.391601562 283 240.391601562 283 287.391601562 275 c 257,28,29
 326.391601562 258 326.391601562 258 355.391601562 243.5 c 128,-1,30
 384.391601562 229 384.391601562 229 410.891601562 209 c 128,-1,31
 437.391601562 189 437.391601562 189 448.891601562 169.5 c 128,-1,32
 460.391601562 150 460.391601562 150 457.891601562 125.5 c 128,-1,33
 455.391601562 101 455.391601562 101 433.391601562 75 c 257,34,35
 386.391601562 18 386.391601562 18 286.391601562 5.5 c 128,-1,36
 186.391601562 -7 186.391601562 -7 91.3916015625 34 c 257,37,38
 83.3916015625 36 83.3916015625 36 69.3916015625 47 c 257,0,-1
EndSplineSet
EndChar

StartChar: section
Encoding: 167 167 1071
GlifName: section
Width: 599
VWidth: 0
Flags: W
LayerCount: 2
Fore
SplineSet
50 108 m 257,0,-1
 125 233 l 257,1,2
 137 223 137 223 147 218 c 257,3,4
 185 196 185 196 227 206.5 c 128,-1,5
 269 217 269 217 292 253 c 257,6,7
 314 292 314 292 289.5 325.5 c 128,-1,8
 265 359 265 359 222 366 c 257,9,10
 155 402 155 402 114.5 449 c 128,-1,11
 74 496 74 496 63.5 558.5 c 128,-1,12
 53 621 53 621 96 690 c 257,13,14
 135 754 135 754 205 786 c 257,15,16
 172 821 172 821 155.5 859 c 128,-1,17
 139 897 139 897 143 944 c 128,-1,18
 147 991 147 991 176 1039 c 257,19,20
 228 1126 228 1126 331 1151.5 c 128,-1,21
 434 1177 434 1177 528 1127 c 257,22,23
 531 1124 531 1124 538.5 1119.5 c 128,-1,24
 546 1115 546 1115 549 1112 c 257,25,-1
 474 987 l 257,26,27
 462 997 462 997 452 1002 c 257,28,29
 414 1023 414 1023 371.5 1012.5 c 128,-1,30
 329 1002 329 1002 307 965 c 257,31,32
 282 924 282 924 302.5 875 c 128,-1,33
 323 826 323 826 371 818 c 257,34,35
 394 806 394 806 413 794 c 257,36,37
 431 787 431 787 448 778 c 257,38,39
 451 775 451 775 458.5 770.5 c 128,-1,40
 466 766 466 766 469 763 c 257,41,-1
 465 756 l 257,42,43
 580 658 580 658 502 530 c 257,44,45
 456 452 456 452 366 422 c 257,46,47
 505 318 505 318 422 181 c 257,48,49
 370 93 370 93 267.5 67.5 c 128,-1,50
 165 42 165 42 71 93 c 257,51,52
 68 96 68 96 60.5 100.5 c 128,-1,53
 53 105 53 105 50 108 c 257,0,-1
214 575 m 257,54,55
 220 570 220 570 227 567 c 257,56,57
 265 545 265 545 307 555.5 c 128,-1,58
 349 566 349 566 372 602 c 257,59,60
 385 625 385 625 381 648 c 257,61,62
 377 651 377 651 372 653 c 257,63,64
 334 674 334 674 291.5 663.5 c 128,-1,65
 249 653 249 653 227 616 c 257,66,67
 216 597 216 597 214 575 c 257,54,55
EndSplineSet
EndChar

StartChar: semicolon
Encoding: 59 59 1075
GlifName: semicolon
Width: 252
VWidth: 0
Flags: W
LayerCount: 2
Fore
SplineSet
50 398 m 257,0,-1
 50 540 l 257,1,-1
 202 540 l 257,2,-1
 202 398 l 257,3,-1
 50 398 l 257,0,-1
50 -2 m 257,4,-1
 50 140 l 257,5,-1
 202 140 l 257,6,-1
 202 -2 l 257,7,-1
 142 -134 l 257,8,-1
 84 -130 l 257,9,-1
 93 -2 l 257,10,-1
 50 -2 l 257,4,-1
EndSplineSet
EndChar

StartChar: seven
Encoding: 55 55 1079
GlifName: seven
Width: 610
VWidth: 0
Flags: W
LayerCount: 2
Fore
SplineSet
213 0 m 257,0,-1
 51 0 l 257,1,-1
 389 610 l 257,2,-1
 50 610 l 257,3,-1
 50 762 l 257,4,-1
 560 762 l 257,5,-1
 560 610 l 257,6,-1
 213 0 l 257,0,-1
EndSplineSet
EndChar

StartChar: six
Encoding: 54 54 1083
GlifName: six
Width: 709
VWidth: 0
Flags: W
LayerCount: 2
Fore
SplineSet
383 367 m 257,0,1
 372 367 372 367 359 364 c 257,2,-1
 359 365 l 257,3,4
 322 357 322 357 298 328 c 128,-1,5
 274 299 274 299 274 260 c 257,6,7
 274 206 274 206 318 174 c 257,8,9
 333 165 333 165 350 158 c 257,10,11
 355 157 355 157 359 156 c 257,12,-1
 359 157 l 257,13,14
 370 154 370 154 383 154 c 257,15,16
 395 154 395 154 407 157 c 257,17,-1
 407 156 l 257,18,19
 444 164 444 164 468 193 c 128,-1,20
 492 222 492 222 492 260 c 257,21,22
 492 299 492 299 468 328 c 128,-1,23
 444 357 444 357 407 365 c 257,24,-1
 407 364 l 257,25,26
 395 367 395 367 383 367 c 257,0,1
432 612 m 257,27,28
 347 612 347 612 283 556 c 128,-1,29
 219 500 219 500 206 416 c 257,30,31
 276 492 276 492 379 499 c 257,32,33
 387 500 387 500 393 500 c 257,34,35
 396 500 396 500 397 500 c 257,36,-1
 398 500 l 257,37,38
 399 500 399 500 401 500 c 257,39,40
 492 500 492 500 562.5 443.5 c 128,-1,41
 633 387 633 387 653 300 c 257,42,43
 659 272 659 272 659 242 c 257,44,45
 659 202 659 202 647 164 c 257,46,47
 617 70 617 70 531 20 c 257,48,49
 482 -14 482 -14 432 -14 c 257,50,51
 428 -14 428 -14 425 -14 c 257,52,53
 413 -15 413 -15 401 -15 c 257,54,55
 400 -15 400 -15 399 -15 c 2,56,-1
 398 -15 l 257,57,-1
 397 -15 l 257,58,59
 395 -15 395 -15 393 -15 c 257,60,61
 385 -15 385 -15 379 -14 c 257,62,63
 299 -8 299 -8 237 41 c 257,64,65
 152 93 152 93 101 183 c 128,-1,66
 50 273 50 273 50 380 c 257,67,68
 50 543 50 543 162 658 c 128,-1,69
 274 773 274 773 432 773 c 257,70,71
 515 773 515 773 551 766 c 257,72,-1
 551 600 l 257,73,74
 536 605 536 605 496 608.5 c 128,-1,75
 456 612 456 612 432 612 c 257,27,28
EndSplineSet
EndChar

StartChar: slash
Encoding: 47 47 1087
GlifName: slash
Width: 691
VWidth: 0
Flags: W
LayerCount: 2
Fore
SplineSet
535 818 m 257,0,-1
 641 757 l 257,1,-1
 156 -83 l 257,2,-1
 50 -22 l 257,3,-1
 535 818 l 257,0,-1
EndSplineSet
EndChar

StartChar: sterling
Encoding: 163 163 1092
GlifName: sterling
Width: 864
VWidth: 0
Flags: W
LayerCount: 2
Fore
SplineSet
512 752 m 257,0,-1
 512 584 l 257,1,2
 481 610 481 610 441 610 c 257,3,4
 392 610 392 610 360 573 c 257,5,-1
 360 511 l 257,6,-1
 457 511 l 257,7,-1
 457 359 l 257,8,-1
 360 359 l 257,9,-1
 360 166 l 257,10,-1
 626 166 l 257,11,12
 664 198 664 198 664 248 c 257,13,14
 664 288 664 288 638 318 c 257,15,-1
 806 318 l 257,16,17
 814 284 814 284 814 248 c 257,18,19
 814 160 814 160 762 93 c 128,-1,20
 710 26 710 26 628 2 c 257,21,-1
 360 1 l 257,22,-1
 360 -3 l 257,23,-1
 193 -3 l 257,24,-1
 193 0 l 257,25,-1
 50 0 l 257,26,-1
 50 166 l 257,27,-1
 194 166 l 257,28,-1
 195 359 l 257,29,-1
 98 359 l 257,30,-1
 98 511 l 257,31,-1
 196 511 l 257,32,-1
 196 574 l 257,33,34
 220 657 220 657 287 709 c 128,-1,35
 354 761 354 761 441 761 c 257,36,37
 478 761 478 761 512 752 c 257,0,-1
EndSplineSet
EndChar

StartChar: t
Encoding: 116 116 1096
GlifName: t
Width: 514
VWidth: 0
Flags: W
LayerCount: 2
Fore
SplineSet
464 6 m 257,0,1
 430 -3 430 -3 393 -3 c 257,2,3
 306 -3 306 -3 239 49 c 128,-1,4
 172 101 172 101 148 184 c 257,5,-1
 147 364 l 257,6,-1
 50 364 l 257,7,-1
 50 516 l 257,8,-1
 146 516 l 257,9,-1
 145 761 l 257,10,-1
 312 761 l 257,11,-1
 312 516 l 257,12,-1
 409 516 l 257,13,-1
 409 364 l 257,14,-1
 312 364 l 257,15,-1
 312 185 l 257,16,17
 344 148 344 148 393 148 c 257,18,19
 433 148 433 148 464 174 c 257,20,-1
 464 6 l 257,0,1
EndSplineSet
EndChar

StartChar: tcaron
Encoding: 357 357 1100
GlifName: tcaron
Width: 643
VWidth: 0
Flags: W
LayerCount: 2
Fore
SplineSet
464 6 m 257,0,1
 430 -3 430 -3 393 -3 c 257,2,3
 306 -3 306 -3 239 49 c 128,-1,4
 172 101 172 101 148 184 c 257,5,-1
 147 364 l 257,6,-1
 50 364 l 257,7,-1
 50 516 l 257,8,-1
 146 516 l 257,9,-1
 145 761 l 257,10,-1
 312 761 l 257,11,-1
 312 516 l 257,12,-1
 409 516 l 257,13,-1
 409 364 l 257,14,-1
 312 364 l 257,15,-1
 312 185 l 257,16,17
 344 148 344 148 393 148 c 257,18,19
 433 148 433 148 464 174 c 257,20,-1
 464 6 l 257,0,1
441 504 m 257,21,-1
 441 761 l 257,22,-1
 593 761 l 257,23,-1
 548 504 l 257,24,-1
 441 504 l 257,21,-1
EndSplineSet
EndChar

StartChar: thorn
Encoding: 254 254 1104
GlifName: thorn
Width: 534
VWidth: 0
Flags: W
LayerCount: 2
Fore
SplineSet
202 359 m 257,0,-1
 202 152 l 257,1,2
 214 149 214 149 226 149 c 257,3,4
 271 149 271 149 302 180 c 128,-1,5
 333 211 333 211 333 256 c 257,6,7
 333 300 333 300 302 331 c 128,-1,8
 271 362 271 362 226 362 c 257,9,10
 214 362 214 362 202 359 c 257,0,-1
202 -199 m 257,11,-1
 50 -199 l 257,12,-1
 50 701 l 257,13,-1
 197 701 l 257,14,-1
 202 512 l 257,15,16
 210 513 210 513 226 513 c 257,17,18
 333 513 333 513 408.5 438 c 128,-1,19
 484 363 484 363 484 256 c 128,-1,20
 484 149 484 149 408.5 73.5 c 128,-1,21
 333 -2 333 -2 226 -2 c 257,22,23
 210 -2 210 -2 202 -1 c 257,24,-1
 202 -199 l 257,11,-1
EndSplineSet
EndChar

StartChar: three
Encoding: 51 51 1108
GlifName: three
Width: 435
VWidth: 0
Flags: W
LayerCount: 2
Fore
SplineSet
50 -5 m 257,0,-1
 50 119 l 257,1,2
 63 116 63 116 76 116 c 257,3,4
 142 116 142 116 188 141 c 128,-1,5
 234 166 234 166 234 202 c 257,6,7
 234 236 234 236 207 260 c 128,-1,8
 180 284 180 284 140 288 c 257,9,10
 133 288 133 288 127 288 c 128,-1,11
 121 288 121 288 115 288 c 257,12,13
 108 288 108 288 101 286 c 257,14,-1
 101 289 l 257,15,-1
 101 410 l 257,16,-1
 101 413 l 257,17,18
 108 411 108 411 115 411 c 257,19,20
 121 411 121 411 127 411 c 128,-1,21
 133 411 133 411 140 411 c 257,22,23
 180 414 180 414 207 438.5 c 128,-1,24
 234 463 234 463 234 496 c 257,25,26
 234 533 234 533 190 558 c 128,-1,27
 146 583 146 583 82 583 c 257,28,29
 69 583 69 583 56 580 c 257,30,-1
 56 704 l 257,31,32
 69 705 69 705 82 705 c 257,33,34
 208 705 208 705 296.5 644 c 128,-1,35
 385 583 385 583 385 496 c 257,36,37
 385 410 385 410 310 349 c 257,38,39
 385 288 385 288 385 202 c 128,-1,40
 385 116 385 116 294.5 55 c 128,-1,41
 204 -6 204 -6 76 -6 c 257,42,43
 63 -6 63 -6 50 -5 c 257,0,-1
EndSplineSet
EndChar

StartChar: tildecomb
Encoding: 771 771 1120
GlifName: tildecomb
Width: 0
VWidth: 0
Flags: W
LayerCount: 2
Fore
SplineSet
125 919 m 257,0,-1
 125 843 l 257,1,2
 124 841 124 841 116.5 832 c 128,-1,3
 109 823 109 823 93 812.5 c 128,-1,4
 77 802 77 802 61 802 c 257,5,-1
 11 802 l 257,6,7
 -5 802 -5 802 -27.5 816 c 128,-1,8
 -50 830 -50 830 -66 830 c 257,9,10
 -77 830 -77 830 -92 823 c 128,-1,11
 -107 816 -107 816 -116 809 c 257,12,-1
 -125 802 l 257,13,-1
 -125 878 l 257,14,15
 -93 906 -93 906 -68 906 c 257,16,17
 -51 906 -51 906 -27.5 892.5 c 128,-1,18
 -4 879 -4 879 12 879 c 257,19,20
 35 879 35 879 57 879 c 257,21,22
 72 879 72 879 89 889 c 128,-1,23
 106 899 106 899 115 909 c 257,24,-1
 125 919 l 257,0,-1
EndSplineSet
EndChar

StartChar: two
Encoding: 50 50 1124
GlifName: two
Width: 603
VWidth: 0
Flags: W
LayerCount: 2
Fore
SplineSet
126 586 m 257,0,1
 88 586 88 586 53 576 c 257,2,-1
 53 709 l 257,3,4
 89 715 89 715 126 715 c 257,5,6
 230 715 230 715 318 673 c 128,-1,7
 406 631 406 631 457 558.5 c 128,-1,8
 508 486 508 486 508 400 c 257,9,10
 508 305 508 305 445 231.5 c 128,-1,11
 382 158 382 158 278 124 c 257,12,-1
 553 126 l 257,13,-1
 553 5 l 257,14,-1
 50 0 l 257,15,-1
 53 236 l 257,16,17
 88 226 88 226 126 226 c 257,18,19
 223 226 223 226 289 274 c 128,-1,20
 355 322 355 322 355 399 c 257,21,22
 355 476 355 476 288 531 c 128,-1,23
 221 586 221 586 126 586 c 257,0,1
EndSplineSet
EndChar

StartChar: u
Encoding: 117 117 1128
GlifName: u
Width: 597
VWidth: 0
Flags: W
LayerCount: 2
Fore
SplineSet
547 2 m 257,0,-1
 378 2 l 257,1,-1
 378 12 l 257,2,3
 339 0 339 0 298 0 c 257,4,5
 211 0 211 0 144 52 c 128,-1,6
 77 104 77 104 53 187 c 257,7,-1
 50 518 l 257,8,-1
 217 518 l 257,9,-1
 217 188 l 257,10,11
 249 151 249 151 298 151 c 257,12,13
 346 151 346 151 378 186 c 257,14,-1
 378 518 l 257,15,-1
 547 518 l 257,16,-1
 547 2 l 257,0,-1
EndSplineSet
EndChar

StartChar: u09A4
Encoding: 2468 2468 1132
GlifName: u09a4
Width: 726
VWidth: 0
Flags: W
LayerCount: 2
Fore
SplineSet
390 513 m 257,0,-1
 396 634 l 257,1,2
 397 634 397 634 398 634 c 257,3,4
 525 634 525 634 614.5 542 c 128,-1,5
 704 450 704 450 704 320 c 257,6,7
 704 189 704 189 614.5 97 c 128,-1,8
 525 5 525 5 398 5 c 128,-1,9
 271 5 271 5 181.5 97 c 128,-1,10
 92 189 92 189 92 320 c 257,11,-1
 148 325.5 l 2,12,13
 204 331 204 331 204 332 c 257,14,15
 204 329 204 329 204 326 c 257,16,17
 204 248 204 248 257.5 193 c 128,-1,18
 311 138 311 138 387 138 c 128,-1,19
 463 138 463 138 516.5 193 c 128,-1,20
 570 248 570 248 570 326 c 257,21,22
 570 403 570 403 517.5 457.5 c 128,-1,23
 465 512 465 512 390 513 c 257,0,-1
726 803 m 257,24,-1
 726 671 l 257,25,-1
 0 671 l 257,26,-1
 0 803 l 257,27,-1
 726 803 l 257,24,-1
EndSplineSet
EndChar

StartChar: underscore
Encoding: 95 95 1164
GlifName: underscore
Width: 644
VWidth: 0
Flags: W
LayerCount: 2
Fore
SplineSet
594 196 m 257,0,-1
 594 44 l 257,1,-1
 50 44 l 257,2,-1
 50 196 l 257,3,-1
 594 196 l 257,0,-1
EndSplineSet
EndChar

StartChar: uni0237
Encoding: 567 567 1245
GlifName: uni0237
Width: 419
VWidth: 0
Flags: W
LayerCount: 2
Fore
SplineSet
50 -195 m 257,0,-1
 50 -27 l 257,1,2
 81 -53 81 -53 121 -53 c 257,3,4
 170 -53 170 -53 202 -16 c 257,5,-1
 202 517 l 257,6,-1
 369 517 l 257,7,-1
 366 -17 l 257,8,9
 342 -100 342 -100 275 -152 c 128,-1,10
 208 -204 208 -204 121 -204 c 257,11,12
 84 -204 84 -204 50 -195 c 257,0,-1
EndSplineSet
EndChar

StartChar: uni0302
Encoding: 770 770 1249
GlifName: uni0302
Width: 0
VWidth: 0
Flags: W
LayerCount: 2
Fore
SplineSet
-100 766 m 257,0,-1
 -29 934 l 257,1,-1
 -28 934 l 257,2,-1
 47 934 l 257,3,-1
 48 934 l 257,4,-1
 100 766 l 257,5,-1
 24 766 l 257,6,-1
 4 874 l 257,7,-1
 -24 766 l 257,8,-1
 -100 766 l 257,0,-1
EndSplineSet
EndChar

StartChar: uni0304
Encoding: 772 772 1253
GlifName: uni0304
Width: 0
VWidth: 0
Flags: W
LayerCount: 2
Fore
SplineSet
136 858 m 257,0,-1
 136 782 l 257,1,-1
 -136 782 l 257,2,-1
 -136 858 l 257,3,-1
 136 858 l 257,0,-1
EndSplineSet
EndChar

StartChar: uni0306
Encoding: 774 774 1257
GlifName: uni0306
Width: 0
VWidth: 0
Flags: W
LayerCount: 2
Fore
SplineSet
128 932 m 257,0,-1
 128 918 l 257,1,2
 128 865 128 865 91 827.5 c 128,-1,3
 54 790 54 790 0 790 c 257,4,5
 -54 790 -54 790 -91 827 c 128,-1,6
 -128 864 -128 864 -128 918 c 257,7,-1
 -128 932 l 257,8,-1
 -52 932 l 257,9,10
 -54 924 -54 924 -54 918 c 257,11,12
 -54 896 -54 896 -38 880 c 128,-1,13
 -22 864 -22 864 0.5 864 c 128,-1,14
 23 864 23 864 38.5 880 c 128,-1,15
 54 896 54 896 54 918 c 257,16,17
 54 924 54 924 52 932 c 257,18,-1
 128 932 l 257,0,-1
EndSplineSet
EndChar

StartChar: uni0307
Encoding: 775 775 1261
GlifName: uni0307
Width: 0
VWidth: 0
Flags: W
LayerCount: 2
Fore
SplineSet
-76 498 m 257,0,-1
 -76 640 l 257,1,-1
 76 640 l 257,2,-1
 76 498 l 257,3,-1
 -76 498 l 257,0,-1
EndSplineSet
EndChar

StartChar: uni0308
Encoding: 776 776 1265
GlifName: uni0308
Width: 0
VWidth: 0
Flags: W
LayerCount: 2
Fore
SplineSet
-176 498 m 257,0,-1
 -176 640 l 257,1,-1
 -24 640 l 257,2,-1
 -24 498 l 257,3,-1
 -176 498 l 257,0,-1
24 498 m 257,4,-1
 24 640 l 257,5,-1
 176 640 l 257,6,-1
 176 498 l 257,7,-1
 24 498 l 257,4,-1
EndSplineSet
EndChar

StartChar: uni030A
Encoding: 778 778 1269
GlifName: uni030A_
Width: 0
VWidth: 0
Flags: W
LayerCount: 2
Fore
SplineSet
-12 612 m 257,0,-1
 -12 613 l 256,1,-1
 -12 613 l 257,2,3
 -31 609 -31 609 -42.5 594.5 c 128,-1,4
 -54 580 -54 580 -54 560 c 257,5,6
 -54 541 -54 541 -42.5 526.5 c 128,-1,7
 -31 512 -31 512 -12 508 c 257,8,-1
 -12 509 l 257,9,10
 -4 507 -4 507 0 507 c 128,-1,11
 4 507 4 507 12 509 c 257,12,-1
 12 508 l 257,13,14
 31 512 31 512 42.5 526.5 c 128,-1,15
 54 541 54 541 54 560 c 257,16,17
 54 580 54 580 42.5 594.5 c 128,-1,18
 31 609 31 609 12 613 c 257,19,-1
 12 612 l 257,20,21
 4 614 4 614 0 614 c 128,-1,22
 -4 614 -4 614 -12 612 c 257,0,-1
  PathStart: -2
-1 432 m 257,23,-1
 -3 432 l 257,24,-1
 -10 432 l 257,25,26
 -61 436 -61 436 -95.5 472.5 c 128,-1,27
 -130 509 -130 509 -130 560 c 128,-1,28
 -130 611 -130 611 -95 648 c 128,-1,29
 -60 685 -60 685 -10 689 c 257,30,-1
 -3 689 l 257,31,-1
 -1 689 l 257,32,-1
 1 689 l 257,33,34
 55 689 55 689 92.5 651.5 c 128,-1,35
 130 614 130 614 130 560 c 257,36,37
 130 507 130 507 92.5 469.5 c 128,-1,38
 55 432 55 432 1 432 c 257,39,-1
 -1 432 l 257,23,-1
EndSplineSet
EndChar

StartChar: uni030B
Encoding: 779 779 1273
GlifName: uni030B_
Width: 0
VWidth: 0
Flags: W
LayerCount: 2
Fore
SplineSet
-180 516 m 257,0,-1
 -288 623 l 257,1,-1
 -106 805 l 257,2,-1
 2 698 l 257,3,-1
 -180 516 l 257,0,-1
106 514 m 257,4,-1
 -2 621 l 257,5,-1
 180 803 l 257,6,-1
 288 696 l 257,7,-1
 106 514 l 257,4,-1
EndSplineSet
EndChar

StartChar: uni030C
Encoding: 780 780 1277
GlifName: uni030C_
Width: 0
VWidth: 0
Flags: W
LayerCount: 2
Fore
SplineSet
-100 934 m 257,0,-1
 -24 934 l 257,1,-1
 4 826 l 257,2,-1
 24 934 l 257,3,-1
 100 934 l 257,4,-1
 48 766 l 257,5,-1
 47 766 l 257,6,-1
 -28 766 l 257,7,-1
 -29 766 l 257,8,-1
 -100 934 l 257,0,-1
EndSplineSet
EndChar

StartChar: uni030F
Encoding: 783 783 1281
GlifName: uni030F_
Width: 0
VWidth: 0
Flags: W
LayerCount: 2
Fore
SplineSet
180 516 m 257,0,-1
 -2 698 l 257,1,-1
 106 805 l 257,2,-1
 288 623 l 257,3,-1
 180 516 l 257,0,-1
-106 514 m 257,4,-1
 -288 696 l 257,5,-1
 -180 803 l 257,6,-1
 2 621 l 257,7,-1
 -106 514 l 257,4,-1
EndSplineSet
EndChar

StartChar: uni0312
Encoding: 786 786 1285
GlifName: uni0312
Width: 0
VWidth: 0
Flags: W
LayerCount: 2
Fore
SplineSet
76 408 m 257,0,-1
 76 266 l 257,1,-1
 -76 266 l 257,2,-1
 -76 408 l 257,3,-1
 -16 540 l 257,4,-1
 42 536 l 257,5,-1
 33 408 l 257,6,-1
 76 408 l 257,0,-1
EndSplineSet
EndChar

StartChar: uni0313
Encoding: 787 787 1289
GlifName: uni0313
Width: 0
VWidth: 0
Flags: W
LayerCount: 2
Fore
SplineSet
-76 398 m 257,0,-1
 -76 540 l 257,1,-1
 76 540 l 257,2,-1
 76 398 l 257,3,-1
 16 266 l 257,4,-1
 -42 270 l 257,5,-1
 -33 398 l 257,6,-1
 -76 398 l 257,0,-1
EndSplineSet
EndChar

StartChar: uni0326
Encoding: 806 806 1293
GlifName: uni0326
Width: 0
VWidth: 0
LayerCount: 2
Fore
SplineSet
-126 98 m 257,0,-1
 -126 240 l 257,1,-1
 26 240 l 257,2,-1
 26 98 l 257,3,-1
 -34 -34 l 257,4,-1
 -92 -30 l 257,5,-1
 -83 98 l 257,6,-1
 -126 98 l 257,0,-1
EndSplineSet
EndChar

StartChar: uni0327
Encoding: 807 807 1297
GlifName: uni0327
Width: 0
VWidth: 0
LayerCount: 2
Fore
SplineSet
-121 -68 m 257,0,-1
 -121 9 l 257,1,2
 -113 7 -113 7 -108 7 c 257,3,4
 -85 7 -85 7 -69.5 22.5 c 128,-1,5
 -54 38 -54 38 -54 60 c 128,-1,6
 -54 82 -54 82 -70 98 c 128,-1,7
 -86 114 -86 114 -108 114 c 257,8,9
 -113 114 -113 114 -121 112 c 257,10,-1
 -121 189 l 257,11,-1
 -108 189 l 257,12,13
 -54 189 -54 189 -16.5 151.5 c 128,-1,14
 21 114 21 114 21 60 c 257,15,16
 21 7 21 7 -16.5 -30.5 c 128,-1,17
 -54 -68 -54 -68 -108 -68 c 257,18,-1
 -121 -68 l 257,0,-1
EndSplineSet
EndChar

StartChar: uni0328
Encoding: 808 808 1301
GlifName: uni0328
Width: 0
VWidth: 0
LayerCount: 2
Fore
SplineSet
21 -68 m 257,0,-1
 8 -68 l 257,1,2
 -46 -68 -46 -68 -83.5 -30.5 c 128,-1,3
 -121 7 -121 7 -121 60 c 257,4,5
 -121 114 -121 114 -83.5 151.5 c 128,-1,6
 -46 189 -46 189 8 189 c 257,7,-1
 21 189 l 257,8,-1
 21 112 l 257,9,10
 13 114 13 114 8 114 c 257,11,12
 -14 114 -14 114 -30 98 c 128,-1,13
 -46 82 -46 82 -46 60 c 128,-1,14
 -46 38 -46 38 -30.5 22.5 c 128,-1,15
 -15 7 -15 7 8 7 c 257,16,17
 13 7 13 7 21 9 c 257,18,-1
 21 -68 l 257,0,-1
EndSplineSet
EndChar

StartChar: u0964
Encoding: 2404 2404 1305
GlifName: u0964
Width: 252
VWidth: 0
Flags: W
LayerCount: 2
Fore
SplineSet
202 370 m 257,0,-1
 202 -30 l 257,1,-1
 50 -30 l 257,2,-1
 50 370 l 257,3,-1
 202 370 l 257,0,-1
EndSplineSet
EndChar

StartChar: u0980
Encoding: 2432 2432 1313
GlifName: u0980
Width: 534
VWidth: 0
Flags: W
LayerCount: 2
Fore
SplineSet
210 343 m 257,0,-1
 210 265 l 257,1,2
 107 265 107 265 53.5 337.5 c 128,-1,3
 0 410 0 410 0 523 c 257,4,5
 0 630 0 630 75.5 705 c 128,-1,6
 151 780 151 780 258 780 c 257,7,-1
 264 780 l 257,8,9
 270 780 270 780 276.5 780.5 c 128,-1,10
 283 781 283 781 293.5 780.5 c 128,-1,11
 304 780 304 780 314 779 c 128,-1,12
 324 778 324 778 335.5 776 c 128,-1,13
 347 774 347 774 357 771 c 128,-1,14
 367 768 367 768 377 763 c 128,-1,15
 387 758 387 758 395 752 c 257,16,17
 412 738 412 738 421.5 707.5 c 128,-1,18
 431 677 431 677 432 654 c 257,19,-1
 434 631 l 257,20,-1
 434 3 l 257,21,-1
 282 3 l 257,22,-1
 282 266 l 257,23,24
 280 266 280 266 281 297.5 c 128,-1,25
 282 329 282 329 284 356.5 c 128,-1,26
 286 384 286 384 283 388 c 257,27,-1
 282 419 l 257,28,-1
 282 626 l 257,29,30
 270 629 270 629 258 629 c 257,31,32
 213 629 213 629 182 598 c 128,-1,33
 151 567 151 567 151 523 c 257,34,35
 151 498 151 498 151.5 488 c 128,-1,36
 152 478 152 478 154.5 460.5 c 128,-1,37
 157 443 157 443 163 435.5 c 128,-1,38
 169 428 169 428 181 422 c 128,-1,39
 193 416 193 416 210 416 c 257,40,-1
 210 397 l 257,41,42
 210 378 210 378 209.5 362 c 128,-1,43
 209 346 209 346 210 343 c 257,0,-1
EndSplineSet
EndChar

StartChar: u0981
Encoding: 2433 2433 1317
GlifName: u0981
Width: 0
VWidth: 0
LayerCount: 2
Fore
SplineSet
-61 658 m 257,0,-1
 -61 772 l 257,1,-1
 61 772 l 257,2,-1
 61 658 l 257,3,-1
 -61 658 l 257,0,-1
193 619 m 257,4,-1
 193 600 l 257,5,6
 193 519 193 519 137 462.5 c 128,-1,7
 81 406 81 406 1 406 c 257,8,9
 -80 406 -80 406 -136.5 462.5 c 128,-1,10
 -193 519 -193 519 -193 600 c 257,11,-1
 -193 619 l 257,12,-1
 -77 619 l 257,13,14
 -80 610 -80 610 -80 600 c 257,15,16
 -80 566 -80 566 -56.5 542.5 c 128,-1,17
 -33 519 -33 519 1 519 c 128,-1,18
 35 519 35 519 57.5 542.5 c 128,-1,19
 80 566 80 566 80 600 c 257,20,21
 80 610 80 610 77 619 c 257,22,-1
 193 619 l 257,4,-1
EndSplineSet
EndChar

StartChar: u0982
Encoding: 2434 2434 1321
GlifName: u0982
Width: 445
VWidth: 0
Flags: W
LayerCount: 2
Fore
SplineSet
159 427 m 257,0,-1
 392 69 l 257,1,-1
 286 8 l 257,2,-1
 53 366 l 257,3,-1
 159 427 l 257,0,-1
194 663 m 257,4,-1
 194 664 l 256,5,-1
 194 664 l 257,6,7
 175 660 175 660 163.5 645.5 c 128,-1,8
 152 631 152 631 152 611 c 257,9,10
 152 592 152 592 163.5 577.5 c 128,-1,11
 175 563 175 563 194 559 c 257,12,-1
 194 560 l 257,13,14
 202 558 202 558 206 558 c 128,-1,15
 210 558 210 558 218 560 c 257,16,-1
 218 559 l 257,17,18
 237 563 237 563 248.5 577.5 c 128,-1,19
 260 592 260 592 260 611 c 257,20,21
 260 631 260 631 248.5 645.5 c 128,-1,22
 237 660 237 660 218 664 c 257,23,-1
 218 663 l 257,24,25
 210 665 210 665 206 665 c 128,-1,26
 202 665 202 665 194 663 c 257,4,-1
  PathStart: -2
205 483 m 257,27,-1
 203 483 l 257,28,-1
 196 483 l 257,29,30
 145 487 145 487 110.5 523.5 c 128,-1,31
 76 560 76 560 76 611 c 128,-1,32
 76 662 76 662 111 699 c 128,-1,33
 146 736 146 736 196 740 c 257,34,-1
 203 740 l 257,35,-1
 205 740 l 257,36,-1
 207 740 l 257,37,38
 261 740 261 740 298.5 702.5 c 128,-1,39
 336 665 336 665 336 611 c 257,40,41
 336 558 336 558 298.5 520.5 c 128,-1,42
 261 483 261 483 207 483 c 257,43,-1
 205 483 l 257,27,-1
EndSplineSet
EndChar

StartChar: u0983
Encoding: 2435 2435 1325
GlifName: u0983
Width: 445
VWidth: 0
Flags: W
LayerCount: 2
Fore
SplineSet
210.5 663 m 257,0,-1
 210.5 664 l 256,1,-1
 210.5 664 l 257,2,3
 191.5 660 191.5 660 180 645.5 c 128,-1,4
 168.5 631 168.5 631 168.5 611 c 257,5,6
 168.5 592 168.5 592 180 577.5 c 128,-1,7
 191.5 563 191.5 563 210.5 559 c 257,8,-1
 210.5 560 l 257,9,10
 218.5 558 218.5 558 222.5 558 c 128,-1,11
 226.5 558 226.5 558 234.5 560 c 257,12,-1
 234.5 559 l 257,13,14
 253.5 563 253.5 563 265 577.5 c 128,-1,15
 276.5 592 276.5 592 276.5 611 c 257,16,17
 276.5 631 276.5 631 265 645.5 c 128,-1,18
 253.5 660 253.5 660 234.5 664 c 257,19,-1
 234.5 663 l 257,20,21
 226.5 665 226.5 665 222.5 665 c 128,-1,22
 218.5 665 218.5 665 210.5 663 c 257,0,-1
  PathStart: -2
221.5 483 m 257,23,-1
 219.5 483 l 257,24,-1
 212.5 483 l 257,25,26
 161.5 487 161.5 487 127 523.5 c 128,-1,27
 92.5 560 92.5 560 92.5 611 c 128,-1,28
 92.5 662 92.5 662 127.5 699 c 128,-1,29
 162.5 736 162.5 736 212.5 740 c 257,30,-1
 219.5 740 l 257,31,-1
 221.5 740 l 257,32,-1
 223.5 740 l 257,33,34
 277.5 740 277.5 740 315 702.5 c 128,-1,35
 352.5 665 352.5 665 352.5 611 c 257,36,37
 352.5 558 352.5 558 315 520.5 c 128,-1,38
 277.5 483 277.5 483 223.5 483 c 257,39,-1
 221.5 483 l 257,23,-1
210.5 263 m 257,40,-1
 210.5 264 l 256,41,-1
 210.5 264 l 257,42,43
 191.5 260 191.5 260 180 245.5 c 128,-1,44
 168.5 231 168.5 231 168.5 211 c 257,45,46
 168.5 192 168.5 192 180 177.5 c 128,-1,47
 191.5 163 191.5 163 210.5 159 c 257,48,-1
 210.5 160 l 257,49,50
 218.5 158 218.5 158 222.5 158 c 128,-1,51
 226.5 158 226.5 158 234.5 160 c 257,52,-1
 234.5 159 l 257,53,54
 253.5 163 253.5 163 265 177.5 c 128,-1,55
 276.5 192 276.5 192 276.5 211 c 257,56,57
 276.5 231 276.5 231 265 245.5 c 128,-1,58
 253.5 260 253.5 260 234.5 264 c 257,59,-1
 234.5 263 l 257,60,61
 226.5 265 226.5 265 222.5 265 c 128,-1,62
 218.5 265 218.5 265 210.5 263 c 257,40,-1
  PathStart: -2
221.5 83 m 257,63,-1
 219.5 83 l 257,64,-1
 212.5 83 l 257,65,66
 161.5 87 161.5 87 127 123.5 c 128,-1,67
 92.5 160 92.5 160 92.5 211 c 128,-1,68
 92.5 262 92.5 262 127.5 299 c 128,-1,69
 162.5 336 162.5 336 212.5 340 c 257,70,-1
 219.5 340 l 257,71,-1
 221.5 340 l 257,72,-1
 223.5 340 l 257,73,74
 277.5 340 277.5 340 315 302.5 c 128,-1,75
 352.5 265 352.5 265 352.5 211 c 257,76,77
 352.5 158 352.5 158 315 120.5 c 128,-1,78
 277.5 83 277.5 83 223.5 83 c 257,79,-1
 221.5 83 l 257,63,-1
EndSplineSet
EndChar

StartChar: u0985
Encoding: 2437 2437 1329
GlifName: u0985
Width: 946
VWidth: 0
Flags: W
LayerCount: 2
Fore
SplineSet
401 505 m 257,0,-1
 396 634 l 257,1,2
 397 634 397 634 398 634 c 257,3,4
 525 634 525 634 614.5 542 c 128,-1,5
 704 450 704 450 704 320 c 257,6,7
 704 301 704 301 701 283 c 257,8,-1
 773 211 l 257,9,-1
 773 671 l 257,10,-1
 0 671 l 257,11,-1
 0 803 l 257,12,-1
 946 803 l 257,13,-1
 946 671 l 257,14,-1
 925 671 l 257,15,-1
 925 0 l 257,16,-1
 773 0 l 257,17,-1
 771 -2 l 257,18,-1
 641 128 l 257,19,20
 598 71 598 71 534.5 38 c 128,-1,21
 471 5 471 5 398 5 c 257,22,23
 271 5 271 5 181.5 97 c 128,-1,24
 92 189 92 189 92 320 c 257,25,-1
 153.5 321.5 l 2,26,27
 215 323 215 323 215 324 c 257,28,29
 215 321 215 321 215 318 c 257,30,31
 215 240 215 240 268.5 185 c 128,-1,32
 322 130 322 130 398 130 c 128,-1,33
 474 130 474 130 527.5 185 c 128,-1,34
 581 240 581 240 581 318 c 257,35,36
 581 395 581 395 528.5 449.5 c 128,-1,37
 476 504 476 504 401 505 c 257,0,-1
EndSplineSet
EndChar

StartChar: u0986
Encoding: 2438 2438 1333
GlifName: u0986
Width: 1261
VWidth: 0
Flags: W
LayerCount: 2
Fore
SplineSet
1061 850 m 257,0,-1
 1213 850 l 257,1,-1
 1213 803 l 257,2,-1
 1261 803 l 257,3,-1
 1261 671 l 257,4,-1
 1213 671 l 257,5,-1
 1213 -2 l 257,6,-1
 1061 -2 l 257,7,-1
 1061 489 l 257,8,-1
 1059 487 l 257,9,-1
 925 625 l 257,10,-1
 925 0 l 257,11,-1
 773 0 l 257,12,-1
 771 -2 l 257,13,-1
 641 128 l 257,14,15
 598 71 598 71 534.5 38 c 128,-1,16
 471 5 471 5 398 5 c 257,17,18
 271 5 271 5 181.5 97 c 128,-1,19
 92 189 92 189 92 320 c 257,20,-1
 153.5 321.5 l 2,21,22
 215 323 215 323 215 324 c 257,23,24
 215 321 215 321 215 318 c 257,25,26
 215 240 215 240 268.5 185 c 128,-1,27
 322 130 322 130 398 130 c 128,-1,28
 474 130 474 130 527.5 185 c 128,-1,29
 581 240 581 240 581 318 c 257,30,31
 581 395 581 395 528.5 449.5 c 128,-1,32
 476 504 476 504 401 505 c 257,33,-1
 396 634 l 257,34,35
 397 634 397 634 398 634 c 257,36,37
 525 634 525 634 614.5 542 c 128,-1,38
 704 450 704 450 704 320 c 257,39,40
 704 301 704 301 701 283 c 257,41,-1
 773 211 l 257,42,-1
 773 671 l 257,43,-1
 0 671 l 257,44,-1
 0 800 l 257,45,-1
 754 800 l 257,46,-1
 946 800 l 257,47,-1
 955 800 l 257,48,-1
 1061 697 l 257,49,-1
 1061 850 l 257,0,-1
EndSplineSet
EndChar

StartChar: u0987
Encoding: 2439 2439 1337
GlifName: u0987
Width: 689
VWidth: 0
Flags: W
LayerCount: 2
Fore
SplineSet
689 803 m 257,0,-1
 689 671 l 257,1,-1
 0 671 l 257,2,-1
 0 803 l 257,3,-1
 333 803 l 257,4,5
 324 849 324 849 300 873 c 257,6,7
 268 904 268 904 237 935 c 257,8,9
 213 959 213 959 160.5 972.5 c 128,-1,10
 108 986 108 986 85 1010 c 257,11,12
 69 1025 69 1025 58.5 1055 c 128,-1,13
 48 1085 48 1085 46 1108 c 257,14,-1
 44 1130 l 257,15,-1
 132 1218 l 257,16,17
 133 1209 133 1209 135 1193.5 c 128,-1,18
 137 1178 137 1178 148.5 1144.5 c 128,-1,19
 160 1111 160 1111 176 1095 c 257,20,21
 198 1073 198 1073 249.5 1061 c 128,-1,22
 301 1049 301 1049 324 1027 c 257,23,-1
 394 956 l 257,24,25
 408 942 408 942 416.5 921.5 c 128,-1,26
 425 901 425 901 427 882 c 128,-1,27
 429 863 429 863 429 846 c 128,-1,28
 429 829 429 829 428 818.5 c 2,29,-1
 427 808 l 257,30,-1
 422 803 l 257,31,-1
 689 803 l 257,0,-1
236 472 m 257,32,-1
 128 578 l 257,33,34
 205 655 205 655 311.5 656 c 128,-1,35
 418 657 418 657 495 580 c 257,36,37
 571 503 571 503 570 397 c 128,-1,38
 569 291 569 291 492 214 c 257,39,40
 455 176 455 176 412 156 c 257,41,-1
 593 -1 l 257,42,-1
 434 -1 l 257,43,-1
 226 153 l 257,44,45
 173 175 173 175 131 217 c 257,46,-1
 233 320 l 257,47,-1
 234 319 l 257,48,49
 266 287 266 287 309 287.5 c 128,-1,50
 352 288 352 288 386 321 c 257,51,52
 419 355 419 355 419.5 398 c 128,-1,53
 420 441 420 441 388 473 c 257,54,55
 356 505 356 505 313 505 c 128,-1,56
 270 505 270 505 236 472 c 257,32,-1
EndSplineSet
EndChar

StartChar: u0988
Encoding: 2440 2440 1341
GlifName: u0988
Width: 1077
VWidth: 0
Flags: W
LayerCount: 2
Fore
SplineSet
236 472 m 257,0,-1
 128 578 l 257,1,2
 205 655 205 655 311.5 656 c 128,-1,3
 418 657 418 657 495 580 c 257,4,5
 542 533 542 533 560 470 c 257,6,-1
 639 535 l 257,7,8
 654 559 654 559 675 580 c 257,9,10
 715 620 715 620 768 640 c 257,11,-1
 778 648 l 257,12,-1
 777 643 l 257,13,14
 843 666 843 666 915.5 649 c 128,-1,15
 988 632 988 632 1042 578 c 257,16,-1
 934 472 l 257,17,18
 900 505 900 505 857 505 c 128,-1,19
 814 505 814 505 782 473 c 257,20,21
 750 441 750 441 750.5 398 c 128,-1,22
 751 355 751 355 784 321 c 257,23,24
 818 288 818 288 861 287.5 c 128,-1,25
 904 287 904 287 936 319 c 257,26,-1
 937 320 l 257,27,-1
 1039 217 l 257,28,29
 992 169 992 169 932.5 147.5 c 128,-1,30
 873 126 873 126 804 141 c 128,-1,31
 735 156 735 156 678 214 c 257,32,33
 624 268 624 268 607 341 c 257,34,-1
 534 265 l 257,35,-1
 533 266 l 257,36,37
 516 237 516 237 492 214 c 257,38,39
 435 156 435 156 366 141 c 128,-1,40
 297 126 297 126 237.5 147.5 c 128,-1,41
 178 169 178 169 131 217 c 257,42,-1
 233 320 l 257,43,-1
 234 319 l 257,44,45
 266 287 266 287 309 287.5 c 128,-1,46
 352 288 352 288 386 321 c 257,47,48
 390 325 390 325 393 329 c 257,49,-1
 389 331 l 257,50,-1
 403 342 l 257,51,52
 423 374 423 374 419 410 c 128,-1,53
 415 446 415 446 388 473 c 257,54,55
 356 505 356 505 313 505 c 128,-1,56
 270 505 270 505 236 472 c 257,0,-1
1077 803 m 257,57,-1
 1077 671 l 257,58,-1
 0 671 l 257,59,-1
 0 803 l 257,60,-1
 538 803 l 257,61,62
 529 849 529 849 505 873 c 257,63,64
 473 904 473 904 442 935 c 257,65,66
 418 959 418 959 365.5 972.5 c 128,-1,67
 313 986 313 986 290 1010 c 257,68,69
 274 1025 274 1025 263.5 1055 c 128,-1,70
 253 1085 253 1085 251 1108 c 257,71,-1
 249 1130 l 257,72,-1
 337 1218 l 257,73,74
 338 1209 338 1209 340 1193.5 c 128,-1,75
 342 1178 342 1178 353.5 1144.5 c 128,-1,76
 365 1111 365 1111 381 1095 c 257,77,78
 403 1073 403 1073 454.5 1061 c 128,-1,79
 506 1049 506 1049 529 1027 c 257,80,-1
 599 956 l 257,81,82
 613 942 613 942 621.5 921.5 c 128,-1,83
 630 901 630 901 632 882 c 128,-1,84
 634 863 634 863 634 846 c 128,-1,85
 634 829 634 829 633 818.5 c 2,86,-1
 632 808 l 257,87,-1
 627 803 l 257,88,-1
 1077 803 l 257,57,-1
EndSplineSet
EndChar

StartChar: u0989
Encoding: 2441 2441 1345
GlifName: u0989
Width: 616
VWidth: 0
Flags: W
LayerCount: 2
Fore
SplineSet
616 803 m 257,0,-1
 616 671 l 257,1,-1
 441 671 l 257,2,-1
 441 484 l 257,3,4
 501 450 501 450 536.5 390.5 c 128,-1,5
 572 331 572 331 570 260 c 257,6,7
 567 151 567 151 492 77 c 128,-1,8
 417 3 417 3 309 3 c 257,9,10
 247 3 247 3 198 25 c 128,-1,11
 149 47 149 47 118.5 84 c 128,-1,12
 88 121 88 121 72 166.5 c 128,-1,13
 56 212 56 212 56 261 c 257,14,-1
 201 261 l 257,15,-1
 201 260 l 257,16,17
 201 215 201 215 232 185 c 128,-1,18
 263 155 263 155 310 154 c 257,19,20
 357 155 357 155 388 185 c 128,-1,21
 419 215 419 215 419 260 c 257,22,23
 419 302 419 302 392.5 331.5 c 128,-1,24
 366 361 366 361 324 366 c 257,25,-1
 309 366 l 257,26,-1
 309 518 l 257,27,-1
 309 518 l 257,28,-1
 309 671 l 257,29,-1
 0 671 l 257,30,-1
 0 803 l 257,31,-1
 299 803 l 257,32,33
 289 850 289 850 265 875 c 257,34,35
 234 906 234 906 202 938 c 257,36,37
 178 961 178 961 125.5 975 c 128,-1,38
 73 989 73 989 50 1012 c 257,39,40
 34 1028 34 1028 24 1058 c 128,-1,41
 14 1088 14 1088 11 1110 c 257,42,-1
 9 1132 l 257,43,-1
 97 1220 l 257,44,45
 98 1211 98 1211 100.5 1195.5 c 128,-1,46
 103 1180 103 1180 114 1146.5 c 128,-1,47
 125 1113 125 1113 141 1097 c 257,48,49
 164 1075 164 1075 215 1063 c 128,-1,50
 266 1051 266 1051 289 1029 c 258,51,-1
 359 958 l 258,52,53
 373 944 373 944 381.5 923.5 c 128,-1,54
 390 903 390 903 392 884 c 0,55,56
 394.357894737 861.6 394.357894737 861.6 394 848 c 2,57,-1
 393 810 l 284,58,-1
 385 803 l 257,59,-1
 616 803 l 257,0,-1
EndSplineSet
EndChar

StartChar: u098A
Encoding: 2442 2442 1349
GlifName: u098A_
Width: 616
VWidth: 0
Flags: W
LayerCount: 2
Fore
SplineSet
616 803 m 1,0,-1
 616 671 l 1,1,-1
 441 671 l 1,2,-1
 441 484 l 1,3,4
 501 450 501 450 536.5 390.5 c 128,-1,5
 572 331 572 331 570 260 c 0,6,7
 567 151 567 151 492 77 c 0,8,9
 418 4 418 4 311.395130811 3.00912972952 c 1,10,-1
 172 -50 l 24,11,-1
 8 -1 l 5,12,-1
 20 120 l 5,13,-1
 131.374933691 69.8647160357 l 1,14,15
 125 77 125 77 118.5 84 c 0,16,17
 88 121 88 121 72 166.5 c 128,-1,18
 56 212 56 212 56 261 c 1,19,-1
 201 261 l 1,20,-1
 201 260 l 2,21,22
 201 215 201 215 232 185 c 0,23,24
 265 153 265 153 310 154 c 0,25,26
 357 155 357 155 388 185 c 128,-1,27
 419 215 419 215 419 260 c 0,28,29
 419 302 419 302 392.5 331.5 c 128,-1,30
 366 361 366 361 324 366 c 1,31,-1
 309 366 l 1,32,-1
 309 518 l 1,33,-1
 309 671 l 1,34,-1
 0 671 l 1,35,-1
 0 803 l 1,36,-1
 299 803 l 1,37,38
 289 850 289 850 265 875 c 0,39,40
 234 906 234 906 202 938 c 0,41,42
 178 961 178 961 125.5 975 c 128,-1,43
 73 989 73 989 50 1012 c 0,44,45
 34 1028 34 1028 24 1058 c 0,46,47
 12.4942528736 1093.56321839 12.4942528736 1093.56321839 11 1110 c 2,48,-1
 9 1132 l 1,49,-1
 97 1220 l 1,50,51
 98 1211 98 1211 100.5 1195.5 c 128,-1,52
 103 1180 103 1180 114 1146.5 c 128,-1,53
 125 1113 125 1113 141 1097 c 0,54,55
 164 1075 164 1075 215 1063 c 0,56,57
 267.40112202 1050.90743338 267.40112202 1050.90743338 289 1029 c 2,58,-1
 359 958 l 2,59,60
 373 944 373 944 381.5 923.5 c 128,-1,61
 390 903 390 903 392 884 c 128,-1,62
 394 865 394 865 394 848 c 128,-1,63
 394 831 394 831 393 820.5 c 128,-1,64
 392 810 392 810 393 810 c 1,65,-1
 385 803 l 1,66,-1
 616 803 l 1,0,-1
EndSplineSet
EndChar

StartChar: u098B
Encoding: 2443 2443 1351
GlifName: u098B_
Width: 1344
VWidth: 0
Flags: W
LayerCount: 2
Fore
SplineSet
897 777 m 257,0,-1
 1043 777 l 257,1,-1
 1043 286 l 257,2,-1
 1117 211 l 257,3,-1
 1117 776 l 257,4,-1
 1119 776 l 257,5,-1
 1119 795 l 257,6,-1
 1319 795 l 257,7,-1
 1319 663 l 257,8,-1
 1269 663 l 257,9,-1
 1269 0 l 257,10,-1
 1118 0 l 257,11,-1
 1115 -2 l 257,12,-1
 1043 70 l 257,13,-1
 1043 1 l 257,14,-1
 897 1 l 257,15,-1
 896 1 l 257,16,-1
 443 180 l 257,17,-1
 443 332 l 257,18,-1
 690 562 l 257,19,-1
 700 629 l 257,20,21
 680 572 680 572 630.5 536 c 128,-1,22
 581 500 581 500 519 500 c 257,23,24
 474 500 474 500 434.5 519 c 128,-1,25
 395 538 395 538 368 571 c 257,26,27
 341 538 341 538 302 519 c 128,-1,28
 263 500 263 500 219 500 c 257,29,30
 138 500 138 500 81.5 556.5 c 128,-1,31
 25 613 25 613 25 694 c 257,32,-1
 25 713 l 257,33,-1
 141 713 l 257,34,35
 138 704 138 704 138 694 c 257,36,37
 138 660 138 660 161.5 636.5 c 128,-1,38
 185 613 185 613 219 613 c 128,-1,39
 253 613 253 613 275.5 636.5 c 128,-1,40
 298 660 298 660 298 694 c 257,41,42
 298 704 298 704 295 713 c 257,43,-1
 325 713 l 257,44,-1
 411 713 l 257,45,-1
 441 713 l 257,46,47
 438 704 438 704 438 694 c 257,48,49
 438 660 438 660 461.5 636.5 c 128,-1,50
 485 613 485 613 519 613 c 128,-1,51
 553 613 553 613 575.5 636.5 c 128,-1,52
 598 660 598 660 598 694 c 257,53,54
 598 704 598 704 595 713 c 257,55,-1
 711 713 l 257,56,-1
 711 701 l 257,57,-1
 713 714 l 257,58,-1
 897 714 l 257,59,-1
 897 777 l 257,0,-1
896 160 m 257,60,-1
 896 709 l 257,61,-1
 729 444 l 257,62,-1
 728 445 l 257,63,-1
 587 274 l 257,64,-1
 896 160 l 257,60,-1
EndSplineSet
EndChar

StartChar: u098B.0
Encoding: 66547 -1 1352
GlifName: u098B_.0
Width: 1344
VWidth: 0
Flags: W
LayerCount: 2
Fore
SplineSet
872 787 m 257,0,-1
 872 724 l 257,1,-1
 688 724 l 257,2,-1
 686 711 l 257,3,-1
 686 723 l 257,4,-1
 570 723 l 257,5,6
 573 714 573 714 573 704 c 257,7,8
 573 670 573 670 551 647 c 257,9,10
 528 623 528 623 494 623 c 257,11,12
 460 623 460 623 437 647 c 257,13,14
 413 670 413 670 413 704 c 257,15,16
 413 714 413 714 416 723 c 257,17,-1
 386 723 l 257,18,-1
 300 723 l 257,19,-1
 270 723 l 257,20,21
 273 714 273 714 273 704 c 257,22,23
 273 670 273 670 251 647 c 257,24,25
 228 623 228 623 194 623 c 257,26,27
 160 623 160 623 137 647 c 257,28,29
 113 670 113 670 113 704 c 257,30,31
 113 714 113 714 116 723 c 257,32,-1
 0 723 l 257,33,-1
 0 704 l 257,34,35
 0 623 0 623 57 567 c 257,36,37
 113 510 113 510 194 510 c 257,38,39
 238 510 238 510 277 529 c 257,40,41
 316 548 316 548 343 581 c 257,42,43
 370 548 370 548 410 529 c 257,44,45
 449 510 449 510 494 510 c 257,46,47
 556 510 556 510 606 546 c 257,48,49
 655 582 655 582 675 639 c 257,50,-1
 665 572 l 257,51,-1
 418 342 l 257,52,-1
 418 190 l 257,53,-1
 871 11 l 257,54,-1
 872 11 l 257,55,-1
 1018 11 l 257,56,-1
 1018 80 l 257,57,-1
 1090 8 l 257,58,-1
 1093 10 l 257,59,-1
 1244 10 l 257,60,-1
 1244 673 l 257,61,-1
 1294 673 l 257,62,-1
 1294 805 l 257,63,-1
 1094 805 l 257,64,-1
 1094 786 l 257,65,-1
 1092 786 l 257,66,-1
 1092 221 l 257,67,-1
 1018 296 l 257,68,-1
 1018 787 l 257,69,-1
 872 787 l 257,0,-1
871 170 m 257,70,-1
 562 284 l 257,71,-1
 703 455 l 257,72,-1
 704 454 l 257,73,-1
 871 719 l 257,74,-1
 871 170 l 257,70,-1
EndSplineSet
EndChar

StartChar: u098C
Encoding: 2444 2444 1355
GlifName: u098C_
Width: 779
VWidth: 0
Flags: W
LayerCount: 2
Fore
SplineSet
103.603515625 104 m 257,0,1
 102.603515625 117 102.603515625 117 102.603515625 130 c 257,2,3
 102.603515625 237 102.603515625 237 177.603515625 312.5 c 128,-1,4
 252.603515625 388 252.603515625 388 359.603515625 388 c 257,5,6
 429.603515625 388 429.603515625 388 488.603515625 353.5 c 128,-1,7
 547.603515625 319 547.603515625 319 581.603515625 261 c 257,8,9
 595.603515625 320 595.603515625 320 579.603515625 379 c 128,-1,10
 563.603515625 438 563.603515625 438 518.603515625 483 c 257,11,12
 449.603515625 552 449.603515625 552 353.603515625 553.5 c 128,-1,13
 257.603515625 555 257.603515625 555 190.603515625 487 c 257,14,15
 163.603515625 461 163.603515625 461 147.603515625 427 c 257,16,-1
 32.603515625 542 l 257,17,18
 53.603515625 572 53.603515625 572 79.603515625 598 c 257,19,20
 152.603515625 672 152.603515625 672 252.103515625 697 c 128,-1,21
 351.603515625 722 351.603515625 722 452.103515625 694 c 128,-1,22
 552.603515625 666 552.603515625 666 628.603515625 590 c 257,23,24
 703.603515625 514 703.603515625 514 731.603515625 414 c 128,-1,25
 759.603515625 314 759.603515625 314 734.603515625 214.5 c 128,-1,26
 709.603515625 115 709.603515625 115 635.603515625 42 c 257,27,28
 609.603515625 16 609.603515625 16 579.603515625 -5 c 257,29,-1
 470.603515625 104 l 257,30,-1
 463.603515625 104 l 257,31,32
 463.603515625 107 463.603515625 107 464.603515625 110 c 257,33,-1
 461.603515625 113 l 257,34,35
 463.603515625 113 463.603515625 113 465.603515625 114 c 257,36,37
 466.603515625 122 466.603515625 122 466.603515625 130 c 257,38,39
 466.603515625 175 466.603515625 175 435.603515625 206 c 128,-1,40
 404.603515625 237 404.603515625 237 359.603515625 237 c 257,41,42
 315.603515625 237 315.603515625 237 284.603515625 206 c 128,-1,43
 253.603515625 175 253.603515625 175 253.603515625 130 c 257,44,45
 253.603515625 117 253.603515625 117 256.603515625 104 c 257,46,-1
 103.603515625 104 l 257,0,1
EndSplineSet
EndChar

StartChar: u098F
Encoding: 2447 2447 1359
GlifName: u098F_
Width: 697
VWidth: 0
Flags: W
LayerCount: 2
Fore
SplineSet
47.5 318 m 257,0,-1
 215.5 318 l 257,1,2
 189.5 287 189.5 287 189.5 248 c 257,3,4
 189.5 198 189.5 198 225.5 166 c 257,5,-1
 492.5 166 l 257,6,-1
 492.5 573 l 257,7,8
 460.5 610 460.5 610 411.5 610 c 257,9,10
 371.5 610 371.5 610 340.5 584 c 257,11,-1
 340.5 752 l 257,12,13
 374.5 761 374.5 761 411.5 761 c 257,14,15
 498.5 761 498.5 761 565.5 709 c 128,-1,16
 632.5 657 632.5 657 656.5 574 c 257,17,-1
 659.5 -3 l 257,18,19
 586.5 -4 586.5 -4 443 -0.5 c 128,-1,20
 299.5 3 299.5 3 225.5 2 c 257,21,22
 142.5 26 142.5 26 90 93.5 c 128,-1,23
 37.5 161 37.5 161 37.5 248 c 257,24,25
 37.5 285 37.5 285 47.5 318 c 257,0,-1
EndSplineSet
EndChar

StartChar: u0990
Encoding: 2448 2448 1363
GlifName: u0990
Width: 956
VWidth: 0
Flags: W
LayerCount: 2
Fore
SplineSet
325.663085938 752 m 257,0,1
 359.663085938 761 359.663085938 761 396.663085938 761 c 257,2,3
 483.663085938 761 483.663085938 761 550.663085938 709 c 128,-1,4
 617.663085938 657 617.663085938 657 641.663085938 574 c 257,5,-1
 642.663085938 439 l 257,6,7
 713.663085938 413 713.663085938 413 756.663085938 414 c 257,8,9
 786.663085938 414 786.663085938 414 795.663085938 453 c 257,10,11
 813.663085938 530 813.663085938 530 779.663085938 613.5 c 128,-1,12
 745.663085938 697 745.663085938 697 683.663085938 759 c 257,13,14
 659.663085938 783 659.663085938 783 607.163085938 796.5 c 128,-1,15
 554.663085938 810 554.663085938 810 531.663085938 834 c 257,16,17
 515.663085938 849 515.663085938 849 505.163085938 879 c 128,-1,18
 494.663085938 909 494.663085938 909 492.663085938 932 c 257,19,-1
 490.663085938 954 l 257,20,-1
 578.663085938 1042 l 257,21,22
 579.663085938 1033 579.663085938 1033 581.663085938 1017.5 c 128,-1,23
 583.663085938 1002 583.663085938 1002 595.163085938 968.5 c 128,-1,24
 606.663085938 935 606.663085938 935 622.663085938 919 c 257,25,26
 644.663085938 897 644.663085938 897 696.163085938 885 c 128,-1,27
 747.663085938 873 747.663085938 873 770.663085938 851 c 257,28,-1
 840.663085938 780 l 257,29,30
 856.663085938 764 856.663085938 764 876.163085938 721.5 c 128,-1,31
 895.663085938 679 895.663085938 679 910.663085938 622.5 c 128,-1,32
 925.663085938 566 925.663085938 566 931.663085938 510.5 c 128,-1,33
 937.663085938 455 937.663085938 455 922.163085938 408 c 128,-1,34
 906.663085938 361 906.663085938 361 867.663085938 342 c 257,35,36
 803.663085938 312 803.663085938 312 744.663085938 312 c 257,37,38
 706.663085938 312 706.663085938 312 642.663085938 331 c 257,39,-1
 644.663085938 -3 l 257,40,41
 571.663085938 -4 571.663085938 -4 428.163085938 -0.5 c 128,-1,42
 284.663085938 3 284.663085938 3 210.663085938 2 c 257,43,44
 127.663085938 26 127.663085938 26 75.1630859375 93.5 c 128,-1,45
 22.6630859375 161 22.6630859375 161 22.6630859375 248 c 257,46,47
 22.6630859375 285 22.6630859375 285 32.6630859375 318 c 257,48,-1
 200.663085938 318 l 257,49,50
 174.663085938 287 174.663085938 287 174.663085938 248 c 257,51,52
 174.663085938 198 174.663085938 198 210.663085938 166 c 257,53,-1
 477.663085938 166 l 257,54,-1
 477.663085938 573 l 257,55,56
 445.663085938 610 445.663085938 610 396.663085938 610 c 257,57,58
 356.663085938 610 356.663085938 610 325.663085938 584 c 257,59,-1
 325.663085938 752 l 257,0,1
EndSplineSet
EndChar

StartChar: u0993
Encoding: 2451 2451 1367
GlifName: u0993
Width: 616
VWidth: 0
Flags: W
LayerCount: 2
Fore
SplineSet
285 682 m 257,0,1
 237 679 237 679 223 676 c 257,2,3
 224 676 224 676 219 697 c 128,-1,4
 214 718 214 718 209 739 c 128,-1,5
 204 760 204 760 205 760 c 257,6,7
 209 760 209 760 229 770 c 128,-1,8
 249 780 249 780 277.5 792.5 c 128,-1,9
 306 805 306 805 329 808 c 257,10,11
 435 823 435 823 502.5 752 c 128,-1,12
 570 681 570 681 568 565 c 257,13,14
 566 478 566 478 518 413 c 257,15,16
 568 345 568 345 568 260 c 257,17,18
 568 153 568 153 492.5 78 c 128,-1,19
 417 3 417 3 310 3 c 257,20,21
 309 3 309 3 308 3 c 2,22,-1
 307 3 l 257,23,-1
 306 3 l 257,24,25
 304 3 304 3 302 3 c 257,26,27
 294 3 294 3 288 4 c 257,28,29
 187 10 187 10 117.5 84 c 128,-1,30
 48 158 48 158 48 260 c 257,31,32
 48 342 48 342 94 408 c 257,33,-1
 106 412 l 257,34,35
 207 384 207 384 210 383 c 257,36,37
 223 377 223 377 218 361 c 257,38,39
 202 313 202 313 200 285 c 257,40,41
 199 273 199 273 199 260 c 257,42,43
 199 215 199 215 230 185 c 128,-1,44
 261 155 261 155 308 154 c 257,45,46
 355 155 355 155 386 185 c 128,-1,47
 417 215 417 215 417 260 c 257,48,49
 417 299 417 299 393 328 c 128,-1,50
 369 357 369 357 332 365 c 257,51,-1
 332 364 l 257,52,-1
 308 459 l 257,53,54
 320 459 320 459 332 462 c 257,55,-1
 332 461 l 257,56,57
 369 469 369 469 393 498 c 128,-1,58
 417 527 417 527 417 565 c 257,59,60
 417 623 417 623 381 654 c 128,-1,61
 345 685 345 685 285 682 c 257,0,1
EndSplineSet
EndChar

StartChar: u0994
Encoding: 2452 2452 1371
GlifName: u0994
Width: 884
VWidth: 0
Flags: W
LayerCount: 2
Fore
SplineSet
285 682 m 257,0,1
 237 679 237 679 223 676 c 257,2,3
 224 676 224 676 219 697 c 128,-1,4
 214 718 214 718 209 739 c 128,-1,5
 204 760 204 760 205 760 c 257,6,7
 209 760 209 760 229 770 c 128,-1,8
 249 780 249 780 277.5 792.5 c 128,-1,9
 306 805 306 805 329 808 c 257,10,11
 435 823 435 823 502.5 752 c 128,-1,12
 570 681 570 681 568 565 c 257,13,14
 567 498 567 498 537 442 c 257,15,16
 613 413 613 413 660 414 c 257,17,18
 690 414 690 414 699 453 c 257,19,20
 717 530 717 530 683 613.5 c 128,-1,21
 649 697 649 697 587 759 c 257,22,23
 563 783 563 783 510.5 796.5 c 128,-1,24
 458 810 458 810 435 834 c 257,25,26
 419 849 419 849 408.5 879 c 128,-1,27
 398 909 398 909 396 932 c 257,28,-1
 394 954 l 257,29,-1
 482 1042 l 257,30,31
 483 1033 483 1033 485 1017.5 c 128,-1,32
 487 1002 487 1002 498.5 968.5 c 128,-1,33
 510 935 510 935 526 919 c 257,34,35
 548 897 548 897 599.5 885 c 128,-1,36
 651 873 651 873 674 851 c 257,37,-1
 744 780 l 257,38,39
 760 764 760 764 779.5 721.5 c 128,-1,40
 799 679 799 679 814 622.5 c 128,-1,41
 829 566 829 566 835 510.5 c 128,-1,42
 841 455 841 455 825.5 408 c 128,-1,43
 810 361 810 361 771 342 c 257,44,45
 707 312 707 312 648 312 c 257,46,47
 614 312 614 312 559 327 c 257,48,49
 568 294 568 294 568 260 c 257,50,51
 568 153 568 153 492.5 78 c 128,-1,52
 417 3 417 3 310 3 c 257,53,54
 309 3 309 3 308 3 c 2,55,-1
 307 3 l 257,56,-1
 306 3 l 257,57,58
 304 3 304 3 302 3 c 257,59,60
 294 3 294 3 288 4 c 257,61,62
 187 10 187 10 117.5 84 c 128,-1,63
 48 158 48 158 48 260 c 257,64,65
 48 342 48 342 94 408 c 257,66,-1
 106 412 l 257,67,68
 207 384 207 384 210 383 c 257,69,70
 223 377 223 377 218 361 c 257,71,72
 202 313 202 313 200 285 c 257,73,74
 199 273 199 273 199 260 c 257,75,76
 199 215 199 215 230 185 c 128,-1,77
 261 155 261 155 308 154 c 257,78,79
 355 155 355 155 386 185 c 128,-1,80
 417 215 417 215 417 260 c 257,81,82
 417 299 417 299 393 328 c 128,-1,83
 369 357 369 357 332 365 c 257,84,-1
 332 364 l 257,85,-1
 308 459 l 257,86,87
 320 459 320 459 332 462 c 257,88,-1
 332 461 l 257,89,90
 369 469 369 469 393 498 c 128,-1,91
 417 527 417 527 417 565 c 257,92,93
 417 623 417 623 381 654 c 128,-1,94
 345 685 345 685 285 682 c 257,0,1
EndSplineSet
EndChar

StartChar: u0995
Encoding: 2453 2453 1375
GlifName: u0995
Width: 1098
VWidth: 0
Flags: W
LayerCount: 2
Fore
SplineSet
1098 803 m 257,0,-1
 1098 671 l 257,1,-1
 670 671 l 257,2,-1
 670 478 l 257,3,4
 722 502 722 502 780 502 c 257,5,6
 888 502 888 502 963 427 c 128,-1,7
 1038 352 1038 352 1038 244 c 257,8,9
 1038 231 1038 231 1037 218 c 257,10,-1
 884 218 l 257,11,12
 888 231 888 231 888 244 c 257,13,14
 888 290 888 290 857 321 c 128,-1,15
 826 352 826 352 780 352 c 257,16,17
 736 352 736 352 705 320.5 c 128,-1,18
 674 289 674 289 674 244 c 257,19,20
 674 231 674 231 678 218 c 257,21,-1
 670 218 l 257,22,-1
 670 1 l 257,23,-1
 527 1 l 257,24,-1
 70 274 l 257,25,-1
 70 426 l 257,26,-1
 524 603 l 257,27,-1
 524 671 l 257,28,-1
 0 671 l 257,29,-1
 0 803 l 257,30,-1
 1098 803 l 257,0,-1
525 155 m 257,31,32
 524 452 524 452 524 454 c 257,33,-1
 214 350 l 257,34,-1
 525 155 l 257,31,32
EndSplineSet
EndChar

StartChar: u0996
Encoding: 2454 2454 1379
GlifName: u0996
Width: 674
VWidth: 0
Flags: W
LayerCount: 2
Fore
SplineSet
674 803 m 257,0,-1
 674 671 l 257,1,-1
 600 671 l 257,2,-1
 600 1 l 257,3,-1
 454 1 l 257,4,-1
 454 777 l 257,5,-1
 476 777 l 257,6,-1
 476 803 l 257,7,-1
 674 803 l 257,0,-1
270 714 m 257,8,-1
 402 714 l 257,9,-1
 286 444 l 257,10,-1
 285 445 l 257,11,-1
 144 274 l 257,12,-1
 453 160 l 257,13,-1
 453 2 l 257,14,-1
 0 180 l 257,15,-1
 0 332 l 257,16,-1
 246 562 l 257,17,-1
 257 629 l 257,18,19
 237 572 237 572 187.5 536 c 128,-1,20
 138 500 138 500 76 500 c 257,21,22
 -6 500 -6 500 -62 556.5 c 128,-1,23
 -118 613 -118 613 -118 694 c 257,24,-1
 -118 713 l 257,25,-1
 -2 713 l 257,26,27
 -6 704 -6 704 -6 694 c 257,28,29
 -6 660 -6 660 18 636.5 c 128,-1,30
 42 613 42 613 75.5 613 c 128,-1,31
 109 613 109 613 131.5 636.5 c 128,-1,32
 154 660 154 660 154 694 c 257,33,34
 154 704 154 704 152 713 c 257,35,-1
 268 713 l 257,36,-1
 268 701 l 257,37,-1
 270 714 l 257,8,-1
EndSplineSet
EndChar

StartChar: u0997
Encoding: 2455 2455 1383
GlifName: u0997
Width: 638
VWidth: 0
Flags: W
LayerCount: 2
Fore
SplineSet
19 383 m 257,0,-1
 86 495 l 257,1,2
 93 488 93 488 108 483 c 257,3,4
 148 466 148 466 179.5 470 c 128,-1,5
 211 474 211 474 231 498 c 257,6,7
 254 525 254 525 209 537 c 257,8,9
 197 540 197 540 155 547 c 257,10,11
 89 573 89 573 49 607.5 c 128,-1,12
 9 642 9 642 1 684 c 128,-1,13
 -7 726 -7 726 31 770 c 257,14,15
 78 827 78 827 178 838.5 c 128,-1,16
 278 850 278 850 374 809 c 257,17,18
 382 805 382 805 438 778 c 257,19,-1
 438 850 l 257,20,-1
 590 850 l 257,21,-1
 590 803 l 257,22,-1
 638 803 l 257,23,-1
 638 671 l 257,24,-1
 590 671 l 257,25,-1
 590 -2 l 257,26,-1
 438 -2 l 257,27,-1
 438 613 l 257,28,29
 423 621 423 621 367.5 649.5 c 128,-1,30
 312 678 312 678 307 680 c 257,31,32
 266 696 266 696 246 692 c 128,-1,33
 226 688 226 688 206 664 c 257,34,35
 181 638 181 638 185.5 628.5 c 128,-1,36
 190 619 190 619 237 611 c 257,37,38
 276 594 276 594 305 579.5 c 128,-1,39
 334 565 334 565 360.5 545 c 128,-1,40
 387 525 387 525 398.5 505.5 c 128,-1,41
 410 486 410 486 407.5 461.5 c 128,-1,42
 405 437 405 437 383 411 c 257,43,44
 336 354 336 354 236 341.5 c 128,-1,45
 136 329 136 329 41 370 c 257,46,47
 33 372 33 372 19 383 c 257,0,-1
EndSplineSet
EndChar

StartChar: u0998
Encoding: 2456 2456 1387
GlifName: u0998
Width: 776
VWidth: 0
Flags: W
LayerCount: 2
Fore
SplineSet
86 672 m 257,0,-1
 0 671 l 257,1,-1
 0 803 l 257,2,-1
 776 803 l 257,3,-1
 776 671 l 257,4,-1
 755 671 l 257,5,-1
 755 0 l 257,6,-1
 365 19 l 257,7,8
 237 19 237 19 146.5 86 c 128,-1,9
 56 153 56 153 56 248 c 128,-1,10
 56 343 56 343 131 410 c 257,11,12
 56 477 56 477 56 572 c 257,13,14
 56 625 56 625 86 672 c 257,0,-1
603 671 m 257,15,-1
 359 667 l 257,16,17
 295 667 295 667 251 639.5 c 128,-1,18
 207 612 207 612 207 572 c 257,19,20
 207 535 207 535 234 508.5 c 128,-1,21
 261 482 261 482 301 478 c 257,22,23
 308 478 308 478 314 478 c 128,-1,24
 320 478 320 478 326 478 c 257,25,26
 333 479 333 479 340 480 c 257,27,-1
 340 477 l 257,28,-1
 340 344 l 257,29,-1
 340 341 l 257,30,31
 333 342 333 342 326 343 c 257,32,33
 320 343 320 343 314 343 c 128,-1,34
 308 343 308 343 301 343 c 257,35,36
 261 339 261 339 234 312 c 128,-1,37
 207 285 207 285 207 248 c 257,38,39
 207 209 207 209 253 181.5 c 128,-1,40
 299 154 299 154 365 154 c 257,41,-1
 606 160 l 257,42,-1
 603 671 l 257,15,-1
EndSplineSet
EndChar

StartChar: u0999
Encoding: 2457 2457 1391
GlifName: u0999
Width: 521
VWidth: 0
Flags: W
LayerCount: 2
Fore
SplineSet
-40 700 m 257,0,-1
 80 796 l 257,1,-1
 262 691 l 257,2,3
 266 737 266 737 300 770 c 128,-1,4
 334 803 334 803 381 807 c 257,5,-1
 388 807 l 257,6,-1
 390 807 l 257,7,-1
 392 807 l 257,8,9
 446 807 446 807 483.5 769.5 c 128,-1,10
 521 732 521 732 521 678 c 257,11,12
 521 646 521 646 482 606.5 c 128,-1,13
 443 567 443 567 405 546 c 257,14,-1
 353 448 l 257,15,16
 390 427 390 427 402.5 420 c 128,-1,17
 415 413 415 413 445 391.5 c 128,-1,18
 475 370 475 370 486.5 354.5 c 128,-1,19
 498 339 498 339 509.5 313.5 c 128,-1,20
 521 288 521 288 520 260 c 257,21,22
 517 151 517 151 442 77 c 128,-1,23
 367 3 367 3 259 3 c 257,24,25
 197 3 197 3 148 25 c 128,-1,26
 99 47 99 47 68.5 84 c 128,-1,27
 38 121 38 121 22 166.5 c 128,-1,28
 6 212 6 212 6 261 c 257,29,-1
 151 261 l 257,30,-1
 151 260 l 257,31,32
 151 215 151 215 182 185 c 128,-1,33
 213 155 213 155 260 154 c 257,34,35
 307 155 307 155 338 185 c 128,-1,36
 369 215 369 215 369 260 c 257,37,38
 369 302 369 302 342.5 331.5 c 128,-1,39
 316 361 316 361 274 366 c 257,40,-1
 259 366 l 257,41,-1
 268 518 l 257,42,-1
 268 518 l 257,43,-1
 277 544 l 257,44,-1
 271 567 l 257,45,46
 256 575 256 575 244 587 c 257,47,-1
 -40 700 l 257,0,-1
379 730 m 257,48,-1
 379 731 l 256,49,-1
 379 731 l 257,50,51
 360 727 360 727 348.5 712.5 c 128,-1,52
 337 698 337 698 337 678 c 257,53,54
 337 650 337 650 358 635 c 257,55,-1
 367 630 l 257,56,57
 373 627 373 627 379 626 c 257,58,-1
 379 627 l 257,59,60
 387 625 387 625 391 625 c 128,-1,61
 395 625 395 625 403 627 c 257,62,-1
 403 626 l 257,63,64
 422 630 422 630 433.5 644.5 c 128,-1,65
 445 659 445 659 445 678 c 257,66,67
 445 698 445 698 433.5 712.5 c 128,-1,68
 422 727 422 727 403 731 c 257,69,-1
 403 730 l 257,70,71
 395 732 395 732 391 732 c 128,-1,72
 387 732 387 732 379 730 c 257,48,-1
  PathStart: -2
EndSplineSet
EndChar

StartChar: u099A
Encoding: 2458 2458 1395
GlifName: u099A_
Width: 530
VWidth: 0
Flags: W
LayerCount: 2
Fore
SplineSet
202 158 m 257,0,1
 214 155 214 155 226 155 c 257,2,3
 271 155 271 155 302 185.5 c 128,-1,4
 333 216 333 216 333 261 c 257,5,6
 333 306 333 306 302 337 c 128,-1,7
 271 368 271 368 226 368 c 257,8,9
 214 368 214 368 202 365 c 257,10,-1
 202 158 l 257,0,1
530 803 m 257,11,-1
 530 671 l 257,12,-1
 202 671 l 257,13,-1
 202 518 l 257,14,15
 210 519 210 519 226 519 c 257,16,17
 333 519 333 519 408.5 443.5 c 128,-1,18
 484 368 484 368 484 261 c 257,19,20
 484 154 484 154 408.5 79 c 128,-1,21
 333 4 333 4 226 4 c 257,22,-1
 220 3.5 l 2,23,24
 214 3 214 3 207.5 3 c 128,-1,25
 201 3 201 3 190.5 3.5 c 128,-1,26
 180 4 180 4 170 4.5 c 128,-1,27
 160 5 160 5 148.5 7 c 128,-1,28
 137 9 137 9 127 12 c 128,-1,29
 117 15 117 15 107 20 c 128,-1,30
 97 25 97 25 89 32 c 257,31,32
 72 46 72 46 62.5 76 c 128,-1,33
 53 106 53 106 51 129 c 257,34,-1
 50 153 l 257,35,-1
 50 671 l 257,36,-1
 0 671 l 257,37,-1
 0 803 l 257,38,-1
 530 803 l 257,11,-1
EndSplineSet
EndChar

StartChar: u099B
Encoding: 2459 2459 1399
GlifName: u099B_
Width: 726
VWidth: 0
Flags: W
LayerCount: 2
Fore
SplineSet
726 803 m 257,0,-1
 726 671 l 257,1,-1
 215 671 l 257,2,-1
 215 571 l 257,3,4
 221 572 221 572 234 572 c 257,5,6
 285 572 285 572 329.5 549 c 128,-1,7
 374 526 374 526 402 486 c 257,8,9
 419 488 419 488 436 488 c 257,10,11
 537 488 537 488 609 429 c 128,-1,12
 681 370 681 370 681 287 c 257,13,14
 681 226 681 226 640.5 179 c 128,-1,15
 600 132 600 132 533 110 c 257,16,-1
 709 112 l 257,17,-1
 709 34 l 257,18,-1
 388 31 l 257,19,-1
 389 182 l 257,20,21
 412 175 412 175 436 175 c 257,22,23
 498 175 498 175 540.5 206 c 128,-1,24
 583 237 583 237 583 286 c 257,25,26
 583 335 583 335 540 370.5 c 128,-1,27
 497 406 497 406 437 406 c 257,28,29
 441 386 441 386 441 366 c 257,30,31
 441 281 441 281 380.5 220.5 c 128,-1,32
 320 160 320 160 234 160 c 257,33,34
 221 160 221 160 215 161 c 257,35,-1
 93 161 l 257,36,-1
 93 671 l 257,37,-1
 0 671 l 257,38,-1
 0 803 l 257,39,-1
 726 803 l 257,0,-1
215 283 m 257,40,41
 225 281 225 281 234 281 c 257,42,43
 270 281 270 281 295 305.5 c 128,-1,44
 320 330 320 330 320 366 c 257,45,46
 320 402 320 402 295 426.5 c 128,-1,47
 270 451 270 451 234 451 c 257,48,49
 225 451 225 451 215 449 c 257,50,-1
 215 283 l 257,40,41
EndSplineSet
EndChar

StartChar: u099C
Encoding: 2460 2460 1403
GlifName: u099C_
Width: 996
VWidth: 0
Flags: W
LayerCount: 2
Fore
SplineSet
996 803 m 1,0,-1
 996 671 l 1,1,-1
 441 671 l 1,2,-1
 441 624.611328125 l 1,3,-1
 990.700195312 628.5 l 1,4,-1
 988.299804688 408.700195312 l 1,5,6
 960 417 960 417 929.900390625 416.700195312 c 0,7,8
 852 417 852 417 799.5 378.299804688 c 0,9,10
 747 340 747 340 746.700195312 278.299804688 c 0,11,12
 747 217 747 217 800.299804688 172.700195312 c 0,13,14
 854 129 854 129 929.900390625 128.700195312 c 0,15,16
 960 129 960 129 988.299804688 136.700195312 c 1,17,-1
 988.299804688 30.2998046875 l 1,18,19
 960 26 960 26 929.900390625 25.5 c 0,20,21
 847 26 847 26 776.299804688 59.099609375 c 0,22,23
 706 93 706 93 665.099609375 150.700195312 c 0,24,25
 624 209 624 209 624.299804688 277.5 c 0,26,27
 624 354 624 354 674.700195312 412.299804688 c 0,28,29
 725 471 725 471 808.299804688 498.299804688 c 1,30,-1
 441 496.765625 l 1,31,-1
 441 484 l 1,32,33
 501 450 501 450 536.5 390.5 c 128,-1,34
 572 331 572 331 570 260 c 0,35,36
 567 151 567 151 492 77 c 128,-1,37
 417 3 417 3 309 3 c 0,38,39
 247 3 247 3 198 25 c 128,-1,40
 149 47 149 47 118.5 84 c 128,-1,41
 88 121 88 121 72 166.5 c 128,-1,42
 56 212 56 212 56 261 c 1,43,-1
 201 261 l 1,44,-1
 201 260 l 2,45,46
 201 215 201 215 232 185 c 128,-1,47
 263 155 263 155 310 154 c 0,48,49
 357 155 357 155 388 185 c 128,-1,50
 419 215 419 215 419 260 c 0,51,52
 419 302 419 302 392.5 331.5 c 128,-1,53
 366 361 366 361 324 366 c 1,54,-1
 309 366 l 1,55,-1
 309 518 l 1,56,-1
 309 671 l 1,57,-1
 0 671 l 1,58,-1
 0 803 l 1,59,-1
 996 803 l 1,0,-1
EndSplineSet
EndChar

StartChar: u099D
Encoding: 2461 2461 1407
GlifName: u099D_
Width: 944
VWidth: 0
Flags: W
LayerCount: 2
Fore
SplineSet
670 671 m 257,0,-1
 670 284 l 257,1,-1
 673 287 l 257,2,-1
 749 211 l 257,3,-1
 749 671 l 257,4,-1
 670 671 l 257,0,-1
944 803 m 257,5,-1
 944 671 l 257,6,-1
 901 671 l 257,7,-1
 901 0 l 257,8,-1
 749 0 l 257,9,-1
 747 -2 l 257,10,-1
 670 75 l 257,11,-1
 670 1 l 257,12,-1
 526 1 l 257,13,-1
 526 0 l 257,14,-1
 70 274 l 257,15,-1
 70 426 l 257,16,-1
 524 603 l 257,17,-1
 524 671 l 257,18,-1
 0 671 l 257,19,-1
 0 803 l 257,20,-1
 944 803 l 257,5,-1
524 153 m 257,21,-1
 524 454 l 257,22,-1
 214 350 l 257,23,-1
 524 153 l 257,21,-1
EndSplineSet
EndChar

StartChar: u099E
Encoding: 2462 2462 1411
GlifName: u099E_
Width: 730
VWidth: 0
Flags: W
LayerCount: 2
Fore
SplineSet
-37 318 m 257,0,-1
 131 318 l 257,1,2
 105 287 105 287 105 248 c 257,3,4
 105 198 105 198 141 166 c 257,5,-1
 408 166 l 257,6,-1
 408 573 l 257,7,8
 376 610 376 610 327 610 c 257,9,10
 287 610 287 610 256 584 c 257,11,-1
 256 752 l 257,12,13
 290 761 290 761 327 761 c 257,14,15
 410 761 410 761 474.5 714 c 128,-1,16
 539 667 539 667 567 591 c 257,17,18
 594 605 594 605 611 607 c 257,19,20
 664 614 664 614 697.5 578.5 c 128,-1,21
 731 543 731 543 730 485 c 257,22,23
 729 442 729 442 705 409 c 257,24,25
 730 375 730 375 730 333 c 257,26,27
 730 279 730 279 692.5 241.5 c 128,-1,28
 655 204 655 204 601 204 c 257,29,-1
 600.5 204 l 2,30,31
 600 204 600 204 599 204 c 257,32,33
 598 204 598 204 597 204 c 257,34,35
 593 204 593 204 590 205 c 257,36,37
 582 205 582 205 574 207 c 257,38,-1
 575 -3 l 257,39,-1
 408 -3 l 257,40,-1
 408 0 l 257,41,-1
 141 2 l 257,42,43
 58 26 58 26 5.5 93.5 c 128,-1,44
 -47 161 -47 161 -47 248 c 257,45,46
 -47 285 -47 285 -37 318 c 257,0,-1
573 286 m 257,47,48
 585 280 585 280 600 280 c 257,49,50
 624 280 624 280 639.5 295 c 128,-1,51
 655 310 655 310 655 333 c 257,52,53
 655 352 655 352 643 366.5 c 128,-1,54
 631 381 631 381 612 385 c 257,55,-1
 600 432 l 257,56,57
 606 432 606 432 612 434 c 257,58,-1
 612 433 l 257,59,60
 631 437 631 437 643 451.5 c 128,-1,61
 655 466 655 466 655 485 c 257,62,63
 655 514 655 514 636.5 529.5 c 128,-1,64
 618 545 618 545 589 544 c 257,65,66
 584 544 584 544 572 542 c 257,67,-1
 573 286 l 257,47,48
EndSplineSet
EndChar

StartChar: u099F
Encoding: 2463 2463 1415
GlifName: u099F_
Width: 639
VWidth: 0
Flags: W
LayerCount: 2
Fore
SplineSet
616 184 m 257,0,1
 600 126 600 126 555.5 84.5 c 128,-1,2
 511 43 511 43 455 23.5 c 128,-1,3
 399 4 399 4 335 3.5 c 128,-1,4
 271 3 271 3 214.5 22 c 128,-1,5
 158 41 158 41 114 83 c 128,-1,6
 70 125 70 125 53 184 c 257,7,-1
 50 671 l 257,8,-1
 0 671 l 257,9,-1
 0 803 l 257,10,-1
 252 803 l 257,11,-1
 237 818 l 257,12,13
 214 841 214 841 202.5 892 c 128,-1,14
 191 943 191 943 168 966 c 257,15,16
 152 982 152 982 121.5 993 c 128,-1,17
 91 1004 91 1004 68 1007 c 257,18,-1
 45 1010 l 257,19,-1
 134 1098 l 257,20,21
 143 1097 143 1097 158 1095.5 c 128,-1,22
 173 1094 173 1094 205.5 1083.5 c 128,-1,23
 238 1073 238 1073 254 1057 c 257,24,25
 277 1034 277 1034 291 981 c 128,-1,26
 305 928 305 928 328 905 c 257,27,28
 360 873 360 873 391 842 c 257,29,30
 424 809 424 809 494 803 c 257,31,-1
 639 803 l 257,32,-1
 639 671 l 257,33,-1
 217 671 l 257,34,-1
 217 185 l 257,35,36
 246 152 246 152 335 151.5 c 128,-1,37
 424 151 424 151 452 185 c 257,38,-1
 452 373 l 257,39,-1
 619 373 l 257,40,-1
 616 184 l 257,0,1
EndSplineSet
EndChar

StartChar: u09A0
Encoding: 2464 2464 1419
GlifName: u09A_0
Width: 751
VWidth: 0
Flags: W
LayerCount: 2
Fore
SplineSet
374 536 m 257,0,-1
 374 536 l 257,0,-1
726 803 m 257,1,-1
 726 671 l 257,2,-1
 615 671 l 257,3,4
 699 599 699 599 733 490 c 128,-1,5
 767 381 767 381 737 268 c 257,6,7
 709 165 709 165 636 90.5 c 128,-1,8
 563 16 563 16 464.5 -12 c 128,-1,9
 366 -40 366 -40 266 -13 c 257,10,11
 230 -3 230 -3 197 13 c 257,12,-1
 237 161 l 257,13,-1
 233 168 l 257,14,15
 236 169 236 169 239 170 c 257,16,-1
 240 173 l 257,17,18
 242 172 242 172 243 171 c 257,19,20
 250 174 250 174 257 178 c 257,21,22
 281 192 281 192 284.5 300 c 128,-1,23
 288 408 288 408 276 518.5 c 128,-1,24
 264 629 264 629 249 655 c 257,25,26
 244 664 244 664 238 671 c 257,27,-1
 0 671 l 257,28,-1
 0 803 l 257,29,-1
 252 803 l 257,30,-1
 237 818 l 257,31,32
 214 841 214 841 202.5 892 c 128,-1,33
 191 943 191 943 168 966 c 257,34,35
 152 982 152 982 121.5 993 c 128,-1,36
 91 1004 91 1004 68 1007 c 257,37,-1
 45 1010 l 257,38,-1
 134 1098 l 257,39,40
 143 1097 143 1097 158 1095.5 c 128,-1,41
 173 1094 173 1094 205.5 1083.5 c 128,-1,42
 238 1073 238 1073 254 1057 c 257,43,44
 277 1034 277 1034 291 981 c 128,-1,45
 305 928 305 928 328 905 c 257,46,47
 360 873 360 873 391 842 c 257,48,49
 424 809 424 809 494 803 c 257,50,-1
 726 803 l 257,1,-1
386 616 m 257,51,52
 401 587 401 587 415 519 c 128,-1,53
 429 451 429 451 437.5 377.5 c 128,-1,54
 446 304 446 304 444.5 237 c 128,-1,55
 443 170 443 170 429 144 c 257,56,57
 486 161 486 161 529.5 204.5 c 128,-1,58
 573 248 573 248 589 309 c 257,59,60
 602 358 602 358 548.5 476.5 c 128,-1,61
 495 595 495 595 452 652 c 257,62,-1
 386 616 l 257,51,52
EndSplineSet
EndChar

StartChar: u09A1
Encoding: 2465 2465 1423
GlifName: u09A_1
Width: 616
VWidth: 0
Flags: W
LayerCount: 2
Fore
SplineSet
616 803 m 257,0,-1
 616 671 l 257,1,-1
 441 671 l 257,2,-1
 441 484 l 257,3,4
 501 450 501 450 536.5 390.5 c 128,-1,5
 572 331 572 331 570 260 c 257,6,7
 567 151 567 151 492 77 c 128,-1,8
 417 3 417 3 309 3 c 257,9,10
 247 3 247 3 198 25 c 128,-1,11
 149 47 149 47 118.5 84 c 128,-1,12
 88 121 88 121 72 166.5 c 128,-1,13
 56 212 56 212 56 261 c 257,14,-1
 201 261 l 257,15,-1
 201 260 l 257,16,17
 201 215 201 215 232 185 c 128,-1,18
 263 155 263 155 310 154 c 257,19,20
 357 155 357 155 388 185 c 128,-1,21
 419 215 419 215 419 260 c 257,22,23
 419 302 419 302 392.5 331.5 c 128,-1,24
 366 361 366 361 324 366 c 257,25,-1
 309 366 l 257,26,-1
 309 518 l 257,27,-1
 309 518 l 257,28,-1
 309 671 l 257,29,-1
 0 671 l 257,30,-1
 0 803 l 257,31,-1
 616 803 l 257,0,-1
EndSplineSet
EndChar

StartChar: u09A2
Encoding: 2466 2466 1425
GlifName: u09A_2
Width: 639
VWidth: 0
Flags: W
LayerCount: 2
Fore
SplineSet
616 184 m 257,0,1
 600 126 600 126 555.5 84.5 c 128,-1,2
 511 43 511 43 455 23.5 c 128,-1,3
 399 4 399 4 335 3.5 c 128,-1,4
 271 3 271 3 214.5 22 c 128,-1,5
 158 41 158 41 114 83 c 128,-1,6
 70 125 70 125 53 184 c 257,7,-1
 50 671 l 257,8,-1
 0 671 l 257,9,-1
 0 803 l 257,10,-1
 639 803 l 257,11,-1
 639 671 l 257,12,-1
 217 671 l 257,13,-1
 217 185 l 257,14,15
 246 152 246 152 335 151.5 c 128,-1,16
 424 151 424 151 452 185 c 257,17,-1
 452 373 l 257,18,-1
 619 373 l 257,19,-1
 616 184 l 257,0,1
EndSplineSet
EndChar

StartChar: u09A3
Encoding: 2467 2467 1429
GlifName: u09A_3
Width: 562
VWidth: 0
Flags: W
LayerCount: 2
Fore
SplineSet
362 850 m 257,0,-1
 514 850 l 257,1,-1
 514 803 l 257,2,-1
 562 803 l 257,3,-1
 562 671 l 257,4,-1
 514 671 l 257,5,-1
 514 523 l 257,6,7
 515 509 515 509 515 494 c 257,8,9
 515 481 515 481 514 468 c 257,10,-1
 514 -2 l 257,11,-1
 362 -2 l 257,12,-1
 362 468 l 257,13,-1
 361 468 l 257,14,15
 361 470 361 470 362 471 c 257,16,-1
 362 518 l 257,17,18
 354 555 354 555 325 578.5 c 128,-1,19
 296 602 296 602 257 602 c 257,20,21
 213 602 213 602 182 570.5 c 128,-1,22
 151 539 151 539 151 494 c 257,23,24
 151 481 151 481 154 468 c 257,25,-1
 1 468 l 257,26,27
 0 481 0 481 0 494 c 257,28,29
 0 602 0 602 75 677 c 128,-1,30
 150 752 150 752 257 752 c 257,31,32
 312 752 312 752 362 731 c 257,33,-1
 362 850 l 257,0,-1
EndSplineSet
EndChar

StartChar: u09A5
Encoding: 2469 2469 1433
GlifName: u09A_5
Width: 635
VWidth: 0
Flags: W
LayerCount: 2
Fore
SplineSet
86 766 m 257,0,1
 97 768 97 768 105 768 c 257,2,3
 165 767 165 767 225.5 745.5 c 128,-1,4
 286 724 286 724 331 679.5 c 128,-1,5
 376 635 376 635 380 579 c 257,6,7
 382 541 382 541 368 506.5 c 128,-1,8
 354 472 354 472 332.5 447 c 128,-1,9
 311 422 311 422 276.5 395.5 c 128,-1,10
 242 369 242 369 214.5 353.5 c 128,-1,11
 187 338 187 338 148.5 316 c 128,-1,12
 110 294 110 294 92 283 c 257,13,-1
 436 167 l 257,14,-1
 436 671 l 257,15,-1
 436 777 l 257,16,-1
 436 803 l 257,17,-1
 635 803 l 257,18,-1
 635 671 l 257,19,-1
 582 671 l 257,20,-1
 582 1 l 257,21,-1
 436 1 l 257,22,-1
 436 16 l 257,23,-1
 0 197 l 257,24,-1
 0 349 l 257,25,26
 141 446 141 446 223 518 c 257,27,28
 232 526 232 526 241.5 541 c 128,-1,29
 251 556 251 556 256 568 c 257,30,-1
 261 579 l 257,31,32
 261 601 261 601 231.5 617 c 128,-1,33
 202 633 202 633 168.5 640 c 128,-1,34
 135 647 135 647 107 647 c 257,35,36
 97 647 97 647 86 644 c 257,37,-1
 86 766 l 257,0,1
EndSplineSet
EndChar

StartChar: u09A6
Encoding: 2470 2470 1437
GlifName: u09A_6
Width: 726
VWidth: 0
Flags: W
LayerCount: 2
Fore
SplineSet
662 582 m 257,0,-1
 662 2 l 257,1,-1
 510 2 l 257,2,-1
 510 400 l 257,3,-1
 244 114 l 257,4,-1
 92 114 l 257,5,-1
 91 671 l 257,6,-1
 0 671 l 257,7,-1
 0 803 l 257,8,-1
 726 803 l 257,9,-1
 726 671 l 257,10,-1
 243 671 l 257,11,-1
 244 296 l 257,12,-1
 510 582 l 257,13,-1
 662 582 l 257,0,-1
EndSplineSet
EndChar

StartChar: u09A7
Encoding: 2471 2471 1441
GlifName: u09A_7
Width: 652
VWidth: 0
Flags: W
LayerCount: 2
Fore
SplineSet
652 803 m 257,0,-1
 652 671 l 257,1,-1
 600 671 l 257,2,-1
 600 1 l 257,3,-1
 454 1 l 257,4,-1
 454 3 l 257,5,-1
 0 274 l 257,6,-1
 0 426 l 257,7,-1
 139 480 l 257,8,9
 92 534 92 534 92 606 c 257,10,11
 92 686 92 686 148.5 743 c 128,-1,12
 205 800 205 800 286 800 c 257,13,-1
 305 800 l 257,14,-1
 305 684 l 257,15,16
 296 686 296 686 286 686 c 257,17,18
 252 686 252 686 228.5 662.5 c 128,-1,19
 205 639 205 639 205 606 c 257,20,21
 205 578 205 578 221.5 557 c 128,-1,22
 238 536 238 536 265 529 c 257,23,-1
 454 603 l 257,24,-1
 454 777 l 257,25,-1
 454 803 l 257,26,-1
 652 803 l 257,0,-1
454 155 m 257,27,-1
 454 454 l 257,28,-1
 144 350 l 257,29,-1
 454 155 l 257,27,-1
EndSplineSet
EndChar

StartChar: u09A8
Encoding: 2472 2472 1445
GlifName: u09A_8
Width: 661
VWidth: 0
Flags: W
LayerCount: 2
Fore
SplineSet
661 803 m 257,0,-1
 661 671 l 257,1,-1
 616 671 l 257,2,-1
 616 123 l 257,3,4
 622 97 622 97 622 70 c 257,5,6
 622 56 622 56 620 44 c 257,7,-1
 616 44 l 257,8,-1
 616 -2 l 257,9,-1
 464 -2 l 257,10,-1
 464 107 l 257,11,12
 453 138 453 138 425.5 157 c 128,-1,13
 398 176 398 176 364 176 c 257,14,15
 319 176 319 176 288.5 145 c 128,-1,16
 258 114 258 114 258 70 c 257,17,18
 258 56 258 56 261 44 c 257,19,-1
 108 44 l 257,20,21
 106 56 106 56 106 70 c 257,22,23
 106 177 106 177 181.5 252.5 c 128,-1,24
 257 328 257 328 364 328 c 257,25,26
 416 328 416 328 464 307 c 257,27,-1
 464 671 l 257,28,-1
 0 671 l 257,29,-1
 0 803 l 257,30,-1
 464 803 l 257,31,-1
 616 803 l 257,32,-1
 661 803 l 257,0,-1
EndSplineSet
EndChar

StartChar: u09AA
Encoding: 2474 2474 1449
GlifName: u09A_A_
Width: 569
VWidth: 0
Flags: W
LayerCount: 2
Fore
SplineSet
175 576 m 257,0,1
 188 614 188 614 217 641.5 c 128,-1,2
 246 669 246 669 284 680 c 257,3,4
 252 698 252 698 213 697.5 c 128,-1,5
 174 697 174 697 140 677 c 257,6,7
 77 641 77 641 67 570 c 257,8,-1
 175 576 l 257,0,1
302 365 m 257,9,10
 294 367 294 367 286 369 c 257,11,12
 279 371 279 371 272 374.5 c 128,-1,13
 265 378 265 378 258.5 383.5 c 128,-1,14
 252 389 252 389 247 393.5 c 128,-1,15
 242 398 242 398 236 406 c 128,-1,16
 230 414 230 414 226.5 418.5 c 128,-1,17
 223 423 223 423 217 433.5 c 128,-1,18
 211 444 211 444 208.5 447.5 c 128,-1,19
 206 451 206 451 200.5 461.5 c 128,-1,20
 195 472 195 472 194 474 c 257,21,-1
 93 467 l 257,22,23
 102 455 102 455 114 444 c 257,24,-1
 26 394 l 257,25,26
 11 411 11 411 -1 431 c 257,27,28
 -50 517 -50 517 -22.5 613.5 c 128,-1,29
 5 710 5 710 93 761 c 257,30,31
 162 799 162 799 237 793.5 c 128,-1,32
 312 788 312 788 369 742 c 257,33,-1
 369 845 l 257,34,-1
 521 845 l 257,35,-1
 521 801 l 257,36,-1
 569 801 l 257,37,-1
 569 669 l 257,38,-1
 521 669 l 257,39,-1
 521 -4 l 257,40,-1
 369 -4 l 257,41,-1
 369 487 l 257,42,-1
 367 485 l 257,43,-1
 368 591 l 257,44,-1
 361 587 l 257,45,-1
 360 583 l 257,46,47
 358 583 358 583 356 584 c 257,48,-1
 354 583 l 257,49,50
 354 584 354 584 354 585 c 257,51,52
 349 587 349 587 345 589 c 257,53,54
 318 596 318 596 294 582.5 c 128,-1,55
 270 569 270 569 263 541 c 257,56,57
 256 515 256 515 269.5 491 c 128,-1,58
 283 467 283 467 310 460 c 257,59,60
 318 458 318 458 326 458 c 257,61,-1
 302 365 l 257,9,10
175 576 m 257,62,-1
 175 576 l 257,62,-1
EndSplineSet
EndChar

StartChar: u09AB
Encoding: 2475 2475 1453
GlifName: u09A_B_
Width: 1167
VWidth: 0
Flags: W
LayerCount: 2
Fore
SplineSet
77 180 m 257,0,-1
 108 327 l 257,1,-1
 379 487 l 257,2,-1
 118 671 l 257,3,-1
 0 671 l 257,4,-1
 0 803 l 257,5,-1
 1167 803 l 257,6,-1
 1167 671 l 257,7,-1
 357 671 l 257,8,-1
 540 569 l 257,9,-1
 509 422 l 257,10,-1
 302 262 l 257,11,-1
 644 157 l 257,12,-1
 644 323 l 257,13,-1
 645 323 l 257,14,15
 646 429 646 429 721 503.5 c 128,-1,16
 796 578 796 578 902 578 c 257,17,18
 1009 578 1009 578 1084.5 503 c 128,-1,19
 1160 428 1160 428 1160 320 c 257,20,21
 1160 307 1160 307 1158 294 c 257,22,-1
 1005 294 l 257,23,24
 1008 307 1008 307 1008 320 c 257,25,26
 1008 366 1008 366 977 397 c 128,-1,27
 946 428 946 428 902 428 c 257,28,29
 858 428 858 428 827 397.5 c 128,-1,30
 796 367 796 367 796 323 c 257,31,-1
 796 310 l 257,32,33
 797 302 797 302 799 294 c 257,34,-1
 796 294 l 257,35,-1
 796 -2 l 257,36,-1
 644 -2 l 257,37,-1
 644 0 l 257,38,-1
 77 180 l 257,0,-1
EndSplineSet
EndChar

StartChar: u09AC
Encoding: 2476 2476 1457
GlifName: u09A_C_
Width: 723
VWidth: 0
Flags: W
LayerCount: 2
Fore
SplineSet
723 803 m 257,0,-1
 723 671 l 257,1,-1
 670 671 l 257,2,-1
 670 1 l 257,3,-1
 524 1 l 257,4,-1
 524 3 l 257,5,-1
 70 274 l 257,6,-1
 70 426 l 257,7,-1
 524 603 l 257,8,-1
 524 671 l 257,9,-1
 0 671 l 257,10,-1
 0 803 l 257,11,-1
 723 803 l 257,0,-1
524 155 m 257,12,-1
 524 454 l 257,13,-1
 214 350 l 257,14,-1
 524 155 l 257,12,-1
EndSplineSet
EndChar

StartChar: u09AD
Encoding: 2477 2477 1461
GlifName: u09A_D_
Width: 726
VWidth: 0
Flags: W
LayerCount: 2
Fore
SplineSet
726 803 m 257,0,-1
 726 671 l 257,1,-1
 0 671 l 257,2,-1
 0 803 l 257,3,-1
 726 803 l 257,0,-1
395 617 m 257,4,-1
 396 634 l 257,5,6
 397 634 397 634 398 634 c 257,7,8
 450 634 450 634 498 617 c 257,9,-1
 509 617 l 257,10,-1
 509 613 l 257,11,12
 596 578 596 578 650 498.5 c 128,-1,13
 704 419 704 419 704 320 c 257,14,15
 704 189 704 189 614.5 97 c 128,-1,16
 525 5 525 5 398 5 c 128,-1,17
 271 5 271 5 181.5 97 c 128,-1,18
 92 189 92 189 92 320 c 257,19,-1
 148 325.5 l 2,20,21
 204 331 204 331 204 332 c 257,22,23
 204 329 204 329 204 326 c 257,24,25
 204 248 204 248 257.5 193 c 128,-1,26
 311 138 311 138 387 138 c 128,-1,27
 463 138 463 138 516.5 193 c 128,-1,28
 570 248 570 248 570 326 c 257,29,30
 570 378 570 378 544.5 421.5 c 128,-1,31
 519 465 519 465 477 490 c 257,32,33
 450 450 450 450 408 427 c 128,-1,34
 366 404 366 404 317 404 c 257,35,36
 236 404 236 404 179.5 460.5 c 128,-1,37
 123 517 123 517 123 598 c 257,38,-1
 123 617 l 257,39,-1
 239 617 l 257,40,41
 236 608 236 608 236 598 c 257,42,43
 236 564 236 564 259.5 540.5 c 128,-1,44
 283 517 283 517 317 517 c 257,45,46
 344 517 344 517 365 533 c 128,-1,47
 386 549 386 549 393 575 c 257,48,-1
 395 610 l 257,49,50
 394 614 394 614 393 617 c 257,51,-1
 395 617 l 257,4,-1
EndSplineSet
EndChar

StartChar: u09AE
Encoding: 2478 2478 1465
GlifName: u09A_E_
Width: 776
VWidth: 0
Flags: W
LayerCount: 2
Fore
SplineSet
313 446 m 257,0,-1
 313 446 l 257,0,-1
776 803 m 257,1,-1
 776 671 l 257,2,-1
 755 671 l 257,3,-1
 755 0 l 257,4,-1
 603 0 l 257,5,-1
 601 -2 l 257,6,-1
 485 114 l 257,7,8
 450 63 450 63 394 33 c 128,-1,9
 338 3 338 3 273 3 c 257,10,11
 272 3 272 3 271 3 c 2,12,-1
 270 3 l 257,13,-1
 269 3 l 257,14,15
 267 3 267 3 265 3 c 257,16,17
 257 3 257 3 251 4 c 257,18,19
 150 10 150 10 80.5 84 c 128,-1,20
 11 158 11 158 11 260 c 257,21,22
 11 319 11 319 35.5 370 c 128,-1,23
 60 421 60 421 103 458 c 257,24,25
 33 558 33 558 97 671 c 257,26,-1
 0 671 l 257,27,-1
 0 803 l 257,28,-1
 776 803 l 257,1,-1
271 367 m 257,29,30
 258 367 258 367 247 364 c 257,31,-1
 247 365 l 257,32,33
 210 357 210 357 186 328 c 128,-1,34
 162 299 162 299 162 260 c 257,35,36
 162 222 162 222 186 193 c 128,-1,37
 210 164 210 164 247 156 c 257,38,-1
 247 157 l 257,39,40
 258 154 258 154 271 154 c 257,41,42
 283 154 283 154 295 157 c 257,43,-1
 295 156 l 257,44,45
 332 164 332 164 356 193 c 128,-1,46
 380 222 380 222 380 260 c 257,47,48
 380 299 380 299 356 328 c 128,-1,49
 332 357 332 357 295 365 c 257,50,-1
 295 364 l 257,51,52
 283 367 283 367 271 367 c 257,29,30
603 195 m 257,53,-1
 603 671 l 257,54,-1
 356 671 l 257,55,56
 346 664 346 664 342 666 c 257,57,58
 337 669 337 669 331 671 c 257,59,-1
 292 671 l 257,60,61
 266 660 266 660 232 603 c 257,62,63
 208 562 208 562 227 515 c 257,64,65
 239 517 239 517 251 517 c 257,66,67
 257 518 257 518 265 518 c 257,68,69
 267 518 267 518 269 518 c 257,70,-1
 270 518 l 257,71,72
 271 518 271 518 273 518 c 257,73,74
 380 518 380 518 455.5 442.5 c 128,-1,75
 531 367 531 367 531 260 c 257,76,77
 531 258 531 258 531 256 c 257,78,-1
 603 195 l 257,53,-1
EndSplineSet
EndChar

StartChar: u09AF
Encoding: 2479 2479 1469
GlifName: u09A_F_
Width: 841
VWidth: 0
Flags: W
LayerCount: 2
Fore
SplineSet
77 180 m 257,0,-1
 108 327 l 257,1,-1
 379 487 l 257,2,-1
 118 671 l 257,3,-1
 0 671 l 257,4,-1
 0 803 l 257,5,-1
 644 803 l 257,6,-1
 796 803 l 257,7,-1
 841 803 l 257,8,-1
 841 671 l 257,9,-1
 796 671 l 257,10,-1
 796 -2 l 257,11,-1
 644 -2 l 257,12,-1
 644 0 l 257,13,-1
 77 180 l 257,0,-1
644 157 m 257,14,-1
 644 671 l 257,15,-1
 357 671 l 257,16,-1
 540 569 l 257,17,-1
 509 422 l 257,18,-1
 302 262 l 257,19,-1
 644 157 l 257,14,-1
EndSplineSet
EndChar

StartChar: u09B0
Encoding: 2480 2480 1473
GlifName: u09B_0
Width: 723
VWidth: 0
Flags: W
LayerCount: 2
Fore
SplineSet
723 803 m 257,0,-1
 723 671 l 257,1,-1
 670 671 l 257,2,-1
 670 1 l 257,3,-1
 523 1 l 257,4,-1
 523 3 l 257,5,-1
 70 274 l 257,6,-1
 70 426 l 257,7,-1
 524 603 l 257,8,-1
 524 671 l 257,9,-1
 0 671 l 257,10,-1
 0 803 l 257,11,-1
 723 803 l 257,0,-1
94 -2 m 257,12,-1
 94 140 l 257,13,-1
 246 140 l 257,14,-1
 246 -2 l 257,15,-1
 94 -2 l 257,12,-1
523 155 m 257,16,-1
 523 454 l 257,17,-1
 214 350 l 257,18,-1
 523 155 l 257,16,-1
EndSplineSet
EndChar

StartChar: u09B2
Encoding: 2482 2482 1477
GlifName: u09B_2
Width: 943
VWidth: 0
Flags: W
LayerCount: 2
Fore
SplineSet
943 803 m 257,0,-1
 943 671 l 257,1,-1
 895 671 l 257,2,-1
 895 47 l 257,3,4
 895 45 895 45 895 44 c 257,5,-1
 895 -2 l 257,6,-1
 743 -2 l 257,7,-1
 743 44 l 257,8,-1
 742 44 l 257,9,10
 743 45 743 45 743 46 c 257,11,-1
 743 93 l 257,12,13
 735 130 735 130 706 153 c 128,-1,14
 677 176 677 176 638 176 c 257,15,16
 600 176 600 176 571 152.5 c 128,-1,17
 542 129 542 129 535 92 c 257,18,19
 536 79 536 79 536 66 c 257,20,21
 536 56 536 56 535 45 c 257,22,23
 535 44 535 44 536 44 c 257,24,-1
 535 44 l 257,25,26
 535 42 535 42 535 40 c 257,27,-1
 382 40 l 257,28,29
 382 42 382 42 383 44 c 257,30,31
 382 57 382 57 382 70 c 257,32,33
 382 80 382 80 382 91 c 257,34,35
 374 127 374 127 345 150 c 128,-1,36
 316 173 316 173 278 173 c 257,37,38
 234 173 234 173 203 142 c 128,-1,39
 172 111 172 111 172 66 c 257,40,41
 172 53 172 53 175 40 c 257,42,-1
 22 40 l 257,43,44
 21 53 21 53 21 66 c 257,45,46
 21 173 21 173 96 248.5 c 128,-1,47
 171 324 171 324 278 324 c 257,48,49
 380 324 380 324 454 255 c 257,50,51
 524 328 524 328 626 328 c 257,52,53
 688 328 688 328 743 300 c 257,54,-1
 743 671 l 257,55,-1
 0 671 l 257,56,-1
 0 803 l 257,57,-1
 743 803 l 257,58,-1
 895 803 l 257,59,-1
 943 803 l 257,0,-1
EndSplineSet
EndChar

StartChar: u09B6
Encoding: 2486 2486 1481
GlifName: u09B_6
Width: 592
VWidth: 0
Flags: W
LayerCount: 2
Fore
SplineSet
-50 706 m 257,0,-1
 -31 706 l 257,1,2
 43 706 43 706 98 657.5 c 128,-1,3
 153 609 153 609 162 538 c 257,4,5
 170 609 170 609 225 657.5 c 128,-1,6
 280 706 280 706 354 706 c 257,7,-1
 373 706 l 257,8,-1
 373 701 l 257,9,-1
 392 684 l 257,10,-1
 392 847 l 257,11,-1
 544 847 l 257,12,-1
 544 803 l 257,13,-1
 592 803 l 257,14,-1
 592 671 l 257,15,-1
 544 671 l 257,16,-1
 544 -2 l 257,17,-1
 392 -2 l 257,18,-1
 392 575 l 257,19,-1
 373 594 l 257,20,-1
 373 590 l 257,21,22
 364 592 364 592 354 592 c 257,23,24
 320 592 320 592 296.5 569.5 c 128,-1,25
 273 547 273 547 273 513.5 c 128,-1,26
 273 480 273 480 296.5 456 c 128,-1,27
 320 432 320 432 354 432 c 257,28,29
 364 432 364 432 373 436 c 257,30,-1
 373 320 l 257,31,-1
 354 320 l 257,32,33
 280 320 280 320 225 368 c 128,-1,34
 170 416 170 416 162 489 c 257,35,36
 153 416 153 416 98 368 c 128,-1,37
 43 320 43 320 -31 320 c 257,38,-1
 -50 320 l 257,39,-1
 -50 436 l 257,40,41
 -41 432 -41 432 -31 432 c 257,42,43
 3 432 3 432 26.5 456 c 128,-1,44
 50 480 50 480 50 513.5 c 128,-1,45
 50 547 50 547 26.5 569.5 c 128,-1,46
 3 592 3 592 -31 592 c 257,47,48
 -41 592 -41 592 -50 590 c 257,49,-1
 -50 706 l 257,0,-1
EndSplineSet
EndChar

StartChar: u09B7
Encoding: 2487 2487 1485
GlifName: u09B_7
Width: 841
VWidth: 0
Flags: W
LayerCount: 2
Fore
SplineSet
644 671 m 257,0,-1
 357 671 l 257,1,-1
 644 529 l 257,2,-1
 644 671 l 257,0,-1
644 157 m 257,3,-1
 644 382 l 257,4,-1
 512 437 l 257,5,-1
 302 262 l 257,6,-1
 644 157 l 257,3,-1
77 180 m 257,7,-1
 108 327 l 257,8,-1
 379 487 l 257,9,-1
 118 671 l 257,10,-1
 0 671 l 257,11,-1
 0 803 l 257,12,-1
 841 803 l 257,13,-1
 841 671 l 257,14,-1
 796 671 l 257,15,-1
 796 -2 l 257,16,-1
 644 -2 l 257,17,-1
 644 0 l 257,18,-1
 77 180 l 257,7,-1
EndSplineSet
EndChar

StartChar: u09B8
Encoding: 2488 2488 1489
GlifName: u09B_8
Width: 776
VWidth: 0
Flags: W
LayerCount: 2
Fore
SplineSet
55 95 m 257,0,-1
 130 220 l 257,1,2
 142 210 142 210 152 205 c 257,3,4
 190 183 190 183 232 193.5 c 128,-1,5
 274 204 274 204 297 240 c 257,6,7
 319 279 319 279 294.5 312.5 c 128,-1,8
 270 346 270 346 227 353 c 257,9,10
 179 379 179 379 143.5 412 c 128,-1,11
 108 445 108 445 86.5 485 c 128,-1,12
 65 525 65 525 67 573 c 128,-1,13
 69 621 69 621 98 671 c 257,14,-1
 0 671 l 257,15,-1
 0 803 l 257,16,-1
 776 803 l 257,17,-1
 776 671 l 257,18,-1
 755 671 l 257,19,-1
 755 0 l 257,20,-1
 603 0 l 257,21,-1
 601 -2 l 257,22,-1
 429 170 l 257,23,24
 428 169 428 169 427 168 c 257,25,26
 375 80 375 80 272.5 54.5 c 128,-1,27
 170 29 170 29 76 80 c 257,28,29
 73 83 73 83 65.5 87.5 c 128,-1,30
 58 92 58 92 55 95 c 257,0,-1
446 326 m 257,31,-1
 446 328 l 257,32,-1
 603 195 l 257,33,-1
 603 671 l 257,34,-1
 356 671 l 257,35,36
 346 664 346 664 342 666 c 257,37,38
 337 669 337 669 331 671 c 257,39,-1
 292 671 l 257,40,41
 266 660 266 660 232 603 c 257,42,43
 207 562 207 562 227.5 513 c 128,-1,44
 248 464 248 464 296 456 c 257,45,46
 414 393 414 393 446 326 c 257,31,-1
EndSplineSet
EndChar

StartChar: u09B9
Encoding: 2489 2489 1493
GlifName: u09B_9
Width: 689
VWidth: 0
Flags: W
LayerCount: 2
Fore
SplineSet
689 803 m 257,0,-1
 689 671 l 257,1,-1
 0 671 l 257,2,-1
 0 803 l 257,3,-1
 689 803 l 257,0,-1
236 472 m 257,4,-1
 128 578 l 257,5,6
 205 655 205 655 311.5 656 c 128,-1,7
 418 657 418 657 495 580 c 257,8,9
 571 503 571 503 570 397 c 128,-1,10
 569 291 569 291 492 214 c 257,11,12
 455 176 455 176 412 156 c 257,13,-1
 593 -1 l 257,14,-1
 434 -1 l 257,15,-1
 226 153 l 257,16,17
 173 175 173 175 131 217 c 257,18,-1
 233 320 l 257,19,-1
 234 319 l 257,20,21
 266 287 266 287 309 287.5 c 128,-1,22
 352 288 352 288 386 321 c 257,23,24
 419 355 419 355 419.5 398 c 128,-1,25
 420 441 420 441 388 473 c 257,26,27
 356 505 356 505 313 505 c 128,-1,28
 270 505 270 505 236 472 c 257,4,-1
EndSplineSet
EndChar

StartChar: u09BC
Encoding: 2492 2492 1497
GlifName: u09B_C_
Width: 0
VWidth: 0
LayerCount: 2
Fore
SplineSet
-510 -197 m 257,0,-1
 -510 -55 l 257,1,-1
 -358 -55 l 257,2,-1
 -358 -197 l 257,3,-1
 -510 -197 l 257,0,-1
EndSplineSet
EndChar

StartChar: u09BD
Encoding: 2493 2493 1501
GlifName: u09B_D_
Width: 689
VWidth: 0
Flags: W
LayerCount: 2
Fore
SplineSet
199 483 m 257,0,-1
 199 467 l 257,1,-1
 189 475 l 257,2,3
 188 474 188 474 186 472 c 257,4,5
 172 486 172 486 154 503 c 257,6,-1
 -50 671 l 257,7,-1
 -50 803 l 257,8,-1
 158 633 l 257,9,10
 228 666 228 666 307.5 652 c 128,-1,11
 387 638 387 638 445 580 c 257,12,13
 521 503 521 503 520 397 c 128,-1,14
 519 291 519 291 442 214 c 257,15,16
 405 176 405 176 362 156 c 257,17,-1
 543 -1 l 257,18,-1
 384 -1 l 257,19,-1
 176 153 l 257,20,21
 123 175 123 175 81 217 c 257,22,-1
 183 320 l 257,23,-1
 184 319 l 257,24,25
 216 287 216 287 259 287.5 c 128,-1,26
 302 288 302 288 336 321 c 257,27,28
 369 355 369 355 369.5 398 c 128,-1,29
 370 441 370 441 338 473 c 257,30,31
 309 502 309 502 270.5 504.5 c 128,-1,32
 232 507 232 507 199 483 c 257,0,-1
EndSplineSet
EndChar

StartChar: u09BE
Encoding: 2494 2494 1505
GlifName: u09B_E_
Width: 507
VWidth: 0
Flags: W
LayerCount: 2
Fore
SplineSet
307 847 m 257,0,-1
 459 847 l 257,1,-1
 459 803 l 257,2,-1
 507 803 l 257,3,-1
 507 671 l 257,4,-1
 459 671 l 257,5,-1
 459 -2 l 257,6,-1
 307 -2 l 257,7,-1
 307 489 l 257,8,-1
 305 487 l 257,9,-1
 0 785 l 257,10,-1
 201 782 l 257,11,-1
 307 688 l 257,12,-1
 307 847 l 257,0,-1
EndSplineSet
EndChar

StartChar: u09BF
Encoding: 2495 2495 1509
GlifName: u09B_F_
Width: 275
VWidth: 0
Flags: W
LayerCount: 2
Fore
SplineSet
272 803 m 257,0,-1
 272 671 l 257,1,-1
 227 671 l 257,2,-1
 227 -2 l 257,3,-1
 75 -2 l 257,4,-1
 75 671 l 257,5,-1
 0 671 l 257,6,-1
 0 803 l 257,7,-1
 75 803 l 257,8,-1
 77 803 l 257,9,10
 76 814 76 814 76 825 c 257,11,12
 76 932 76 932 151 1007.5 c 128,-1,13
 226 1083 226 1083 333 1083 c 128,-1,14
 440 1083 440 1083 515.5 1007.5 c 128,-1,15
 591 932 591 932 591 825 c 257,16,17
 591 812 591 812 590 799 c 257,18,-1
 437 799 l 257,19,20
 440 812 440 812 440 825 c 257,21,22
 440 870 440 870 409 901 c 128,-1,23
 378 932 378 932 333 932 c 257,24,25
 289 932 289 932 258 901 c 128,-1,26
 227 870 227 870 227 825 c 257,27,28
 227 814 227 814 229 803 c 257,29,-1
 272 803 l 257,0,-1
EndSplineSet
EndChar

StartChar: u09C0
Encoding: 2496 2496 1513
GlifName: u09C_0
Width: 196
VWidth: 0
Flags: W
LayerCount: 2
Fore
SplineSet
196 803 m 257,0,-1
 196 671 l 257,1,-1
 151 671 l 257,2,-1
 151 -2 l 257,3,-1
 -1 -2 l 257,4,-1
 -1 671 l 257,5,-1
 -51 671 l 257,6,-1
 -51 803 l 257,7,-1
 -1 803 l 257,8,-1
 0 803 l 257,9,10
 2 816 2 816 2 832 c 257,11,12
 2 877 2 877 -29 908 c 128,-1,13
 -60 939 -60 939 -105 939 c 257,14,15
 -149 939 -149 939 -180 908 c 128,-1,16
 -211 877 -211 877 -211 832 c 257,17,18
 -211 819 -211 819 -208 806 c 257,19,-1
 -361 806 l 257,20,21
 -362 819 -362 819 -362 832 c 257,22,23
 -362 939 -362 939 -287 1014.5 c 128,-1,24
 -212 1090 -212 1090 -105 1090 c 128,-1,25
 2 1090 2 1090 77.5 1014.5 c 128,-1,26
 153 939 153 939 153 832 c 257,27,28
 153 816 153 816 152 803 c 257,29,-1
 196 803 l 257,0,-1
EndSplineSet
EndChar

StartChar: u09C1
Encoding: 2497 2497 1517
GlifName: u09C_1
Width: 0
VWidth: 0
LayerCount: 2
Fore
SplineSet
-520 -117 m 261,0,1
 -530 -118 -530 -118 -539 -120 c 261,2,-1
 -539 -119 l 261,3,4
 -569 -125 -569 -125 -588 -148.5 c 132,-1,5
 -607 -172 -607 -172 -607 -203 c 261,6,7
 -607 -234 -607 -234 -588 -257 c 132,-1,8
 -569 -280 -569 -280 -539 -286 c 261,9,-1
 -539 -285 l 261,10,11
 -530 -288 -530 -288 -520 -288 c 261,12,13
 -510 -288 -510 -288 -501 -285 c 261,14,-1
 -501 -286 l 261,15,16
 -471 -280 -471 -280 -452 -257 c 132,-1,17
 -433 -234 -433 -234 -433 -203 c 261,18,19
 -433 -172 -433 -172 -452 -148.5 c 132,-1,20
 -471 -125 -471 -125 -501 -119 c 261,21,-1
 -501 -120 l 261,22,23
 -510 -118 -510 -118 -520 -117 c 261,0,1
-522 -409 m 261,24,25
 -523 -409 -523 -409 -524 -409 c 261,26,27
 -531 -409 -531 -409 -536 -408 c 261,28,29
 -617 -403 -617 -403 -672.5 -343.5 c 132,-1,30
 -728 -284 -728 -284 -728 -203 c 261,31,32
 -728 -121 -728 -121 -672.5 -62 c 132,-1,33
 -617 -3 -617 -3 -536 3 c 261,34,35
 -531 3 -531 3 -524 3 c 261,36,37
 -523 3 -523 3 -522 3 c 261,38,-1
 -521 3 l 261,39,40
 -520 3 -520 3 -518 3 c 261,41,42
 -454 3 -454 3 -402.5 -32 c 132,-1,43
 -351 -67 -351 -67 -327 -124 c 261,44,-1
 0 4 l 261,45,-1
 0 -118 l 261,46,-1
 -294 -217 l 261,47,-1
 0 -316 l 261,48,-1
 0 -438 l 261,49,-1
 -339 -305 l 261,50,51
 -366 -352 -366 -352 -413.5 -380.5 c 132,-1,52
 -461 -409 -461 -409 -518 -409 c 261,53,54
 -519 -409 -519 -409 -519.5 -409 c 132,-1,55
 -520 -409 -520 -409 -520.5 -409 c 132,-1,56
 -521 -409 -521 -409 -522 -409 c 261,24,25
  PathStart: -2
EndSplineSet
EndChar

StartChar: u09C2
Encoding: 2498 2498 1521
GlifName: u09C_2
Width: 0
VWidth: 0
LayerCount: 2
Fore
SplineSet
-27 16 m 257,0,-1
 353 -178 l 257,1,-1
 292 -284 l 257,2,-1
 51 -161 l 257,3,4
 22 -262 22 -262 -69.5 -313.5 c 128,-1,5
 -161 -365 -161 -365 -262 -338 c 257,6,7
 -366 -310 -366 -310 -419 -218 c 128,-1,8
 -472 -126 -472 -126 -445 -22 c 257,9,10
 -441 -9 -441 -9 -437 3 c 257,11,-1
 -289 -37 l 257,12,13
 -295 -48 -295 -48 -299 -61 c 257,14,15
 -310 -105 -310 -105 -288 -143 c 128,-1,16
 -266 -181 -266 -181 -223 -192 c 257,17,18
 -180 -204 -180 -204 -142.5 -182 c 128,-1,19
 -105 -160 -105 -160 -93 -116 c 257,20,21
 -89 -103 -89 -103 -89 -90 c 257,22,-1
 -87 -91 l 257,23,-1
 -89 -90 l 257,24,-1
 -27 16 l 257,0,-1
EndSplineSet
EndChar

StartChar: u09C3
Encoding: 2499 2499 1525
GlifName: u09C_3
Width: 0
VWidth: 0
LayerCount: 2
Fore
SplineSet
154 4 m 257,0,-1
 154 -118 l 257,1,-1
 -139 -217 l 257,2,-1
 154 -316 l 257,3,-1
 154 -438 l 257,4,-1
 -254 -278 l 257,5,-1
 -254 -156 l 257,6,-1
 154 4 l 257,0,-1
EndSplineSet
EndChar

StartChar: u09C4
Encoding: 2500 2500 1529
GlifName: u09C_4
Width: 0
VWidth: 0
LayerCount: 2
Fore
SplineSet
154 4 m 257,0,-1
 154 -118 l 257,1,-1
 108 -133 l 257,2,-1
 154 -149 l 257,3,-1
 154 -271 l 257,4,-1
 -55 -188 l 257,5,-1
 -139 -217 l 257,6,-1
 154 -316 l 257,7,-1
 154 -438 l 257,8,-1
 -254 -278 l 257,9,-1
 -254 -156 l 257,10,-1
 -196 -133 l 257,11,-1
 -254 -111 l 257,12,-1
 -254 11 l 257,13,-1
 154 171 l 257,14,-1
 154 49 l 257,15,-1
 -139 -50 l 257,16,-1
 -55 -78 l 257,17,-1
 154 4 l 257,0,-1
EndSplineSet
EndChar

StartChar: u09C7
Encoding: 2503 2503 1533
GlifName: u09C_7
Width: 621
VWidth: 0
Flags: W
LayerCount: 2
Fore
SplineSet
621 803 m 257,0,-1
 621 671 l 257,1,-1
 454 671 l 257,2,-1
 389 661 l 257,3,4
 335 661 335 661 285.5 608.5 c 128,-1,5
 236 556 236 556 209.5 486 c 128,-1,6
 183 416 183 416 183 356 c 257,7,8
 183 269 183 269 243 207 c 128,-1,9
 303 145 303 145 389 145 c 257,10,11
 423 145 423 145 454 156 c 257,12,-1
 454 10 l 257,13,14
 422 4 422 4 389 4 c 257,15,16
 295 4 295 4 216 51 c 128,-1,17
 137 98 137 98 91 180 c 128,-1,18
 45 262 45 262 45 358 c 257,19,20
 45 436 45 436 75 520 c 128,-1,21
 105 604 105 604 157 671 c 257,22,-1
 0 671 l 257,23,-1
 0 803 l 257,24,-1
 621 803 l 257,0,-1
EndSplineSet
EndChar

StartChar: u09C8
Encoding: 2504 2504 1537
GlifName: u09C_8
Width: 621
VWidth: 0
Flags: W
LayerCount: 2
Fore
SplineSet
621 803 m 257,0,-1
 621 671 l 257,1,-1
 454 671 l 257,2,-1
 389 661 l 257,3,4
 335 661 335 661 285.5 608.5 c 128,-1,5
 236 556 236 556 209.5 486 c 128,-1,6
 183 416 183 416 183 356 c 257,7,8
 183 269 183 269 243 207 c 128,-1,9
 303 145 303 145 389 145 c 257,10,11
 423 145 423 145 454 156 c 257,12,-1
 454 10 l 257,13,14
 422 4 422 4 389 4 c 257,15,16
 295 4 295 4 216 51 c 128,-1,17
 137 98 137 98 91 180 c 128,-1,18
 45 262 45 262 45 358 c 257,19,20
 45 436 45 436 75 520 c 128,-1,21
 105 604 105 604 157 671 c 257,22,-1
 0 671 l 257,23,-1
 0 803 l 257,24,-1
 333 803 l 257,25,26
 324 849 324 849 300 873 c 257,27,28
 268 904 268 904 237 935 c 257,29,30
 213 959 213 959 160.5 972.5 c 128,-1,31
 108 986 108 986 85 1010 c 257,32,33
 69 1025 69 1025 58.5 1055 c 128,-1,34
 48 1085 48 1085 46 1108 c 257,35,-1
 44 1130 l 257,36,-1
 132 1218 l 257,37,38
 133 1209 133 1209 135 1193.5 c 128,-1,39
 137 1178 137 1178 148.5 1144.5 c 128,-1,40
 160 1111 160 1111 176 1095 c 257,41,42
 198 1073 198 1073 249.5 1061 c 128,-1,43
 301 1049 301 1049 324 1027 c 257,44,-1
 394 956 l 257,45,46
 408 942 408 942 416.5 921.5 c 128,-1,47
 425 901 425 901 427 882 c 128,-1,48
 429 863 429 863 429 846 c 128,-1,49
 429 829 429 829 428 818.5 c 2,50,-1
 427 808 l 257,51,-1
 422 803 l 257,52,-1
 621 803 l 257,0,-1
EndSplineSet
EndChar

StartChar: u09CD
Encoding: 2509 2509 1549
GlifName: u09C_D_
Width: 0
VWidth: 0
LayerCount: 2
Fore
SplineSet
-154 -1 m 257,0,-1
 -10 -186 l 257,1,-1
 -116 -247 l 257,2,-1
 -260 -62 l 257,3,-1
 -154 -1 l 257,0,-1
EndSplineSet
EndChar

StartChar: u09CE
Encoding: 2510 2510 1553
GlifName: u09C_E_
Width: 512
VWidth: 0
Flags: W
LayerCount: 2
Fore
SplineSet
216.447265625 -16 m 257,0,1
 224.447265625 7 224.447265625 7 278.447265625 81 c 128,-1,2
 332.447265625 155 332.447265625 155 323.947265625 198 c 128,-1,3
 315.447265625 241 315.447265625 241 298.447265625 271.5 c 128,-1,4
 281.447265625 302 281.447265625 302 263.447265625 301 c 257,5,6
 208.447265625 314 208.447265625 314 165.947265625 336.5 c 128,-1,7
 123.447265625 359 123.447265625 359 91.447265625 394 c 128,-1,8
 59.447265625 429 59.447265625 429 51.447265625 475 c 128,-1,9
 43.447265625 521 43.447265625 521 57.447265625 581 c 257,10,11
 85.447265625 679 85.447265625 679 178.447265625 730 c 128,-1,12
 271.447265625 781 271.447265625 781 374.447265625 757 c 257,13,14
 378.447265625 755 378.447265625 755 386.947265625 752.5 c 128,-1,15
 395.447265625 750 395.447265625 750 399.447265625 748 c 257,16,-1
 359.447265625 608 l 257,17,18
 344.447265625 614 344.447265625 614 333.447265625 617 c 257,19,20
 291.447265625 627 291.447265625 627 253.447265625 606 c 128,-1,21
 215.447265625 585 215.447265625 585 203.447265625 543 c 257,22,23
 190.447265625 497 190.447265625 497 222.947265625 455.5 c 128,-1,24
 255.447265625 414 255.447265625 414 303.447265625 418 c 257,25,26
 350.447265625 407 350.447265625 407 391.447265625 363.5 c 128,-1,27
 432.447265625 320 432.447265625 320 455.947265625 261 c 128,-1,28
 479.447265625 202 479.447265625 202 429.447265625 104.5 c 128,-1,29
 379.447265625 7 379.447265625 7 361.447265625 -52 c 257,30,-1
 216.447265625 -16 l 257,0,1
EndSplineSet
EndChar

StartChar: u09D7
Encoding: 2519 2519 1557
GlifName: u09D_7
Width: 254
VWidth: 0
Flags: W
LayerCount: 2
Fore
SplineSet
205 803 m 257,0,-1
 205 671 l 257,1,-1
 160 671 l 257,2,-1
 160 -2 l 257,3,-1
 8 -2 l 257,4,-1
 8 671 l 257,5,-1
 -50 671 l 257,6,-1
 -50 803 l 257,7,-1
 8 803 l 257,8,-1
 18 803 l 257,9,10
 9 827 9 827 -6 842 c 257,11,12
 -38 873 -38 873 -69 904 c 257,13,14
 -93 928 -93 928 -145.5 941.5 c 128,-1,15
 -198 955 -198 955 -221 979 c 257,16,17
 -237 994 -237 994 -247.5 1024 c 128,-1,18
 -258 1054 -258 1054 -260 1077 c 257,19,-1
 -262 1099 l 257,20,-1
 -174 1187 l 257,21,22
 -173 1178 -173 1178 -171 1162.5 c 128,-1,23
 -169 1147 -169 1147 -157.5 1113.5 c 128,-1,24
 -146 1080 -146 1080 -130 1064 c 257,25,26
 -108 1042 -108 1042 -56.5 1030 c 128,-1,27
 -5 1018 -5 1018 18 996 c 257,28,-1
 19 994 l 257,29,-1
 20 993 l 257,30,-1
 22 991 l 257,31,-1
 23 990 l 257,32,-1
 24 989 l 257,33,-1
 26 987 l 257,34,-1
 27 986 l 257,35,-1
 28 985 l 257,36,-1
 30 984 l 257,37,-1
 31 982 l 257,38,-1
 32 981 l 257,39,-1
 33 980 l 257,40,-1
 34 979 l 257,41,-1
 36 977 l 257,42,-1
 37 976 l 257,43,-1
 38 975 l 257,44,-1
 39 974 l 257,45,-1
 40 973 l 257,46,-1
 41 972 l 257,47,-1
 42 971 l 257,48,-1
 43 970 l 257,49,-1
 44 969 l 257,50,-1
 46 968 l 257,51,-1
 47 967 l 257,52,-1
 48 966 l 257,53,-1
 49 965 l 257,54,-1
 50 964 l 257,55,-1
 51 963 l 257,56,-1
 52 962 l 257,57,-1
 53 960 l 257,58,-1
 54 959 l 257,59,-1
 55 958 l 257,60,-1
 56 957 l 257,61,-1
 57 956 l 257,62,-1
 58 956 l 257,63,-1
 58 955 l 257,64,-1
 59 954 l 257,65,-1
 60 953 l 257,66,-1
 61 953 l 257,67,-1
 61 952 l 257,68,-1
 62 951 l 257,69,-1
 63 950 l 257,70,-1
 64 949 l 257,71,-1
 65 949 l 257,72,-1
 65 948 l 257,73,-1
 66 947 l 257,74,-1
 67 946 l 257,75,-1
 68 945 l 257,76,-1
 69 945 l 257,77,-1
 69 944 l 257,78,-1
 70 943 l 257,79,-1
 71 942 l 257,80,-1
 72 941 l 257,81,-1
 73 940 l 257,82,-1
 74 940 l 257,83,-1
 74 939 l 257,84,-1
 75 938 l 257,85,-1
 76 937 l 257,86,-1
 77 936 l 257,87,-1
 78 935 l 257,88,-1
 79 934 l 257,89,-1
 80 933 l 257,90,-1
 81 932 l 257,91,-1
 82 931 l 257,92,-1
 83 930 l 257,93,-1
 84 929 l 257,94,-1
 85 929 l 257,95,-1
 86 928 l 257,96,-1
 87 927 l 257,97,-1
 88 925 l 257,98,99
 126 887 126 887 123 803 c 257,100,-1
 160 803 l 257,101,-1
 205 803 l 257,0,-1
EndSplineSet
EndChar

StartChar: u09E0
Encoding: 2528 2528 1573
GlifName: u09E_0
Width: 1294
VWidth: 0
Flags: W
LayerCount: 2
Fore
SplineSet
872 777 m 257,0,-1
 1018 777 l 257,1,-1
 1018 286 l 257,2,-1
 1092 211 l 257,3,-1
 1094 795 l 257,4,-1
 1294 795 l 257,5,-1
 1294 663 l 257,6,-1
 1244 663 l 257,7,-1
 1244 0 l 257,8,-1
 1242 0 l 257,9,-1
 1242 -89 l 257,10,-1
 948 -188 l 257,11,-1
 1242 -287 l 257,12,-1
 1242 -409 l 257,13,-1
 833 -249 l 257,14,-1
 833 -127 l 257,15,-1
 1159 0 l 257,16,-1
 1093 0 l 257,17,-1
 1090 -2 l 257,18,-1
 1018 70 l 257,19,-1
 1018 1 l 257,20,-1
 871 1 l 257,21,-1
 871 3 l 257,22,-1
 418 180 l 257,23,-1
 418 332 l 257,24,-1
 665 562 l 257,25,-1
 675 629 l 257,26,27
 655 572 655 572 605.5 536 c 128,-1,28
 556 500 556 500 494 500 c 257,29,30
 449 500 449 500 409.5 519 c 128,-1,31
 370 538 370 538 343 571 c 257,32,33
 316 538 316 538 277 519 c 128,-1,34
 238 500 238 500 194 500 c 257,35,36
 113 500 113 500 56.5 556.5 c 128,-1,37
 0 613 0 613 0 694 c 257,38,-1
 0 713 l 257,39,-1
 116 713 l 257,40,41
 113 704 113 704 113 694 c 257,42,43
 113 660 113 660 136.5 636.5 c 128,-1,44
 160 613 160 613 194 613 c 128,-1,45
 228 613 228 613 250.5 636.5 c 128,-1,46
 273 660 273 660 273 694 c 257,47,48
 273 704 273 704 270 713 c 257,49,-1
 300 713 l 257,50,-1
 386 713 l 257,51,-1
 416 713 l 257,52,53
 413 704 413 704 413 694 c 257,54,55
 413 660 413 660 436.5 636.5 c 128,-1,56
 460 613 460 613 494 613 c 128,-1,57
 528 613 528 613 550.5 636.5 c 128,-1,58
 573 660 573 660 573 694 c 257,59,60
 573 767 573 767 570 776 c 257,61,-1
 872 777 l 257,0,-1
871 160 m 257,62,-1
 871 709 l 257,63,-1
 704 444 l 257,64,-1
 703 445 l 257,65,-1
 562 274 l 257,66,-1
 871 160 l 257,62,-1
EndSplineSet
EndChar

StartChar: u09E1
Encoding: 2529 2529 1577
GlifName: u09E_1
Width: 779
VWidth: 0
Flags: W
LayerCount: 2
Fore
SplineSet
259 -146 m 257,0,1
 259 -141 259 -141 259 -136 c 257,2,3
 259 -93 259 -93 289 -63 c 128,-1,4
 319 -33 319 -33 362 -33 c 257,5,6
 390 -33 390 -33 413.5 -46.5 c 128,-1,7
 437 -60 437 -60 450 -84 c 257,8,9
 463 -33 463 -33 425 5 c 257,10,11
 398 33 398 33 359.5 33.5 c 128,-1,12
 321 34 321 34 294 7 c 257,13,14
 283 -4 283 -4 277 -17 c 257,15,-1
 231 29 l 257,16,17
 239 41 239 41 250 51 c 257,18,19
 294 96 294 96 358.5 95 c 128,-1,20
 423 94 423 94 469 48 c 128,-1,21
 515 2 515 2 516 -62.5 c 128,-1,22
 517 -127 517 -127 472 -171 c 257,23,24
 462 -182 462 -182 450 -190 c 257,25,-1
 406 -146 l 257,26,-1
 403 -146 l 257,27,28
 403 -145 403 -145 404 -144 c 257,29,-1
 403 -143 l 257,30,-1
 404 -142 l 257,31,32
 404 -139 404 -139 404 -136 c 257,33,34
 404 -118 404 -118 392 -105.5 c 128,-1,35
 380 -93 380 -93 362 -93 c 257,36,37
 344 -93 344 -93 331.5 -105.5 c 128,-1,38
 319 -118 319 -118 319 -136 c 257,39,40
 319 -141 319 -141 320 -146 c 257,41,-1
 259 -146 l 257,0,1
49 104 m 257,42,43
 48 117 48 117 48 130 c 257,44,45
 48 237 48 237 123 312.5 c 128,-1,46
 198 388 198 388 305 388 c 257,47,48
 375 388 375 388 434 353.5 c 128,-1,49
 493 319 493 319 527 261 c 257,50,51
 541 320 541 320 525 379 c 128,-1,52
 509 438 509 438 464 483 c 257,53,54
 395 552 395 552 299 553.5 c 128,-1,55
 203 555 203 555 136 487 c 257,56,57
 109 461 109 461 93 427 c 257,58,-1
 -22 542 l 257,59,60
 -1 572 -1 572 25 598 c 257,61,62
 98 672 98 672 197.5 697 c 128,-1,63
 297 722 297 722 397.5 694 c 128,-1,64
 498 666 498 666 574 590 c 257,65,66
 649 514 649 514 677 414 c 128,-1,67
 705 314 705 314 680 214.5 c 128,-1,68
 655 115 655 115 581 42 c 257,69,70
 555 16 555 16 525 -5 c 257,71,-1
 416 104 l 257,72,-1
 409 104 l 257,73,74
 409 107 409 107 410 110 c 257,75,-1
 407 113 l 257,76,77
 409 113 409 113 411 114 c 257,78,79
 412 122 412 122 412 130 c 257,80,81
 412 175 412 175 381 206 c 128,-1,82
 350 237 350 237 305 237 c 257,83,84
 261 237 261 237 230 206 c 128,-1,85
 199 175 199 175 199 130 c 257,86,87
 199 117 199 117 202 104 c 257,88,-1
 49 104 l 257,42,43
EndSplineSet
EndChar

StartChar: u09E2
Encoding: 2530 2530 1581
GlifName: u09E_2
Width: 0
VWidth: 0
LayerCount: 2
Fore
SplineSet
-163 -146 m 257,0,1
 -164 -141 -164 -141 -164 -136 c 257,2,3
 -164 -93 -164 -93 -134 -63 c 128,-1,4
 -104 -33 -104 -33 -61 -33 c 257,5,6
 -33 -33 -33 -33 -9.5 -46.5 c 128,-1,7
 14 -60 14 -60 28 -84 c 257,8,9
 40 -33 40 -33 3 5 c 257,10,11
 -25 33 -25 33 -63.5 33.5 c 128,-1,12
 -102 34 -102 34 -129 7 c 257,13,14
 -139 -4 -139 -4 -146 -17 c 257,15,-1
 -192 29 l 257,16,17
 -183 41 -183 41 -173 51 c 257,18,19
 -128 96 -128 96 -64 95 c 128,-1,20
 0 94 0 94 46.5 48 c 128,-1,21
 93 2 93 2 93.5 -62.5 c 128,-1,22
 94 -127 94 -127 50 -171 c 257,23,24
 39 -182 39 -182 27 -190 c 257,25,-1
 -16 -146 l 257,26,-1
 -19 -146 l 257,27,28
 -19 -145 -19 -145 -19 -144 c 257,29,-1
 -20 -143 l 257,30,31
 -19 -143 -19 -143 -19 -142 c 257,32,33
 -18 -139 -18 -139 -18 -136 c 257,34,35
 -18 -118 -18 -118 -30.5 -105.5 c 128,-1,36
 -43 -93 -43 -93 -61 -93 c 257,37,38
 -79 -93 -79 -93 -91 -105.5 c 128,-1,39
 -103 -118 -103 -118 -103 -136 c 257,40,41
 -103 -141 -103 -141 -102 -146 c 257,42,-1
 -163 -146 l 257,0,1
EndSplineSet
EndChar

StartChar: u09E3
Encoding: 2531 2531 1585
GlifName: u09E_3
Width: 0
VWidth: 0
LayerCount: 2
Fore
SplineSet
-7 -295 m 257,0,1
 -8 -289 -8 -289 -8 -284 c 257,2,3
 -8 -241 -8 -241 22 -211 c 128,-1,4
 52 -181 52 -181 95 -181 c 257,5,6
 123 -181 123 -181 146.5 -194.5 c 128,-1,7
 170 -208 170 -208 184 -232 c 257,8,9
 196 -181 196 -181 159 -143 c 257,10,11
 131 -115 131 -115 92.5 -114.5 c 128,-1,12
 54 -114 54 -114 27 -141 c 257,13,14
 17 -152 17 -152 10 -165 c 257,15,-1
 -36 -119 l 257,16,17
 -27 -107 -27 -107 -17 -97 c 257,18,19
 28 -52 28 -52 92 -53 c 128,-1,20
 156 -54 156 -54 202.5 -100 c 128,-1,21
 249 -146 249 -146 249.5 -210.5 c 128,-1,22
 250 -275 250 -275 206 -319 c 257,23,24
 195 -330 195 -330 183 -338 c 257,25,-1
 140 -295 l 257,26,-1
 137 -295 l 257,27,28
 137 -293 137 -293 137 -292 c 257,29,-1
 136 -291 l 257,30,31
 137 -291 137 -291 137 -290 c 257,32,33
 138 -287 138 -287 138 -284 c 257,34,35
 138 -266 138 -266 125.5 -253.5 c 128,-1,36
 113 -241 113 -241 95 -241 c 257,37,38
 77 -241 77 -241 65 -253.5 c 128,-1,39
 53 -266 53 -266 53 -284 c 257,40,41
 53 -289 53 -289 54 -295 c 257,42,-1
 -7 -295 l 257,0,1
-192 -159 m 257,43,44
 -193 -153 -193 -153 -193 -148 c 257,45,46
 -193 -105 -193 -105 -163 -75 c 128,-1,47
 -133 -45 -133 -45 -90 -45 c 257,48,49
 -62 -45 -62 -45 -38.5 -58.5 c 128,-1,50
 -15 -72 -15 -72 -1 -96 c 257,51,52
 11 -45 11 -45 -26 -7 c 257,53,54
 -54 21 -54 21 -92.5 21.5 c 128,-1,55
 -131 22 -131 22 -158 -5 c 257,56,57
 -168 -16 -168 -16 -175 -29 c 257,58,-1
 -221 17 l 257,59,60
 -212 29 -212 29 -202 39 c 257,61,62
 -157 84 -157 84 -93 83 c 128,-1,63
 -29 82 -29 82 17.5 36 c 128,-1,64
 64 -10 64 -10 64.5 -74.5 c 128,-1,65
 65 -139 65 -139 21 -183 c 257,66,67
 10 -194 10 -194 -2 -202 c 257,68,-1
 -45 -159 l 257,69,-1
 -48 -159 l 257,70,71
 -48 -157 -48 -157 -48 -156 c 257,72,-1
 -49 -155 l 257,73,74
 -48 -155 -48 -155 -48 -154 c 257,75,76
 -47 -151 -47 -151 -47 -148 c 257,77,78
 -47 -130 -47 -130 -59.5 -117.5 c 128,-1,79
 -72 -105 -72 -105 -90 -105 c 257,80,81
 -108 -105 -108 -105 -120 -117.5 c 128,-1,82
 -132 -130 -132 -130 -132 -148 c 257,83,84
 -132 -153 -132 -153 -131 -159 c 257,85,-1
 -192 -159 l 257,43,44
EndSplineSet
EndChar

StartChar: u09E6
Encoding: 2534 2534 1589
GlifName: u09E_6
Width: 864
VWidth: 0
Flags: W
LayerCount: 2
Fore
SplineSet
616 378 m 257,0,1
 616 465 616 465 562.5 527 c 128,-1,2
 509 589 509 589 432.5 589 c 128,-1,3
 356 589 356 589 302 527 c 128,-1,4
 248 465 248 465 248 378 c 257,5,6
 248 290 248 290 302 228.5 c 128,-1,7
 356 167 356 167 432.5 167 c 128,-1,8
 509 167 509 167 562.5 228.5 c 128,-1,9
 616 290 616 290 616 378 c 257,0,1
738 380 m 257,10,11
 738 283 738 283 697 201.5 c 128,-1,12
 656 120 656 120 586 72.5 c 128,-1,13
 516 25 516 25 432.5 25 c 128,-1,14
 349 25 349 25 278.5 72.5 c 128,-1,15
 208 120 208 120 167 201.5 c 128,-1,16
 126 283 126 283 126 380 c 257,17,18
 126 476 126 476 167 557.5 c 128,-1,19
 208 639 208 639 278.5 686.5 c 128,-1,20
 349 734 349 734 432.5 734 c 128,-1,21
 516 734 516 734 586 686.5 c 128,-1,22
 656 639 656 639 697 557.5 c 128,-1,23
 738 476 738 476 738 380 c 257,10,11
EndSplineSet
EndChar

StartChar: u09E7
Encoding: 2535 2535 1593
GlifName: u09E_7
Width: 555
VWidth: 0
Flags: W
LayerCount: 2
Fore
SplineSet
123 147 m 257,0,1
 218 147 218 147 285 215.5 c 128,-1,2
 352 284 352 284 352 381 c 257,3,4
 352 479 352 479 285 547.5 c 128,-1,5
 218 616 218 616 123 616 c 257,6,7
 85 616 85 616 50 604 c 257,8,-1
 50 766 l 257,9,10
 86 773 86 773 123 773 c 257,11,12
 281 773 281 773 393 657.5 c 128,-1,13
 505 542 505 542 505 379 c 128,-1,14
 505 216 505 216 393 101 c 128,-1,15
 281 -14 281 -14 123 -14 c 257,16,17
 86 -14 86 -14 50 -7 c 257,18,-1
 50 159 l 257,19,20
 85 147 85 147 123 147 c 257,0,1
EndSplineSet
EndChar

StartChar: u09E8
Encoding: 2536 2536 1597
GlifName: u09E_8
Width: 783
VWidth: 0
Flags: W
LayerCount: 2
Fore
SplineSet
45.5 226 m 257,0,-1
 121.5 358 l 257,1,-1
 502.5 446 l 257,2,-1
 130.5 662 l 257,3,-1
 206.5 794 l 257,4,-1
 737.5 486 l 257,5,-1
 661.5 355 l 257,6,-1
 279.5 267 l 257,7,-1
 623.5 68 l 257,8,-1
 547.5 -64 l 257,9,-1
 45.5 226 l 257,0,-1
EndSplineSet
EndChar

StartChar: u09E9
Encoding: 2537 2537 1601
GlifName: u09E_9
Width: 726
VWidth: 0
Flags: W
LayerCount: 2
Fore
SplineSet
355 513 m 257,0,-1
 361 634 l 257,1,2
 362 634 362 634 363 634 c 257,3,4
 490 634 490 634 579.5 542 c 128,-1,5
 669 450 669 450 669 320 c 257,6,7
 669 189 669 189 579.5 97 c 128,-1,8
 490 5 490 5 363 5 c 128,-1,9
 236 5 236 5 146.5 97 c 128,-1,10
 57 189 57 189 57 320 c 257,11,-1
 113 325.5 l 2,12,13
 169 331 169 331 169 332 c 257,14,15
 169 329 169 329 169 326 c 257,16,17
 169 248 169 248 222.5 193 c 128,-1,18
 276 138 276 138 352 138 c 128,-1,19
 428 138 428 138 481.5 193 c 128,-1,20
 535 248 535 248 535 326 c 257,21,22
 535 403 535 403 482.5 457.5 c 128,-1,23
 430 512 430 512 355 513 c 257,0,-1
EndSplineSet
EndChar

StartChar: u09EA
Encoding: 2538 2538 1605
GlifName: u09E_A_
Width: 616
VWidth: 0
Flags: W
LayerCount: 2
Fore
SplineSet
307 3 m 257,0,-1
 306 3 l 257,1,2
 305 3 305 3 303 3 c 257,3,4
 296 3 296 3 291 4 c 257,5,6
 201 10 201 10 140 75 c 128,-1,7
 79 140 79 140 79 229 c 257,8,9
 79 262 79 262 106.5 313 c 128,-1,10
 134 364 134 364 160 400 c 257,11,12
 125 448 125 448 125 507 c 257,13,14
 125 579 125 579 174 631 c 128,-1,15
 223 683 223 683 294 688 c 257,16,17
 298 689 298 689 304 689 c 257,18,19
 305 689 305 689 306.5 689 c 128,-1,20
 308 689 308 689 309 689 c 257,21,22
 385 689 385 689 438 636 c 128,-1,23
 491 583 491 583 491 507 c 257,24,25
 491 448 491 448 456 400 c 257,26,27
 482 364 482 364 509.5 313 c 128,-1,28
 537 262 537 262 537 229 c 257,29,30
 537 136 537 136 470.5 69.5 c 128,-1,31
 404 3 404 3 310 3 c 257,32,33
 309 3 309 3 308 3 c 2,34,-1
 307 3 l 257,0,-1
308 582 m 257,35,36
 299 582 299 582 291 580 c 257,37,-1
 291 581 l 257,38,39
 265 576 265 576 248 555.5 c 128,-1,40
 231 535 231 535 231 507 c 257,41,42
 231 480 231 480 248 459.5 c 128,-1,43
 265 439 265 439 291 434 c 257,44,-1
 291 435 l 257,45,46
 299 433 299 433 308 432 c 257,47,48
 317 433 317 433 325 435 c 257,49,-1
 325 434 l 257,50,51
 351 439 351 439 368 459.5 c 128,-1,52
 385 480 385 480 385 507 c 257,53,54
 385 535 385 535 368 555.5 c 128,-1,55
 351 576 351 576 325 581 c 257,56,-1
 325 580 l 257,57,58
 317 582 317 582 308 582 c 257,35,36
308 324 m 257,59,60
 297 323 297 323 287 321 c 257,61,-1
 287 322 l 257,62,63
 254 315 254 315 233 289.5 c 128,-1,64
 212 264 212 264 212 229 c 257,65,66
 212 196 212 196 233 170.5 c 128,-1,67
 254 145 254 145 287 138 c 257,68,-1
 287 139 l 257,69,70
 297 136 297 136 308 136 c 257,71,72
 319 136 319 136 329 139 c 257,73,-1
 329 138 l 257,74,75
 362 145 362 145 383 170.5 c 128,-1,76
 404 196 404 196 404 229 c 257,77,78
 404 264 404 264 383 289.5 c 128,-1,79
 362 315 362 315 329 322 c 257,80,-1
 329 321 l 257,81,82
 319 323 319 323 308 324 c 257,59,60
EndSplineSet
EndChar

StartChar: u09EB
Encoding: 2539 2539 1609
GlifName: u09E_B_
Width: 779
VWidth: 0
Flags: W
LayerCount: 2
Fore
SplineSet
357.723632812 384 m 257,0,-1
 356.723632812 385 l 257,1,-1
 357.723632812 384 l 257,0,-1
738.723632812 479 m 257,2,-1
 661.723632812 347 l 257,3,4
 652.723632812 356 652.723632812 356 640.723632812 363 c 257,5,6
 601.723632812 385 601.723632812 385 559.723632812 374 c 128,-1,7
 517.723632812 363 517.723632812 363 494.723632812 324 c 257,8,9
 472.723632812 285 472.723632812 285 484.223632812 243 c 128,-1,10
 495.723632812 201 495.723632812 201 534.723632812 178 c 257,11,12
 540.723632812 174 540.723632812 174 548.723632812 171 c 257,13,14
 549.723632812 172 549.723632812 172 551.723632812 173 c 257,15,-1
 552.723632812 170 l 257,16,17
 555.723632812 169 555.723632812 169 558.723632812 168 c 257,18,-1
 554.723632812 161 l 257,19,-1
 594.723632812 13 l 257,20,21
 561.723632812 -3 561.723632812 -3 525.723632812 -13 c 257,22,23
 425.723632812 -40 425.723632812 -40 327.223632812 -12 c 128,-1,24
 228.723632812 16 228.723632812 16 155.723632812 90.5 c 128,-1,25
 82.7236328125 165 82.7236328125 165 54.7236328125 268 c 257,26,27
 32.7236328125 347 32.7236328125 347 44.2236328125 424 c 128,-1,28
 55.7236328125 501 55.7236328125 501 90.7236328125 566 c 128,-1,29
 125.723632812 631 125.723632812 631 186.223632812 679 c 128,-1,30
 246.723632812 727 246.723632812 727 321.723632812 747 c 257,31,32
 357.723632812 757 357.723632812 757 394.723632812 759 c 257,33,-1
 436.723632812 603 l 257,34,35
 411.723632812 605 411.723632812 605 386.723632812 601 c 257,36,-1
 492.723632812 478 l 257,37,38
 495.723632812 479 495.723632812 479 514.723632812 484.5 c 128,-1,39
 533.723632812 490 533.723632812 490 540.223632812 492 c 128,-1,40
 546.723632812 494 546.723632812 494 564.723632812 498.5 c 128,-1,41
 582.723632812 503 582.723632812 503 592.223632812 504.5 c 128,-1,42
 601.723632812 506 601.723632812 506 617.723632812 508.5 c 128,-1,43
 633.723632812 511 633.723632812 511 644.723632812 510 c 128,-1,44
 655.723632812 509 655.723632812 509 669.223632812 508 c 128,-1,45
 682.723632812 507 682.723632812 507 694.223632812 503 c 128,-1,46
 705.723632812 499 705.723632812 499 716.723632812 493 c 257,47,48
 727.723632812 487 727.723632812 487 738.723632812 479 c 257,2,-1
356.723632812 385 m 257,49,-1
 240.723632812 513 l 257,50,51
 208.723632812 471 208.723632812 471 198.223632812 418.5 c 128,-1,52
 187.723632812 366 187.723632812 366 202.723632812 309 c 257,53,54
 218.723632812 248 218.723632812 248 262.223632812 204.5 c 128,-1,55
 305.723632812 161 305.723632812 161 362.723632812 144 c 257,56,57
 331.723632812 199 331.723632812 199 329.723632812 262 c 128,-1,58
 327.723632812 325 327.723632812 325 356.723632812 385 c 257,49,-1
EndSplineSet
EndChar

StartChar: u09EC
Encoding: 2540 2540 1613
GlifName: u09E_C_
Width: 616
VWidth: 0
Flags: W
LayerCount: 2
Fore
SplineSet
303.946289062 751 m 257,0,-1
 435.946289062 751 l 257,1,-1
 435.946289062 484 l 257,2,3
 495.946289062 450 495.946289062 450 531.446289062 390.5 c 128,-1,4
 566.946289062 331 566.946289062 331 564.946289062 260 c 257,5,6
 561.946289062 151 561.946289062 151 486.946289062 77 c 128,-1,7
 411.946289062 3 411.946289062 3 303.946289062 3 c 257,8,9
 241.946289062 3 241.946289062 3 192.946289062 25 c 128,-1,10
 143.946289062 47 143.946289062 47 113.446289062 84 c 128,-1,11
 82.9462890625 121 82.9462890625 121 66.9462890625 166.5 c 128,-1,12
 50.9462890625 212 50.9462890625 212 50.9462890625 261 c 257,13,-1
 195.946289062 261 l 257,14,-1
 195.946289062 260 l 257,15,16
 195.946289062 215 195.946289062 215 226.946289062 185 c 128,-1,17
 257.946289062 155 257.946289062 155 304.946289062 154 c 257,18,19
 351.946289062 155 351.946289062 155 382.946289062 185 c 128,-1,20
 413.946289062 215 413.946289062 215 413.946289062 260 c 257,21,22
 413.946289062 302 413.946289062 302 387.446289062 331.5 c 128,-1,23
 360.946289062 361 360.946289062 361 318.946289062 366 c 257,24,-1
 303.946289062 366 l 257,25,-1
 303.946289062 518 l 257,26,-1
 303.946289062 518 l 257,27,-1
 303.946289062 751 l 257,0,-1
EndSplineSet
EndChar

StartChar: u09ED
Encoding: 2541 2541 1617
GlifName: u09E_D_
Width: 534
VWidth: 0
Flags: W
LayerCount: 2
Fore
SplineSet
332 626 m 257,0,1
 320 629 320 629 308 629 c 257,2,3
 263 629 263 629 232 598 c 128,-1,4
 201 567 201 567 201 523 c 257,5,6
 201 478 201 478 232 447 c 128,-1,7
 263 416 263 416 308 416 c 257,8,9
 320 416 320 416 332 419 c 257,10,-1
 332 626 l 257,0,1
332 3 m 257,11,-1
 332 266 l 257,12,13
 324 265 324 265 308 265 c 257,14,15
 201 265 201 265 125.5 340.5 c 128,-1,16
 50 416 50 416 50 523 c 128,-1,17
 50 630 50 630 125.5 705 c 128,-1,18
 201 780 201 780 308 780 c 257,19,-1
 314 780 l 257,20,21
 320 780 320 780 326.5 780.5 c 128,-1,22
 333 781 333 781 343.5 780.5 c 128,-1,23
 354 780 354 780 364 779 c 128,-1,24
 374 778 374 778 385.5 776 c 128,-1,25
 397 774 397 774 407 771 c 128,-1,26
 417 768 417 768 427 763 c 128,-1,27
 437 758 437 758 445 752 c 257,28,29
 462 738 462 738 471.5 707.5 c 128,-1,30
 481 677 481 677 482 654 c 257,31,-1
 484 631 l 257,32,-1
 484 3 l 257,33,-1
 332 3 l 257,11,-1
EndSplineSet
EndChar

StartChar: u09EE
Encoding: 2542 2542 1621
GlifName: u09E_E_
Width: 692
VWidth: 0
Flags: W
LayerCount: 2
Fore
SplineSet
203.5 781 m 257,0,-1
 203.5 518 l 257,1,2
 211.5 519 211.5 519 227.5 519 c 257,3,4
 241.5 519 241.5 519 256.5 517 c 257,5,-1
 640.5 517 l 257,6,-1
 640.5 365 l 257,7,-1
 463.5 365 l 257,8,9
 485.5 315 485.5 315 485.5 261 c 257,10,11
 485.5 154 485.5 154 410 79 c 128,-1,12
 334.5 4 334.5 4 227.5 4 c 257,13,-1
 221.5 3.5 l 2,14,15
 215.5 3 215.5 3 209 3 c 128,-1,16
 202.5 3 202.5 3 192 3.5 c 128,-1,17
 181.5 4 181.5 4 171.5 4.5 c 128,-1,18
 161.5 5 161.5 5 150 7 c 128,-1,19
 138.5 9 138.5 9 128.5 12 c 128,-1,20
 118.5 15 118.5 15 108.5 20 c 128,-1,21
 98.5 25 98.5 25 90.5 32 c 257,22,23
 73.5 46 73.5 46 64 76 c 128,-1,24
 54.5 106 54.5 106 52.5 129 c 257,25,-1
 51.5 153 l 257,26,-1
 51.5 781 l 257,27,-1
 203.5 781 l 257,0,-1
203.5 158 m 257,28,29
 215.5 155 215.5 155 227.5 155 c 257,30,31
 272.5 155 272.5 155 303.5 185.5 c 128,-1,32
 334.5 216 334.5 216 334.5 261 c 257,33,34
 334.5 299 334.5 299 311 328 c 128,-1,35
 287.5 357 287.5 357 251.5 365 c 257,36,-1
 205.5 365 l 257,37,38
 204.5 365 204.5 365 203.5 365 c 257,39,-1
 203.5 158 l 257,28,29
EndSplineSet
EndChar

